<?xml version="1.0" encoding="utf-8"?>
<!-- Generator: Adobe Illustrator 21.1.0, SVG Export Plug-In . SVG Version: 6.00 Build 0)  -->
<svg version="1.1" id="Слой_1" xmlns="http://www.w3.org/2000/svg" xmlns:xlink="http://www.w3.org/1999/xlink" x="0px" y="0px"
	 width="48px" height="48px" viewBox="0 0 48 48" style="enable-background:new 0 0 48 48;" xml:space="preserve">
<style type="text/css">
	.st0{fill:none;stroke:#1D1D1F;stroke-width:1.5;stroke-linecap:round;stroke-linejoin:round;}
</style>
<path class="st0" d="M18,24l4,4l9-9 M35.8,10c0.4,1,1.2,1.8,2.2,2.2l3.5,1.4c1,0.4,1.8,1.2,2.2,2.2c0.4,1,0.4,2.1,0,3.1l-1.4,3.5
	c-0.4,1-0.4,2.1,0,3.1l1.4,3.5c0.2,0.5,0.3,1,0.3,1.6c0,0.5-0.1,1.1-0.3,1.6c-0.2,0.5-0.5,0.9-0.9,1.3c-0.4,0.4-0.8,0.7-1.3,0.9
	L38,35.8c-1,0.4-1.8,1.2-2.2,2.2l-1.4,3.5c-0.4,1-1.2,1.8-2.2,2.2c-1,0.4-2.1,0.4-3.1,0l-3.5-1.4c-1-0.4-2.1-0.4-3.1,0L19,43.7
	c-1,0.4-2.1,0.4-3.1,0c-1-0.4-1.8-1.2-2.2-2.2L12.2,38c-0.4-1-1.2-1.8-2.2-2.2l-3.5-1.4c-1-0.4-1.8-1.2-2.2-2.2
	c-0.4-1-0.4-2.1,0-3.1l1.4-3.5c0.4-1,0.4-2.1,0-3.1L4.3,19c-0.2-0.5-0.3-1-0.3-1.6c0-0.5,0.1-1.1,0.3-1.6c0.2-0.5,0.5-0.9,0.9-1.3
	c0.4-0.4,0.8-0.7,1.3-0.9l3.5-1.4c1-0.4,1.8-1.2,2.2-2.2l1.4-3.5c0.4-1,1.2-1.8,2.2-2.2c1-0.4,2.1-0.4,3.1,0l3.5,1.4
	c1,0.4,2.1,0.4,3.1,0L29,4.3c1-0.4,2.1-0.4,3.1,0s1.8,1.2,2.2,2.2L35.8,10L35.8,10z"/>
</svg>
