<svg width="48" height="48" viewBox="0 0 48 48" fill="none" xmlns="http://www.w3.org/2000/svg">
<g id="atom-filled">
<g id="Icon">
<path d="M24.999 24.0003C24.999 24.5526 24.5513 25.0003 23.999 25.0003C23.4467 25.0003 22.999 24.5526 22.999 24.0003C22.999 23.448 23.4467 23.0003 23.999 23.0003C24.5513 23.0003 24.999 23.448 24.999 24.0003Z" fill="white"/>
<path fill-rule="evenodd" clip-rule="evenodd" d="M23.9992 37.0578C26.3582 35.3974 28.7566 33.3849 31.0701 31.0714C33.3837 28.7577 35.3963 26.3593 37.0568 24.0002C35.3963 21.641 33.3837 19.2425 31.07 16.9289C28.7565 14.6153 26.3582 12.6028 23.9992 10.9424C21.6401 12.6029 19.2416 14.6155 16.928 16.9292C14.6144 19.2428 12.6018 21.6411 10.9414 24.0002C12.6018 26.3592 14.6143 28.7575 16.9279 31.071C19.2416 33.3847 21.6401 35.3973 23.9992 37.0578Z" fill="white"/>
<path fill-rule="evenodd" clip-rule="evenodd" d="M10.9414 24.0002C12.6018 26.3592 14.6143 28.7575 16.9279 31.071C19.2416 33.3847 21.6401 35.3973 23.9992 37.0578C26.3582 35.3974 28.7566 33.3849 31.0701 31.0714C33.3837 28.7577 35.3963 26.3593 37.0568 24.0002C35.3963 21.641 33.3837 19.2425 31.07 16.9289C28.7565 14.6153 26.3582 12.6028 23.9992 10.9424C21.6401 12.6029 19.2416 14.6155 16.928 16.9292C14.6144 19.2428 12.6018 21.6411 10.9414 24.0002Z" fill="white"/>
<path d="M23.999 24.0003H24.019M23.9992 10.9424C26.3582 12.6028 28.7565 14.6153 31.07 16.9289C33.3837 19.2425 35.3963 21.641 37.0568 24.0002M23.9992 10.9424C21.6401 12.6029 19.2416 14.6155 16.928 16.9292C14.6144 19.2428 12.6018 21.6411 10.9414 24.0002M23.9992 10.9424C16.8015 5.87621 9.96966 4.08808 7.02838 7.02936C4.08711 9.97063 5.87523 16.8024 10.9414 24.0002M23.9992 10.9424C31.1968 5.87649 38.0284 4.08851 40.9696 7.02972C43.9108 9.97094 42.1228 16.8025 37.0568 24.0002M10.9414 24.0002C12.6018 26.3592 14.6143 28.7575 16.9279 31.071C19.2416 33.3847 21.6401 35.3973 23.9992 37.0578M10.9414 24.0002C5.87529 31.1979 4.08721 38.0296 7.02846 40.9708C9.96973 43.9121 16.8015 42.124 23.9992 37.0578M37.0568 24.0002C35.3963 26.3593 33.3837 28.7577 31.0701 31.0714C28.7566 33.3849 26.3582 35.3974 23.9992 37.0578M37.0568 24.0002C42.1227 31.1977 43.9107 38.0293 40.9695 40.9705C38.0283 43.9117 31.1968 42.1237 23.9992 37.0578M24.999 24.0003C24.999 24.5526 24.5513 25.0003 23.999 25.0003C23.4467 25.0003 22.999 24.5526 22.999 24.0003C22.999 23.448 23.4467 23.0003 23.999 23.0003C24.5513 23.0003 24.999 23.448 24.999 24.0003Z" stroke="#1D1D1F" stroke-width="1.5" stroke-linecap="round" stroke-linejoin="round"/>
</g>
</g>
</svg>
