<svg width="48" height="48" viewBox="0 0 48 48" fill="none" xmlns="http://www.w3.org/2000/svg">
<g id="data - filled">
<g id="Icon">
<path d="M5.6 44C5.03995 44 4.75992 44 4.54601 43.891C4.35785 43.7951 4.20487 43.6422 4.10899 43.454C4 43.2401 4 42.9601 4 42.4V21.6C4 21.0399 4 20.7599 4.10899 20.546C4.20487 20.3579 4.35785 20.2049 4.54601 20.109C4.75992 20 5.03995 20 5.6 20L10.4 20C10.9601 20 11.2401 20 11.454 20.109C11.6422 20.2049 11.7951 20.3578 11.891 20.546C12 20.7599 12 21.0399 12 21.6V26.4C12 26.9601 12 27.2401 12.109 27.454C12.2049 27.6422 12.3578 27.7951 12.546 27.891C12.7599 28 13.0399 28 13.6 28H18.4C18.9601 28 19.2401 28 19.454 28.109C19.6422 28.2049 19.7951 28.3578 19.891 28.546C20 28.7599 20 29.0399 20 29.6V34.4C20 34.9601 20 35.2401 20.109 35.454C20.2049 35.6422 20.3578 35.7951 20.546 35.891C20.7599 36 21.0399 36 21.6 36H26.4C26.9601 36 27.2401 36 27.454 36.109C27.6422 36.2049 27.7951 36.3578 27.891 36.546C28 36.7599 28 37.0399 28 37.6V42.4C28 42.96 28 43.2401 27.891 43.454C27.7951 43.6422 27.6422 43.7951 27.454 43.891C27.2401 44 26.9601 44 26.4 44L5.6 44Z" fill="white"/>
<path d="M5.6 44C5.03995 44 4.75992 44 4.54601 43.891C4.35785 43.7951 4.20487 43.6422 4.10899 43.454C4 43.2401 4 42.9601 4 42.4V21.6C4 21.0399 4 20.7599 4.10899 20.546C4.20487 20.3579 4.35785 20.2049 4.54601 20.109C4.75992 20 5.03995 20 5.6 20L10.4 20C10.9601 20 11.2401 20 11.454 20.109C11.6422 20.2049 11.7951 20.3578 11.891 20.546C12 20.7599 12 21.0399 12 21.6V26.4C12 26.9601 12 27.2401 12.109 27.454C12.2049 27.6422 12.3578 27.7951 12.546 27.891C12.7599 28 13.0399 28 13.6 28H18.4C18.9601 28 19.2401 28 19.454 28.109C19.6422 28.2049 19.7951 28.3578 19.891 28.546C20 28.7599 20 29.0399 20 29.6V34.4C20 34.9601 20 35.2401 20.109 35.454C20.2049 35.6422 20.3578 35.7951 20.546 35.891C20.7599 36 21.0399 36 21.6 36H26.4C26.9601 36 27.2401 36 27.454 36.109C27.6422 36.2049 27.7951 36.3578 27.891 36.546C28 36.7599 28 37.0399 28 37.6V42.4C28 42.96 28 43.2401 27.891 43.454C27.7951 43.6422 27.6422 43.7951 27.454 43.891C27.2401 44 26.9601 44 26.4 44L5.6 44Z" stroke="#1D1D1F" stroke-width="1.5" stroke-linecap="round" stroke-linejoin="round"/>
<path d="M28 13.6C28 13.0399 28 12.7599 27.891 12.546C27.7951 12.3578 27.6422 12.2049 27.454 12.109C27.2401 12 26.9601 12 26.4 12H21.6C21.0399 12 20.7599 12 20.546 12.109C20.3578 12.2049 20.2049 12.3578 20.109 12.546C20 12.7599 20 13.0399 20 13.6V18.4C20 18.9601 20 19.2401 20.109 19.454C20.2049 19.6422 20.3578 19.7951 20.546 19.891C20.7599 20 21.0399 20 21.6 20H26.4C26.9601 20 27.2401 20 27.454 19.891C27.6422 19.7951 27.7951 19.6422 27.891 19.454C28 19.2401 28 18.9601 28 18.4V13.6Z" stroke="#1D1D1F" stroke-width="1.5" stroke-linecap="round" stroke-linejoin="round"/>
<path d="M42 25.6C42 25.0399 42 24.7599 41.891 24.546C41.7951 24.3578 41.6422 24.2049 41.454 24.109C41.2401 24 40.9601 24 40.4 24H35.6C35.0399 24 34.7599 24 34.546 24.109C34.3578 24.2049 34.2049 24.3578 34.109 24.546C34 24.7599 34 25.0399 34 25.6V30.4C34 30.9601 34 31.2401 34.109 31.454C34.2049 31.6422 34.3578 31.7951 34.546 31.891C34.7599 32 35.0399 32 35.6 32H40.4C40.9601 32 41.2401 32 41.454 31.891C41.6422 31.7951 41.7951 31.6422 41.891 31.454C42 31.2401 42 30.9601 42 30.4V25.6Z" stroke="#1D1D1F" stroke-width="1.5" stroke-linecap="round" stroke-linejoin="round"/>
<path d="M44 5.6C44 5.03995 44 4.75992 43.891 4.54601C43.7951 4.35785 43.6422 4.20487 43.454 4.10899C43.2401 4 42.9601 4 42.4 4H37.6C37.0399 4 36.7599 4 36.546 4.10899C36.3578 4.20487 36.2049 4.35785 36.109 4.54601C36 4.75992 36 5.03995 36 5.6V10.4C36 10.9601 36 11.2401 36.109 11.454C36.2049 11.6422 36.3578 11.7951 36.546 11.891C36.7599 12 37.0399 12 37.6 12H42.4C42.9601 12 43.2401 12 43.454 11.891C43.6422 11.7951 43.7951 11.6422 43.891 11.454C44 11.2401 44 10.9601 44 10.4V5.6Z" stroke="#1D1D1F" stroke-width="1.5" stroke-linecap="round" stroke-linejoin="round"/>
</g>
</g>
</svg>
