<svg width="48" height="48" viewBox="0 0 48 48" fill="none" xmlns="http://www.w3.org/2000/svg">
<g id="arrows-triangle">
<path id="Icon" d="M26 38H34.5884C38.3188 38 40.184 38 41.2431 37.2184C42.1664 36.5369 42.7526 35.4917 42.8526 34.3486C42.9673 33.0373 41.9947 31.4458 40.0494 28.2627L38.0556 25M12.2603 21.2104L7.95056 28.2627C6.00535 31.4458 5.03274 33.0373 5.14744 34.3486C5.24745 35.4917 5.83362 36.5369 6.75693 37.2184C7.81598 38 9.68117 38 13.4116 38H17M33.7778 18L29.461 10.9362C27.6554 7.98158 26.7526 6.50428 25.5904 6.00066C24.5757 5.56098 23.4243 5.56098 22.4096 6.00066C21.2474 6.50428 20.3446 7.98158 18.539 10.9362L16.4993 14.2738M36 10.0001L33.8038 18.1963L25.6077 16.0001M4 23.1961L12.1962 21L14.3923 29.1961M31 44L25 38L31 32" stroke="#1D1D1F" stroke-width="1.5" stroke-linecap="round" stroke-linejoin="round"/>
</g>
</svg>
