<svg width="68" height="24" viewBox="0 0 68 24" fill="none" xmlns="http://www.w3.org/2000/svg">
<g clip-path="url(#clip0_1296_23390)">
<path d="M18.1875 1.40063H21.1906V20.1699H18.1875V1.40063ZM31.7014 14.1825C31.7014 17.055 29.2862 17.284 28.5677 17.284C26.7726 17.284 26.446 15.6037 26.446 14.5902V7.40681H23.4429V14.5752C23.4429 16.3545 24.0015 17.823 24.9805 18.802C25.8454 19.6677 27.1412 20.1406 28.5451 20.1406C29.5407 20.1406 30.9506 19.8306 31.7014 19.1451V20.1699H34.7045V7.40681H31.7014V14.1825ZM40.7106 2.90218H37.7076V7.40681H35.4552V10.4099H37.7076V20.1699H40.7106V10.4099H42.963V7.40681H40.7106V2.90218ZM52.4204 16.3538C51.7665 16.9416 50.9031 17.2674 49.9556 17.2674C47.867 17.2674 46.3332 15.7336 46.3332 13.6277C46.3332 11.5218 47.8182 10.0525 49.9556 10.0525C50.8866 10.0525 51.7665 10.3626 52.4369 10.9504L52.8927 11.3424L54.9175 9.31827L54.4107 8.86105C53.2192 7.7852 51.6374 7.18158 49.9549 7.18158C46.201 7.18158 43.475 9.89036 43.475 13.6119C43.475 17.3177 46.2664 20.1234 49.9549 20.1234C51.6689 20.1234 53.2673 19.5198 54.4438 18.4266L54.9333 17.9694L52.8769 15.9468L52.4204 16.3538ZM65.6363 8.51945C64.7714 7.65456 63.7578 7.18158 62.3539 7.18158C61.3584 7.18158 60.2307 7.49164 59.4799 8.17635V1.40063H56.4768V20.1699H59.4799V13.1389C59.4799 10.2665 61.5205 10.0383 62.239 10.0383C64.0341 10.0383 63.9846 11.7192 63.9846 12.7313V20.1699H66.9876V12.747C66.9876 10.9677 66.616 9.49921 65.6363 8.51945Z" fill="white"/>
<path d="M49.8548 11.4875C50.4307 11.4875 50.9829 11.7163 51.3901 12.1235C51.7973 12.5307 52.0261 13.0829 52.0261 13.6588C52.0261 14.2346 51.7973 14.7869 51.3901 15.1941C50.9829 15.6013 50.4307 15.83 49.8548 15.83C49.279 15.83 48.7267 15.6013 48.3195 15.1941C47.9123 14.7869 47.6836 14.2346 47.6836 13.6588C47.6836 13.0829 47.9123 12.5307 48.3195 12.1235C48.7267 11.7163 49.279 11.4875 49.8548 11.4875Z" fill="#FF3D2E"/>
<path d="M13.9786 15.4537C12.8367 16.6287 11.2856 17.2653 9.6534 17.2653C6.30797 17.2653 3.87547 14.6376 3.87547 11.0309C3.87547 7.40771 6.30797 4.78001 9.6534 4.78001C11.2698 4.78001 12.8036 5.41591 13.9628 6.5751L14.4193 7.03232L16.4269 5.02476L15.9862 4.56754C14.3217 2.85353 12.0694 1.92407 9.6534 1.92407C4.72459 1.92407 1.01953 5.84085 1.01953 11.0467C1.01953 16.2368 4.74111 20.1378 9.6534 20.1378C12.0859 20.1378 14.3382 19.1918 16.0027 17.4778L16.4434 17.0206L14.4523 14.9807L13.9786 15.4537Z" fill="white"/>
</g>
<defs>
<clipPath id="clip0_1296_23390">
<rect width="65.9961" height="18.7693" fill="white" transform="translate(1.00391 1.39966)"/>
</clipPath>
</defs>
</svg>
