<svg width="40" height="40" viewBox="0 0 40 40" fill="none" xmlns="http://www.w3.org/2000/svg">
<g id="file-attachment-02">
<path id="Icon" d="M20.8333 3.33301H25.3333C28.1336 3.33301 29.5337 3.33301 30.6033 3.87798C31.5441 4.35734 32.309 5.12224 32.7884 6.06306C33.3333 7.13261 33.3333 8.53275 33.3333 11.333V28.6663C33.3333 31.4666 33.3333 32.8667 32.7884 33.9363C32.309 34.8771 31.5441 35.642 30.6033 36.1214C29.5337 36.6663 28.1336 36.6663 25.3333 36.6663H14.6667C11.8664 36.6663 10.4663 36.6663 9.39671 36.1214C8.4559 35.642 7.691 34.8771 7.21163 33.9363C6.66667 32.8667 6.66667 31.4666 6.66667 28.6663V27.4997M26.6667 21.6663H19.1667M26.6667 14.9997H20.8333M26.6667 28.333H13.3333M10 16.6663V7.49967C10 6.11896 11.1193 4.99967 12.5 4.99967C13.8807 4.99967 15 6.11896 15 7.49967V16.6663C15 19.4278 12.7614 21.6663 10 21.6663C7.23858 21.6663 5 19.4278 5 16.6663V9.99967" stroke="white" stroke-linecap="round" stroke-linejoin="round"/>
</g>
</svg>
