<svg width="22" height="22" viewBox="0 0 22 22" fill="none" xmlns="http://www.w3.org/2000/svg">
<g id="exclamationmark.circle" clip-path="url(#clip0_1344_515)">
<g id="Group">
<path id="Vector" d="M10.9604 21.2059C16.5653 21.2059 21.2059 16.5553 21.2059 10.9604C21.2059 5.35547 16.5553 0.714844 10.9503 0.714844C5.35547 0.714844 0.714844 5.35547 0.714844 10.9604C0.714844 16.5553 5.36551 21.2059 10.9604 21.2059ZM10.9604 19.4984C6.21931 19.4984 2.43248 15.7015 2.43248 10.9604C2.43248 6.21931 6.20927 2.42244 10.9503 2.42244C15.6914 2.42244 19.4984 6.21931 19.4984 10.9604C19.4984 15.7015 15.7015 19.4984 10.9604 19.4984Z" fill="#EB4B62"/>
<path id="Vector_2" d="M10.952 12.7684C11.4241 12.7684 11.7053 12.4972 11.7154 11.9749L11.866 6.67132C11.8761 6.15904 11.4743 5.77734 10.942 5.77734C10.3996 5.77734 10.0179 6.14899 10.0279 6.66127L10.1584 11.9749C10.1685 12.4872 10.4498 12.7684 10.952 12.7684ZM10.952 16.0329C11.5246 16.0329 12.0268 15.5708 12.0268 14.9882C12.0268 14.4057 11.5346 13.9436 10.952 13.9436C10.3594 13.9436 9.86719 14.4158 9.86719 14.9882C9.86719 15.5608 10.3694 16.0329 10.952 16.0329Z" fill="#EB4B62"/>
</g>
</g>
<defs>
<clipPath id="clip0_1344_515">
<rect width="20.491" height="20.5011" fill="white" transform="translate(0.714844 0.713867)"/>
</clipPath>
</defs>
</svg>
