<svg width="20" height="20" viewBox="0 0 20 20" fill="none" xmlns="http://www.w3.org/2000/svg">
<g id="Loader anim">
<path id="Subtract" fill-rule="evenodd" clip-rule="evenodd" d="M10 20C15.5228 20 20 15.5228 20 10C20 4.47715 15.5228 0 10 0C4.47715 0 0 4.47715 0 10C0 15.5228 4.47715 20 10 20ZM10 18.3333C14.6024 18.3333 18.3333 14.6024 18.3333 10C18.3333 5.39763 14.6024 1.66667 10 1.66667C5.39763 1.66667 1.66667 5.39763 1.66667 10C1.66667 14.6024 5.39763 18.3333 10 18.3333Z" fill="url(#paint0_angular_505_54075)"/>
<path id="Ellipse 8 (Stroke)" fill-rule="evenodd" clip-rule="evenodd" d="M18.9846 8.00011C19.4411 7.94122 19.8588 8.2635 19.9177 8.71996C19.9725 9.14428 19.9999 9.57168 19.9999 9.99953C19.9999 10.4598 19.6268 10.8329 19.1666 10.8329C18.7064 10.8329 18.3333 10.4598 18.3333 9.99953C18.3333 9.64299 18.3104 9.28682 18.2648 8.93322C18.2059 8.47677 18.5282 8.059 18.9846 8.00011Z" fill="white"/>
</g>
<defs>
<radialGradient id="paint0_angular_505_54075" cx="0" cy="0" r="1" gradientUnits="userSpaceOnUse" gradientTransform="translate(10 10) scale(10)">
<stop stop-color="white" stop-opacity="0"/>
<stop offset="0.0001" stop-color="white" stop-opacity="0"/>
<stop offset="1" stop-color="white"/>
</radialGradient>
</defs>
</svg>
