<svg width="32" height="32" viewBox="0 0 32 32" fill="none" xmlns="http://www.w3.org/2000/svg">
<g id="Frame">
<path id="Vector" d="M18.668 15.9997L25.3346 15.9997C25.6883 15.9997 26.0274 16.1402 26.2774 16.3902C26.5275 16.6402 26.668 16.9794 26.668 17.333L26.668 21.9997C26.668 22.3533 26.5275 22.6924 26.2774 22.9425C26.0274 23.1925 25.6883 23.333 25.3346 23.333L20.0013 23.333C19.6477 23.333 19.3085 23.1925 19.0585 22.9425C18.8084 22.6924 18.668 22.3533 18.668 21.9997L18.668 15.9997ZM18.668 15.9997C18.668 12.6663 20.0013 10.6663 24.0013 8.66634M5.33463 15.9997L12.0013 15.9997C12.3549 15.9997 12.6941 16.1401 12.9441 16.3902C13.1942 16.6402 13.3346 16.9794 13.3346 17.333L13.3346 21.9997C13.3346 22.3533 13.1942 22.6924 12.9441 22.9425C12.6941 23.1925 12.3549 23.333 12.0013 23.333L6.66796 23.333C6.31434 23.333 5.9752 23.1925 5.72515 22.9425C5.47511 22.6924 5.33463 22.3533 5.33463 21.9997L5.33463 15.9997ZM5.33463 15.9997C5.33463 12.6663 6.66797 10.6663 10.668 8.66634" stroke="white" stroke-width="1.5" stroke-linecap="round"/>
</g>
</svg>
