<svg width="32" height="32" viewBox="0 0 32 32" fill="none" xmlns="http://www.w3.org/2000/svg">
<g id="marker-pin-01">
<g id="Icon">
<path d="M16.0026 17.3337C18.2117 17.3337 20.0026 15.5428 20.0026 13.3337C20.0026 11.1245 18.2117 9.33366 16.0026 9.33366C13.7935 9.33366 12.0026 11.1245 12.0026 13.3337C12.0026 15.5428 13.7935 17.3337 16.0026 17.3337Z" fill="white"/>
<path d="M16.0026 29.3337C21.3359 24.0003 26.6693 19.2247 26.6693 13.3337C26.6693 7.44262 21.8936 2.66699 16.0026 2.66699C10.1116 2.66699 5.33594 7.44262 5.33594 13.3337C5.33594 19.2247 10.6693 24.0003 16.0026 29.3337Z" fill="white"/>
<path d="M16.0026 17.3337C18.2117 17.3337 20.0026 15.5428 20.0026 13.3337C20.0026 11.1245 18.2117 9.33366 16.0026 9.33366C13.7935 9.33366 12.0026 11.1245 12.0026 13.3337C12.0026 15.5428 13.7935 17.3337 16.0026 17.3337Z" stroke="#1D1D1F" stroke-width="1.5" stroke-linecap="round" stroke-linejoin="round"/>
<path d="M16.0026 29.3337C21.3359 24.0003 26.6693 19.2247 26.6693 13.3337C26.6693 7.44262 21.8936 2.66699 16.0026 2.66699C10.1116 2.66699 5.33594 7.44262 5.33594 13.3337C5.33594 19.2247 10.6693 24.0003 16.0026 29.3337Z" stroke="#1D1D1F" stroke-width="1.5" stroke-linecap="round" stroke-linejoin="round"/>
</g>
</g>
</svg>
