<svg width="32" height="32" viewBox="0 0 32 32" fill="none" xmlns="http://www.w3.org/2000/svg">
<g id="line-chart-up-03">
<path id="Icon" d="M22.6667 12L15.4209 19.2458C15.1569 19.5098 15.0249 19.6418 14.8727 19.6912C14.7388 19.7347 14.5946 19.7347 14.4607 19.6912C14.3084 19.6418 14.1764 19.5098 13.9124 19.2458L11.4209 16.7542C11.1569 16.4902 11.0249 16.3582 10.8727 16.3088C10.7388 16.2653 10.5946 16.2653 10.4607 16.3088C10.3084 16.3582 10.1764 16.4902 9.91242 16.7542L4 22.6667M22.6667 12H17.3333M22.6667 12V17.3333M10.4 28H21.6C23.8402 28 24.9603 28 25.816 27.564C26.5686 27.1805 27.1805 26.5686 27.564 25.816C28 24.9603 28 23.8402 28 21.6V10.4C28 8.15979 28 7.03969 27.564 6.18404C27.1805 5.43139 26.5686 4.81947 25.816 4.43597C24.9603 4 23.8402 4 21.6 4H10.4C8.15979 4 7.03969 4 6.18404 4.43597C5.43139 4.81947 4.81947 5.43139 4.43597 6.18404C4 7.03969 4 8.15979 4 10.4V21.6C4 23.8402 4 24.9603 4.43597 25.816C4.81947 26.5686 5.43139 27.1805 6.18404 27.564C7.03969 28 8.15979 28 10.4 28Z" stroke="#1D1D1F" stroke-width="1.5" stroke-linecap="round" stroke-linejoin="round"/>
</g>
</svg>
