<svg width="32" height="32" viewBox="0 0 32 32" fill="none" xmlns="http://www.w3.org/2000/svg">
<g id="wallet-03">
<g id="Icon">
<path d="M22.6667 18.6667C22.6667 19.0349 22.3682 19.3333 22 19.3333C21.6318 19.3333 21.3333 19.0349 21.3333 18.6667C21.3333 18.2985 21.6318 18 22 18C22.3682 18 22.6667 18.2985 22.6667 18.6667Z" fill="white"/>
<path d="M28 25.3333V12C28 10.5272 26.8061 9.33334 25.3333 9.33333L6.66667 9.33333C5.19391 9.33333 4 8.13943 4 6.66667V25.3333C4 26.8061 5.19391 28 6.66667 28H25.3333C26.8061 28 28 26.8061 28 25.3333Z" fill="white"/>
<path d="M22 18.6667H22.0133M4 6.66667V25.3333C4 26.8061 5.19391 28 6.66667 28H25.3333C26.8061 28 28 26.8061 28 25.3333V12C28 10.5272 26.8061 9.33334 25.3333 9.33333L6.66667 9.33333C5.19391 9.33333 4 8.13943 4 6.66667ZM4 6.66667C4 5.19391 5.19391 4 6.66667 4H22.6667M22.6667 18.6667C22.6667 19.0349 22.3682 19.3333 22 19.3333C21.6318 19.3333 21.3333 19.0349 21.3333 18.6667C21.3333 18.2985 21.6318 18 22 18C22.3682 18 22.6667 18.2985 22.6667 18.6667Z" stroke="#1D1D1F" stroke-width="1.5" stroke-linecap="round" stroke-linejoin="round"/>
</g>
</g>
</svg>
