<svg width="32" height="32" viewBox="0 0 32 32" fill="none" xmlns="http://www.w3.org/2000/svg">
<g id="heart-hand">
<g id="Icon">
<path d="M5.86406 29.3335C6.6108 29.3335 6.98417 29.3335 7.26938 29.1882C7.52027 29.0604 7.72424 28.8564 7.85207 28.6055C7.9974 28.3203 7.9974 27.9469 7.9974 27.2002V19.4669C7.9974 18.7201 7.9974 18.3467 7.85207 18.0615C7.72424 17.8106 7.52027 17.6067 7.26938 17.4788C6.98417 17.3335 6.6108 17.3335 5.86406 17.3335H4.7974C4.05066 17.3335 3.67729 17.3335 3.39208 17.4788C3.14119 17.6067 2.93722 17.8106 2.80939 18.0615C2.66406 18.3467 2.66406 18.7201 2.66406 19.4669L2.66406 27.2002C2.66406 27.9469 2.66406 28.3203 2.80939 28.6055C2.93722 28.8564 3.14119 29.0604 3.39207 29.1882C3.67729 29.3335 4.05066 29.3335 4.7974 29.3335H5.86406Z" fill="white"/>
<path d="M17.7114 22.7333H20.9489C21.5498 22.7333 22.134 22.5443 22.6142 22.1933L25.9669 19.7473C26.8037 19.1371 27.9749 19.2181 28.7146 19.9376C29.5361 20.7368 29.5361 22.0313 28.7146 22.8291L25.8379 25.6275C25.0635 26.3808 24.0755 26.8951 23.0014 27.1043L18.9354 27.8954C18.1291 28.052 17.2979 28.0331 16.4999 27.8387L12.8225 26.945C12.3826 26.8371 11.9316 26.7831 11.4778 26.7831H7.9974" fill="white"/>
<path d="M17.7114 22.7333L19.7722 22.7332C20.9337 22.7332 21.8745 21.818 21.8745 20.6881V20.279C21.8745 19.3409 21.2181 18.5228 20.2828 18.296L17.1022 17.5225C16.5846 17.397 16.0545 17.3335 15.5216 17.3335C14.2352 17.3335 11.9066 18.3986 11.9066 18.3986L7.9974 20.0334" fill="white"/>
<path fill-rule="evenodd" clip-rule="evenodd" d="M22.9192 4.78986C22.1235 3.12472 20.2888 2.24257 18.5046 3.09402C16.7204 3.94547 15.9603 5.96469 16.7073 7.73729C17.169 8.8328 18.4917 10.9602 19.4348 12.4256C19.7833 12.967 19.9576 13.2377 20.2121 13.3961C20.4303 13.5319 20.7036 13.6052 20.9606 13.5967C21.2602 13.5868 21.5464 13.4394 22.1189 13.1448C23.6684 12.3473 25.8776 11.1663 26.8252 10.4484C28.3584 9.28674 28.7382 7.15162 27.5903 5.52851C26.4424 3.90539 24.4409 3.74568 22.9192 4.78986Z" fill="white"/>
<path d="M7.9974 26.7831H11.4778C11.9316 26.7831 12.3826 26.8371 12.8225 26.945L16.4999 27.8387C17.2979 28.0331 18.1291 28.052 18.9354 27.8954L23.0014 27.1043C24.0755 26.8951 25.0635 26.3808 25.8379 25.6275L28.7146 22.8291C29.5361 22.0313 29.5361 20.7368 28.7146 19.9376C27.9749 19.2181 26.8037 19.1371 25.9669 19.7473L22.6142 22.1933C22.134 22.5443 21.5498 22.7333 20.9489 22.7333H17.7114L19.7722 22.7332C20.9337 22.7332 21.8745 21.818 21.8745 20.6881V20.279C21.8745 19.3409 21.2181 18.5228 20.2828 18.296L17.1022 17.5225C16.5846 17.397 16.0545 17.3335 15.5216 17.3335C14.2352 17.3335 11.9066 18.3986 11.9066 18.3986L7.9974 20.0334M2.66406 19.4669L2.66406 27.2002C2.66406 27.9469 2.66406 28.3203 2.80939 28.6055C2.93722 28.8564 3.14119 29.0604 3.39207 29.1882C3.67729 29.3335 4.05066 29.3335 4.7974 29.3335H5.86406C6.6108 29.3335 6.98417 29.3335 7.26938 29.1882C7.52027 29.0604 7.72424 28.8564 7.85207 28.6055C7.9974 28.3203 7.9974 27.9469 7.9974 27.2002V19.4669C7.9974 18.7201 7.9974 18.3467 7.85207 18.0615C7.72424 17.8107 7.52027 17.6067 7.26938 17.4788C6.98417 17.3335 6.6108 17.3335 5.86406 17.3335H4.7974C4.05066 17.3335 3.67729 17.3335 3.39208 17.4788C3.14119 17.6067 2.93722 17.8106 2.80939 18.0615C2.66406 18.3467 2.66406 18.7201 2.66406 19.4669ZM22.9192 4.78986C22.1235 3.12472 20.2888 2.24257 18.5046 3.09402C16.7204 3.94547 15.9603 5.96469 16.7073 7.73729C17.169 8.8328 18.4917 10.9602 19.4348 12.4256C19.7833 12.967 19.9576 13.2377 20.2121 13.3961C20.4303 13.5319 20.7036 13.6052 20.9606 13.5967C21.2602 13.5868 21.5464 13.4394 22.1189 13.1448C23.6684 12.3473 25.8776 11.1663 26.8252 10.4484C28.3584 9.28674 28.7382 7.15162 27.5903 5.52851C26.4424 3.90539 24.4409 3.74568 22.9192 4.78986Z" stroke="#1D1D1F" stroke-width="1.5" stroke-linecap="round" stroke-linejoin="round"/>
</g>
</g>
</svg>
