<svg width="48" height="48" viewBox="0 0 48 48" fill="none" xmlns="http://www.w3.org/2000/svg">
<g id="skew">
<path id="Icon" d="M39.4283 13.9998L36.5711 33.9998M12.2857 14L8.71429 34M36 10L16 10M32 38L12 38M11.2 14H12.8C13.9201 14 14.4802 14 14.908 13.782C15.2843 13.5903 15.5903 13.2843 15.782 12.908C16 12.4802 16 11.9201 16 10.8V9.2C16 8.0799 16 7.51984 15.782 7.09202C15.5903 6.71569 15.2843 6.40973 14.908 6.21799C14.4802 6 13.9201 6 12.8 6H11.2C10.0799 6 9.51984 6 9.09202 6.21799C8.71569 6.40973 8.40973 6.71569 8.21799 7.09202C8 7.51984 8 8.07989 8 9.2V10.8C8 11.9201 8 12.4802 8.21799 12.908C8.40973 13.2843 8.71569 13.5903 9.09202 13.782C9.51984 14 10.0799 14 11.2 14ZM7.2 42H8.8C9.92011 42 10.4802 42 10.908 41.782C11.2843 41.5903 11.5903 41.2843 11.782 40.908C12 40.4802 12 39.9201 12 38.8V37.2C12 36.0799 12 35.5198 11.782 35.092C11.5903 34.7157 11.2843 34.4097 10.908 34.218C10.4802 34 9.92011 34 8.8 34H7.2C6.0799 34 5.51984 34 5.09202 34.218C4.71569 34.4097 4.40973 34.7157 4.21799 35.092C4 35.5198 4 36.0799 4 37.2V38.8C4 39.9201 4 40.4802 4.21799 40.908C4.40973 41.2843 4.71569 41.5903 5.09202 41.782C5.51984 42 6.07989 42 7.2 42ZM39.2 14H40.8C41.9201 14 42.4802 14 42.908 13.782C43.2843 13.5903 43.5903 13.2843 43.782 12.908C44 12.4802 44 11.9201 44 10.8V9.2C44 8.0799 44 7.51984 43.782 7.09202C43.5903 6.71569 43.2843 6.40973 42.908 6.21799C42.4802 6 41.9201 6 40.8 6H39.2C38.0799 6 37.5198 6 37.092 6.21799C36.7157 6.40973 36.4097 6.71569 36.218 7.09202C36 7.51984 36 8.07989 36 9.2V10.8C36 11.9201 36 12.4802 36.218 12.908C36.4097 13.2843 36.7157 13.5903 37.092 13.782C37.5198 14 38.0799 14 39.2 14ZM35.2 42H36.8C37.9201 42 38.4802 42 38.908 41.782C39.2843 41.5903 39.5903 41.2843 39.782 40.908C40 40.4802 40 39.9201 40 38.8V37.2C40 36.0799 40 35.5198 39.782 35.092C39.5903 34.7157 39.2843 34.4097 38.908 34.218C38.4802 34 37.9201 34 36.8 34H35.2C34.0799 34 33.5198 34 33.092 34.218C32.7157 34.4097 32.4097 34.7157 32.218 35.092C32 35.5198 32 36.0799 32 37.2V38.8C32 39.9201 32 40.4802 32.218 40.908C32.4097 41.2843 32.7157 41.5903 33.092 41.782C33.5198 42 34.0799 42 35.2 42Z" stroke="#1D1D1F" stroke-width="1.5" stroke-linecap="round" stroke-linejoin="round"/>
</g>
</svg>
