<svg width="230" height="100" viewBox="0 0 230 100" fill="none" xmlns="http://www.w3.org/2000/svg">
<path d="M132.254 87.4668C126.742 90.1568 120.549 91.6663 114.003 91.6663C90.9907 91.6663 72.3359 73.0115 72.3359 49.9997C72.3359 26.9878 90.9907 8.33301 114.003 8.33301C120.549 8.33301 126.742 9.84256 132.254 12.5326C131.728 12.5107 131.2 12.4997 130.669 12.4997C109.959 12.4997 93.1693 29.289 93.1693 49.9997C93.1693 70.7104 109.959 87.4997 130.669 87.4997C131.2 87.4997 131.728 87.4886 132.254 87.4668Z" fill="#ED6B55"/>
<path d="M147.343 25.001C158.447 39.7711 158.444 60.2409 147.336 75.0086" stroke="#1D1D1F" stroke-width="2.3" stroke-linecap="round" stroke-linejoin="round"/>
<path d="M45.435 91.5005C44.8827 91.5005 44.435 91.0528 44.435 90.5005V72.4605H2.90203C1.85157 72.4605 1 71.6089 1 70.5585C1 70.1698 1.11905 69.7905 1.34114 69.4716L43.2568 9.27605C43.6222 8.75129 44.2212 8.43848 44.8606 8.43848C45.94 8.43848 46.815 9.31348 46.815 10.3928V70.1995H59.857C60.4093 70.1995 60.857 70.6472 60.857 71.1995V71.4605C60.857 72.0128 60.4093 72.4605 59.857 72.4605H46.815V90.5005C46.815 91.0528 46.3673 91.5005 45.815 91.5005H45.435ZM3.618 70.1995H44.435V11.7705H44.197L3.618 70.1995Z" fill="#1D1D1F"/>
<path d="M213.435 91.5005C212.883 91.5005 212.435 91.0528 212.435 90.5005V72.4605H170.902C169.852 72.4605 169 71.6089 169 70.5585C169 70.1698 169.119 69.7905 169.341 69.4716L211.257 9.27605C211.622 8.75129 212.221 8.43848 212.861 8.43848C213.94 8.43848 214.815 9.31348 214.815 10.3928V70.1995H227.857C228.409 70.1995 228.857 70.6472 228.857 71.1995V71.4605C228.857 72.0128 228.409 72.4605 227.857 72.4605H214.815V90.5005C214.815 91.0528 214.367 91.5005 213.815 91.5005H213.435ZM171.618 70.1995H212.435V11.7705H212.197L171.618 70.1995Z" fill="#1D1D1F"/>
</svg>
