<svg width="29" height="139" viewBox="0 0 29 139" fill="none" xmlns="http://www.w3.org/2000/svg">
<path d="M23.1395 6.59002C23.1395 7.61587 22.9686 8.53752 22.6267 9.35499C22.2685 10.1725 21.7801 10.8697 21.1614 11.4467C20.5265 12.0238 19.8101 12.4726 19.0124 12.7932C18.2146 13.0977 17.3762 13.25 16.497 13.25C15.2922 13.25 14.1933 12.9855 13.2002 12.4566C12.1908 11.9116 11.3849 11.1422 10.7825 10.1484C10.1801 9.15463 9.87891 7.97651 9.87891 6.61406C9.87891 5.25161 10.1801 4.08151 10.7825 3.10375C11.3849 2.12599 12.1745 1.39668 13.1513 0.915815L14.1282 4.06548C13.656 4.33797 13.2979 4.69862 13.0536 5.14743C12.7932 5.59624 12.6629 6.09312 12.6629 6.63811C12.6629 7.2472 12.8257 7.80821 13.1513 8.32114C13.4607 8.81803 13.9084 9.21073 14.4945 9.49925C15.0643 9.78777 15.7318 9.93203 16.497 9.93203C17.2459 9.93203 17.9134 9.78777 18.4995 9.49925C19.0694 9.1947 19.5252 8.79398 19.8671 8.29708C20.1927 7.80019 20.3555 7.2472 20.3555 6.63811C20.3555 6.25341 20.2904 5.89276 20.1602 5.55616C20.0299 5.20352 19.8508 4.89096 19.6229 4.61847C19.395 4.34598 19.1345 4.14562 18.8414 4.01739L19.8183 0.867721C20.4532 1.15624 21.023 1.58101 21.5278 2.14202C22.0325 2.687 22.4313 3.33617 22.7244 4.08952C23.0012 4.82685 23.1395 5.66035 23.1395 6.59002Z" fill="#1D1D1D"/>
<path d="M22.8938 18.585H10.0971V15.3632H22.8938V18.585ZM8.31441 18.585H5.06641V15.3632H8.31441V18.585Z" fill="#1D1D1D"/>
<path d="M12.9296 20.3813C12.9296 21.3591 13.1249 22.2326 13.5157 23.002C13.8901 23.7714 14.4355 24.3244 15.1519 24.661H22.8934V27.8828H10.0967V24.9255H12.8319C11.9527 24.4767 11.2608 23.9077 10.7561 23.2184C10.2514 22.5292 9.97462 21.7999 9.92578 21.0305C9.92578 20.8542 9.92578 20.7179 9.92578 20.6218C9.92578 20.5256 9.93392 20.4454 9.9502 20.3813H12.9296Z" fill="#1D1D1D"/>
<path d="M22.2342 29.5606C22.3481 29.8331 22.4784 30.1617 22.6249 30.5464C22.7714 30.931 22.8854 31.3478 22.9668 31.7966C23.0645 32.2294 23.1133 32.6702 23.1133 33.119C23.1133 33.712 23.0075 34.257 22.7958 34.7539C22.5842 35.2508 22.2504 35.6515 21.7946 35.9561C21.3224 36.2446 20.7119 36.3889 19.963 36.3889H12.6123V38.0479H10.0969V36.3889H5.94531V33.1671H10.0969V30.5223H12.6123V33.1671H18.864C19.3036 33.151 19.6211 33.0308 19.8165 32.8064C20.0118 32.582 20.1095 32.3015 20.1095 31.9649C20.1095 31.6283 20.0525 31.2997 19.9386 30.9791C19.8246 30.6586 19.7269 30.4021 19.6455 30.2097L22.2342 29.5606Z" fill="#1D1D1D"/>
<path d="M23.1395 45.5438C23.1395 46.5536 22.9686 47.4672 22.6267 48.2847C22.2685 49.1022 21.7882 49.7994 21.1859 50.3764C20.5672 50.9535 19.8671 51.4023 19.0856 51.7229C18.2879 52.0274 17.4494 52.1797 16.5703 52.1797C15.3492 52.1797 14.234 51.9152 13.2246 51.3863C12.2152 50.8413 11.4093 50.0719 10.8069 49.0781C10.1882 48.0683 9.87891 46.8822 9.87891 45.5197C9.87891 44.1412 10.1882 42.9631 10.8069 41.9854C11.4093 41.0076 12.2152 40.2623 13.2246 39.7493C14.2177 39.2204 15.2922 38.9559 16.4482 38.9559C16.6435 38.9559 16.847 38.9639 17.0587 38.9799C17.2541 38.996 17.4169 39.012 17.5471 39.028V48.7655C18.1983 48.7014 18.7682 48.5171 19.2566 48.2126C19.745 47.892 20.1195 47.4913 20.38 47.0104C20.6242 46.5135 20.7463 45.9845 20.7463 45.4235C20.7463 44.7824 20.5916 44.1813 20.2823 43.6203C19.9567 43.0433 19.5334 42.6505 19.0124 42.4422L19.7939 39.6772C20.4451 39.9818 21.023 40.4225 21.5278 40.9996C22.0325 41.5606 22.4313 42.2258 22.7244 42.9952C23.0012 43.7646 23.1395 44.6141 23.1395 45.5438ZM15.4713 48.8377V42.2498C14.8201 42.3139 14.2584 42.4983 13.7863 42.8028C13.2979 43.0913 12.9234 43.476 12.6629 43.9569C12.3861 44.4378 12.2477 44.9747 12.2477 45.5678C12.2477 46.1448 12.3861 46.6738 12.6629 47.1547C12.9234 47.6195 13.2979 48.0042 13.7863 48.3087C14.2584 48.5972 14.8201 48.7736 15.4713 48.8377Z" fill="#1D1D1D"/>
<path d="M22.8936 57.744H11.5134L19.9875 62.1199V63.9712L11.5134 68.3471H22.8936V71.665H5.55469V68.1066L15.4208 63.0576L5.55469 57.9604V54.426H22.8936V57.744Z" fill="#1D1D1D"/>
<path d="M22.2342 85.2071C22.3481 85.4796 22.4784 85.8081 22.6249 86.1928C22.7714 86.5775 22.8854 86.9943 22.9668 87.4431C23.0645 87.8759 23.1133 88.3167 23.1133 88.7655C23.1133 89.3585 23.0075 89.9035 22.7958 90.4004C22.5842 90.8973 22.2504 91.298 21.7946 91.6026C21.3224 91.8911 20.7119 92.0354 19.963 92.0354H12.6123V93.6943H10.0969V92.0354H5.94531V88.8136H10.0969V86.1688H12.6123V88.8136H18.864C19.3036 88.7975 19.6211 88.6773 19.8165 88.4529C20.0118 88.2285 20.1095 87.948 20.1095 87.6114C20.1095 87.2748 20.0525 86.9462 19.9386 86.6256C19.8246 86.305 19.7269 86.0486 19.6455 85.8562L22.2342 85.2071Z" fill="#1D1D1D"/>
<path d="M19.1101 107.312C18.2797 107.312 17.5553 107.087 16.9366 106.638C16.3016 106.173 15.8132 105.532 15.4713 104.715C15.1294 103.897 14.9585 102.96 14.9585 101.902C14.9585 101.373 14.9992 100.836 15.0806 100.291C15.162 99.7459 15.2922 99.2731 15.4713 98.8723H14.7875C13.9735 98.8723 13.3467 99.1128 12.9071 99.5936C12.4675 100.058 12.2477 100.756 12.2477 101.685C12.2477 102.375 12.3699 103.032 12.6141 103.657C12.8583 104.282 13.2165 104.939 13.6886 105.628L11.5395 106.662C10.986 105.829 10.5708 104.979 10.2941 104.114C10.0173 103.232 9.87891 102.311 9.87891 101.349C9.87891 99.5536 10.3348 98.1591 11.2465 97.1653C12.1582 96.1555 13.4607 95.6505 15.1539 95.6505H19.2322C19.5741 95.6505 19.8183 95.5944 19.9648 95.4822C20.1113 95.354 20.2009 95.1537 20.2334 94.8812H22.8953C22.9442 95.1697 22.9849 95.4342 23.0174 95.6746C23.05 95.899 23.0663 96.0913 23.0663 96.2516C23.0663 96.8928 22.9198 97.3817 22.6267 97.7183C22.3336 98.0388 21.9755 98.2392 21.5522 98.3193L20.8928 98.3915C21.6092 98.9365 22.1627 99.6177 22.5534 100.435C22.9442 101.253 23.1395 102.086 23.1395 102.936C23.1395 103.769 22.9686 104.523 22.6267 105.196C22.2685 105.853 21.7882 106.374 21.1859 106.759C20.5672 107.127 19.8753 107.312 19.1101 107.312ZM19.7694 99.4734C19.5741 99.2971 19.3787 99.1529 19.1833 99.0406C18.988 98.9284 18.8089 98.8723 18.6461 98.8723H17.3517C17.1889 99.257 17.0668 99.6738 16.9854 100.123C16.8878 100.571 16.8389 100.996 16.8389 101.397C16.8389 102.23 17.0261 102.92 17.4006 103.465C17.7588 103.994 18.239 104.258 18.8414 104.258C19.167 104.258 19.4764 104.17 19.7694 103.994C20.0625 103.817 20.2986 103.561 20.4776 103.224C20.6567 102.888 20.7463 102.487 20.7463 102.022C20.7463 101.541 20.6567 101.068 20.4776 100.603C20.2823 100.139 20.0462 99.7619 19.7694 99.4734Z" fill="#1D1D1D"/>
<path d="M23.1395 114.996C23.1395 116.006 22.9686 116.919 22.6267 117.737C22.2685 118.554 21.7882 119.252 21.1859 119.829C20.5672 120.406 19.8671 120.854 19.0856 121.175C18.2879 121.48 17.4494 121.632 16.5703 121.632C15.3492 121.632 14.234 121.367 13.2246 120.838C12.2152 120.293 11.4093 119.524 10.8069 118.53C10.1882 117.52 9.87891 116.334 9.87891 114.972C9.87891 113.593 10.1882 112.415 10.8069 111.438C11.4093 110.46 12.2152 109.714 13.2246 109.201C14.2177 108.673 15.2922 108.408 16.4482 108.408C16.6435 108.408 16.847 108.416 17.0587 108.432C17.2541 108.448 17.4169 108.464 17.5471 108.48V118.218C18.1983 118.154 18.7682 117.969 19.2566 117.665C19.745 117.344 20.1195 116.943 20.38 116.463C20.6242 115.966 20.7463 115.437 20.7463 114.876C20.7463 114.235 20.5916 113.633 20.2823 113.072C19.9567 112.495 19.5334 112.103 19.0124 111.894L19.7939 109.129C20.4451 109.434 21.023 109.875 21.5278 110.452C22.0325 111.013 22.4313 111.678 22.7244 112.447C23.0012 113.217 23.1395 114.066 23.1395 114.996ZM15.4713 118.29V111.702C14.8201 111.766 14.2584 111.95 13.7863 112.255C13.2979 112.543 12.9234 112.928 12.6629 113.409C12.3861 113.89 12.2477 114.427 12.2477 115.02C12.2477 115.597 12.3861 116.126 12.6629 116.607C12.9234 117.072 13.2979 117.456 13.7863 117.761C14.2584 118.049 14.8201 118.226 15.4713 118.29Z" fill="#1D1D1D"/>
<path d="M18.4246 123.115C19.4014 123.115 20.2236 123.364 20.8911 123.861C21.5423 124.358 22.0389 125.031 22.3808 125.88C22.7227 126.714 22.8936 127.628 22.8936 128.621V136.868H5.55469L5.55469 127.732C5.55469 126.93 5.77448 126.241 6.21406 125.664C6.63735 125.071 7.1909 124.622 7.87469 124.318C8.5422 123.997 9.24227 123.837 9.9749 123.837C10.8052 123.837 11.5948 124.045 12.3437 124.462C13.0927 124.879 13.6462 125.488 14.0044 126.289C14.2974 125.311 14.8265 124.542 15.5917 123.981C16.3569 123.404 17.3012 123.115 18.4246 123.115ZM17.7896 126.457C17.3501 126.457 16.9593 126.546 16.6174 126.722C16.2593 126.898 15.9825 127.139 15.7871 127.443C15.5755 127.732 15.4696 128.068 15.4696 128.453V133.55H20.0364V128.621C20.0364 128.221 19.9387 127.86 19.7433 127.539C19.5317 127.203 19.2549 126.938 18.913 126.746C18.5711 126.554 18.1967 126.457 17.7896 126.457ZM8.43637 133.55H12.8077V129.126C12.8077 128.758 12.7182 128.421 12.5391 128.116C12.36 127.812 12.1077 127.571 11.7821 127.395C11.4564 127.203 11.0657 127.107 10.6098 127.107C10.1703 127.107 9.78767 127.195 9.46206 127.371C9.13644 127.531 8.88409 127.756 8.705 128.044C8.52592 128.317 8.43637 128.629 8.43637 128.982V133.55Z" fill="#1D1D1D"/>
<path d="M24.4192 78.8917C24.4192 78.7952 24.3459 78.6541 24.2726 78.539C22.9532 76.4639 21.4065 75.1349 19.8415 75.1349C18.4891 75.1349 17.5508 76.0815 17.5508 77.2657C17.5508 78.0045 17.9539 78.5576 18.555 78.8917C17.9539 79.2184 17.5508 79.7752 17.5508 80.5139C17.5508 81.7018 18.4891 82.6484 19.8415 82.6484C21.4065 82.6484 22.9532 81.3158 24.2726 79.2443C24.3459 79.1293 24.4192 78.9882 24.4192 78.8917Z" fill="#EB4B62"/>
</svg>
