<svg width="68" height="24" viewBox="0 0 68 24" fill="none" xmlns="http://www.w3.org/2000/svg">
<g clip-path="url(#clip0_2135_39)">
<path d="M18.1875 1.40234H21.1906V20.1716H18.1875V1.40234ZM31.7014 14.1842C31.7014 17.0567 29.2862 17.2857 28.5677 17.2857C26.7726 17.2857 26.446 15.6054 26.446 14.5919V7.40852H23.4429V14.5769C23.4429 16.3562 24.0015 17.8247 24.9805 18.8037C25.8454 19.6694 27.1412 20.1424 28.5451 20.1424C29.5407 20.1424 30.9506 19.8323 31.7014 19.1468V20.1716H34.7045V7.40852H31.7014V14.1842ZM40.7106 2.90389H37.7076V7.40852H35.4552V10.4116H37.7076V20.1716H40.7106V10.4116H42.963V7.40852H40.7106V2.90389ZM52.4204 16.3555C51.7665 16.9433 50.9031 17.2692 49.9556 17.2692C47.867 17.2692 46.3332 15.7353 46.3332 13.6294C46.3332 11.5235 47.8182 10.0542 49.9556 10.0542C50.8866 10.0542 51.7665 10.3643 52.4369 10.9522L52.8927 11.3441L54.9175 9.31998L54.4107 8.86276C53.2193 7.78691 51.6374 7.18328 49.9549 7.18328C46.201 7.18328 43.475 9.89207 43.475 13.6136C43.475 17.3195 46.2664 20.1251 49.9549 20.1251C51.6689 20.1251 53.2673 19.5215 54.4438 18.4283L54.9333 17.9711L52.8769 15.9485L52.4204 16.3555ZM65.6363 8.52116C64.7714 7.65627 63.7578 7.18328 62.3539 7.18328C61.3584 7.18328 60.2307 7.49335 59.4799 8.17806V1.40234H56.4768V20.1716H59.4799V13.1407C59.4799 10.2682 61.5205 10.04 62.239 10.04C64.0341 10.04 63.9846 11.7209 63.9846 12.733V20.1716H66.9876V12.7488C66.9876 10.9694 66.616 9.50092 65.6363 8.52116Z" fill="white"/>
<path d="M49.8548 11.4883C50.4307 11.4883 50.9829 11.717 51.3901 12.1242C51.7973 12.5314 52.0261 13.0837 52.0261 13.6595C52.0261 14.2354 51.7973 14.7876 51.3901 15.1948C50.9829 15.602 50.4307 15.8307 49.8548 15.8307C49.279 15.8307 48.7267 15.602 48.3195 15.1948C47.9123 14.7876 47.6836 14.2354 47.6836 13.6595C47.6836 13.0837 47.9123 12.5314 48.3195 12.1242C48.7267 11.717 49.279 11.4883 49.8548 11.4883Z" fill="#FF3D2E"/>
<path d="M13.9786 15.4554C12.8367 16.6304 11.2856 17.267 9.6534 17.267C6.30797 17.267 3.87547 14.6393 3.87547 11.0326C3.87547 7.40942 6.30797 4.78172 9.6534 4.78172C11.2698 4.78172 12.8036 5.41762 13.9628 6.57681L14.4193 7.03403L16.4269 5.02647L15.9862 4.56925C14.3217 2.85524 12.0694 1.92578 9.6534 1.92578C4.72459 1.92578 1.01953 5.84256 1.01953 11.0484C1.01953 16.2385 4.74111 20.1395 9.6534 20.1395C12.0859 20.1395 14.3382 19.1935 16.0027 17.4795L16.4434 17.0223L14.4523 14.9824L13.9786 15.4554Z" fill="white"/>
</g>
<defs>
<clipPath id="clip0_2135_39">
<rect width="65.9961" height="18.7693" fill="white" transform="translate(1.00391 1.40039)"/>
</clipPath>
</defs>
</svg>
