<svg width="86" height="24" viewBox="0 0 86 24" fill="none" xmlns="http://www.w3.org/2000/svg">
<path d="M23.5823 16.3367C21.7764 16.2357 20.1281 15.2544 19.1679 13.7102C19.7412 9.1353 21.4037 7.70655 23.5966 7.70655C25.7894 7.70655 27.4663 9.42393 27.4663 11.9928C27.4663 14.5616 25.7608 16.279 23.5966 16.279M23.5966 4.84907C20.4005 4.71918 17.5626 6.91281 16.8747 10.0589C16.1437 8.51473 15.5991 6.89838 15.2264 5.23873H9.80878V12.0072C9.80878 14.4606 8.70518 16.2934 6.52665 16.2934C4.34812 16.2934 3.11553 14.475 3.11553 12.0072V5.23873H0.00539271V12.0072C-0.0662695 13.8833 0.57869 15.7162 1.79695 17.1305C3.00087 18.4582 4.72076 19.1942 6.51232 19.1509C10.2674 19.1509 12.8903 16.2502 12.8903 12.0938V7.51894C12.8903 7.51894 14.5815 12.3103 16.0004 14.4173L14.3378 24H17.5053L18.6089 17.2171C18.9672 17.5346 19.3542 17.8232 19.7698 18.0686C20.8304 18.7468 22.0487 19.1221 23.2956 19.1654H23.5823C27.3947 19.2087 30.5048 16.1347 30.5478 12.2959C30.5478 12.1948 30.5478 12.0938 30.5478 12.0072C30.6338 8.16837 27.6097 4.97895 23.7972 4.89236C23.7256 4.89236 23.6539 4.89236 23.5679 4.89236M68.3711 6.7252V5.28202H65.304V18.6747H68.4141V13.436C68.4141 10.2032 68.7008 7.87974 73.0148 8.1828V5.1377C71.0083 4.97895 69.4317 5.39747 68.3711 6.7252ZM46.8438 5.28202L44.5936 14.6627L42.2001 5.28202H38.2443L35.8508 14.6627L33.6006 5.28202H30.4618L33.9159 18.6891H37.6424L40.2365 9.16416L42.802 18.6891H46.5285L50.1689 5.28202H46.8438ZM56.9768 16.3367C54.7696 16.3367 53.1214 14.5761 53.1214 12.0505C53.1214 9.52495 54.827 7.76428 56.9768 7.76428C59.1267 7.76428 60.8753 9.42393 60.8753 11.9928C60.8753 14.5616 59.1697 16.279 57.0055 16.279M57.0198 4.83464C53.2074 4.77691 50.0829 7.85087 50.0256 11.6753C50.0256 11.7763 50.0256 11.8773 50.0256 11.9928C49.8966 15.8605 52.8921 19.1076 56.7475 19.252C60.5886 19.3818 63.8134 16.3656 63.9567 12.4835C63.9567 12.3247 63.9567 12.1515 63.9567 11.9928C64.0571 8.15394 61.0329 4.96452 57.2205 4.87793C57.1488 4.87793 57.0628 4.87793 56.9912 4.87793M77.4579 12.1082H78.1745L82.5029 18.7035H86L81.0267 11.3866C83.4775 10.3764 85.0684 7.96633 85.0684 5.29645H81.9726C81.9726 8.1828 79.7081 9.27962 77.4579 9.27962V0H74.3477V18.7035H77.4435L77.4579 12.1082Z" fill="white"/>
</svg>
