<svg width="217" height="32" viewBox="0 0 217 32" fill="none" xmlns="http://www.w3.org/2000/svg">
<path d="M211.742 24.2068C210.699 24.2068 209.764 24.0228 208.936 23.6548C208.108 23.2714 207.448 22.7578 206.958 22.1138C206.482 21.4698 206.222 20.7568 206.176 19.9748H209.419C209.48 20.4654 209.718 20.8718 210.132 21.1938C210.561 21.5158 211.09 21.6768 211.719 21.6768C212.332 21.6768 212.807 21.5541 213.145 21.3088C213.497 21.0634 213.674 20.7491 213.674 20.3658C213.674 19.9518 213.459 19.6451 213.03 19.4458C212.616 19.2311 211.949 19.0011 211.029 18.7558C210.078 18.5258 209.296 18.2881 208.683 18.0428C208.085 17.7974 207.563 17.4218 207.119 16.9158C206.689 16.4098 206.475 15.7274 206.475 14.8688C206.475 14.1634 206.674 13.5194 207.073 12.9368C207.487 12.3541 208.069 11.8941 208.821 11.5568C209.587 11.2194 210.484 11.0508 211.512 11.0508C213.03 11.0508 214.241 11.4341 215.146 12.2008C216.05 12.9521 216.549 13.9718 216.641 15.2598H213.559C213.513 14.7538 213.298 14.3551 212.915 14.0638C212.547 13.7571 212.048 13.6038 211.42 13.6038C210.837 13.6038 210.385 13.7111 210.063 13.9258C209.756 14.1404 209.603 14.4394 209.603 14.8228C209.603 15.2521 209.817 15.5818 210.247 15.8118C210.676 16.0264 211.343 16.2488 212.248 16.4788C213.168 16.7088 213.927 16.9464 214.525 17.1918C215.123 17.4371 215.636 17.8204 216.066 18.3418C216.51 18.8478 216.74 19.5224 216.756 20.3658C216.756 21.1018 216.549 21.7611 216.135 22.3438C215.736 22.9264 215.153 23.3864 214.387 23.7238C213.635 24.0458 212.754 24.2068 211.742 24.2068Z" fill="#1D1D1F"/>
<path d="M199.643 11.0737C201.161 11.0737 202.388 11.5567 203.323 12.5227C204.258 13.4734 204.726 14.8074 204.726 16.5247V23.9997H201.506V16.9617C201.506 15.9497 201.253 15.1754 200.747 14.6387C200.241 14.0867 199.551 13.8107 198.677 13.8107C197.788 13.8107 197.082 14.0867 196.561 14.6387C196.055 15.1754 195.802 15.9497 195.802 16.9617V23.9997H192.582V11.2577H195.802V12.8447C196.231 12.2927 196.776 11.8634 197.435 11.5567C198.11 11.2347 198.846 11.0737 199.643 11.0737Z" fill="#1D1D1F"/>
<path d="M184.49 24.2068C183.264 24.2068 182.16 23.9384 181.178 23.4018C180.197 22.8498 179.423 22.0754 178.855 21.0788C178.303 20.0821 178.027 18.9321 178.027 17.6288C178.027 16.3254 178.311 15.1754 178.878 14.1788C179.461 13.1821 180.251 12.4154 181.247 11.8788C182.244 11.3268 183.356 11.0508 184.582 11.0508C185.809 11.0508 186.921 11.3268 187.917 11.8788C188.914 12.4154 189.696 13.1821 190.263 14.1788C190.846 15.1754 191.137 16.3254 191.137 17.6288C191.137 18.9321 190.838 20.0821 190.24 21.0788C189.658 22.0754 188.86 22.8498 187.848 23.4018C186.852 23.9384 185.732 24.2068 184.49 24.2068ZM184.49 21.4008C185.073 21.4008 185.617 21.2628 186.123 20.9868C186.645 20.6954 187.059 20.2661 187.365 19.6988C187.672 19.1314 187.825 18.4414 187.825 17.6288C187.825 16.4174 187.503 15.4898 186.859 14.8458C186.231 14.1864 185.456 13.8568 184.536 13.8568C183.616 13.8568 182.842 14.1864 182.213 14.8458C181.6 15.4898 181.293 16.4174 181.293 17.6288C181.293 18.8401 181.592 19.7754 182.19 20.4348C182.804 21.0788 183.57 21.4008 184.49 21.4008Z" fill="#1D1D1F"/>
<path d="M174.986 9.73977C174.418 9.73977 173.943 9.56344 173.56 9.21077C173.192 8.84277 173.008 8.39044 173.008 7.85377C173.008 7.31711 173.192 6.87244 173.56 6.51977C173.943 6.15177 174.418 5.96777 174.986 5.96777C175.553 5.96777 176.021 6.15177 176.389 6.51977C176.772 6.87244 176.964 7.31711 176.964 7.85377C176.964 8.39044 176.772 8.84277 176.389 9.21077C176.021 9.56344 175.553 9.73977 174.986 9.73977ZM176.573 11.2578V23.9998H173.353V11.2578H176.573Z" fill="#1D1D1F"/>
<path d="M169.105 13.9029V24.0669L165.862 24.0439C165.862 19.392 165.862 13.9029 165.862 13.9029H163.344V11.2579H165.862V7H169.105V11.2579H174.957V13.9029H169.105Z" fill="#1D1D1F"/>
<path d="M161.097 11.2578V23.9998H157.854V22.3898C157.44 22.9418 156.896 23.3788 156.221 23.7008C155.562 24.0075 154.841 24.1608 154.059 24.1608C153.062 24.1608 152.181 23.9538 151.414 23.5398C150.647 23.1105 150.042 22.4895 149.597 21.6768C149.168 20.8488 148.953 19.8675 148.953 18.7328V11.2578H152.173V18.2728C152.173 19.2848 152.426 20.0668 152.932 20.6188C153.438 21.1555 154.128 21.4238 155.002 21.4238C155.891 21.4238 156.589 21.1555 157.095 20.6188C157.601 20.0668 157.854 19.2848 157.854 18.2728V11.2578H161.097Z" fill="#1D1D1F"/>
<path d="M146.81 6.97998V24H143.59V6.97998H146.81Z" fill="#1D1D1F"/>
<path d="M135.498 24.2068C134.271 24.2068 133.167 23.9384 132.186 23.4018C131.205 22.8498 130.43 22.0754 129.863 21.0788C129.311 20.0821 129.035 18.9321 129.035 17.6288C129.035 16.3254 129.319 15.1754 129.886 14.1788C130.469 13.1821 131.258 12.4154 132.255 11.8788C133.252 11.3268 134.363 11.0508 135.59 11.0508C136.817 11.0508 137.928 11.3268 138.925 11.8788C139.922 12.4154 140.704 13.1821 141.271 14.1788C141.854 15.1754 142.145 16.3254 142.145 17.6288C142.145 18.9321 141.846 20.0821 141.248 21.0788C140.665 22.0754 139.868 22.8498 138.856 23.4018C137.859 23.9384 136.74 24.2068 135.498 24.2068ZM135.498 21.4008C136.081 21.4008 136.625 21.2628 137.131 20.9868C137.652 20.6954 138.066 20.2661 138.373 19.6988C138.68 19.1314 138.833 18.4414 138.833 17.6288C138.833 16.4174 138.511 15.4898 137.867 14.8458C137.238 14.1864 136.464 13.8568 135.544 13.8568C134.624 13.8568 133.85 14.1864 133.221 14.8458C132.608 15.4898 132.301 16.4174 132.301 17.6288C132.301 18.8401 132.6 19.7754 133.198 20.4348C133.811 21.0788 134.578 21.4008 135.498 21.4008Z" fill="#1D1D1F"/>
<path d="M122.289 24.1608C121.17 24.1608 120.158 23.9692 119.253 23.5858C118.364 23.2025 117.658 22.6505 117.137 21.9298C116.616 21.2092 116.347 20.3582 116.332 19.3768H119.782C119.828 20.0362 120.058 20.5575 120.472 20.9408C120.901 21.3242 121.484 21.5158 122.22 21.5158C122.971 21.5158 123.562 21.3395 123.991 20.9868C124.42 20.6188 124.635 20.1435 124.635 19.5608C124.635 19.0855 124.489 18.6945 124.198 18.3878C123.907 18.0812 123.539 17.8435 123.094 17.6748C122.665 17.4908 122.067 17.2915 121.3 17.0768C120.257 16.7702 119.406 16.4712 118.747 16.1798C118.103 15.8732 117.543 15.4208 117.068 14.8228C116.608 14.2095 116.378 13.3968 116.378 12.3848C116.378 11.4342 116.616 10.6062 117.091 9.90082C117.566 9.19549 118.233 8.65882 119.092 8.29082C119.951 7.90749 120.932 7.71582 122.036 7.71582C123.692 7.71582 125.034 8.12215 126.061 8.93482C127.104 9.73215 127.679 10.8515 127.786 12.2928H124.244C124.213 11.7408 123.976 11.2885 123.531 10.9358C123.102 10.5678 122.527 10.3838 121.806 10.3838C121.177 10.3838 120.671 10.5448 120.288 10.8668C119.92 11.1888 119.736 11.6565 119.736 12.2698C119.736 12.6992 119.874 13.0595 120.15 13.3508C120.441 13.6268 120.794 13.8568 121.208 14.0408C121.637 14.2095 122.235 14.4088 123.002 14.6388C124.045 14.9455 124.896 15.2522 125.555 15.5588C126.214 15.8655 126.782 16.3255 127.257 16.9388C127.732 17.5522 127.97 18.3572 127.97 19.3538C127.97 20.2125 127.748 21.0098 127.303 21.7458C126.858 22.4818 126.207 23.0722 125.348 23.5168C124.489 23.9462 123.47 24.1608 122.289 24.1608Z" fill="#1D1D1F"/>
<path d="M105.074 11.074C106.04 11.074 106.899 11.2886 107.65 11.718C108.402 12.132 108.984 12.753 109.398 13.581C109.828 14.3936 110.042 15.375 110.042 16.525V24H106.822V16.962C106.822 15.95 106.569 15.1756 106.063 14.639C105.557 14.087 104.867 13.811 103.993 13.811C103.104 13.811 102.399 14.087 101.877 14.639C101.371 15.1756 101.118 15.95 101.118 16.962V24H97.8984V6.97998H101.118V12.845C101.532 12.293 102.084 11.8636 102.774 11.557C103.464 11.235 104.231 11.074 105.074 11.074Z" fill="#1D1D1F"/>
<path d="M84.1562 17.6288C84.1562 16.3101 84.4246 15.1601 84.9613 14.1788C85.4979 13.1821 86.2416 12.4154 87.1923 11.8788C88.1429 11.3268 89.2316 11.0508 90.4583 11.0508C92.0376 11.0508 93.3409 11.4494 94.3683 12.2468C95.4109 13.0288 96.1086 14.1328 96.4613 15.5588H92.9883C92.8043 15.0068 92.4899 14.5774 92.0452 14.2708C91.6159 13.9488 91.0793 13.7878 90.4353 13.7878C89.5153 13.7878 88.7869 14.1251 88.2503 14.7998C87.7136 15.4591 87.4453 16.4021 87.4453 17.6288C87.4453 18.8401 87.7136 19.7831 88.2503 20.4578C88.7869 21.1171 89.5153 21.4468 90.4353 21.4468C91.7386 21.4468 92.5896 20.8641 92.9883 19.6988H96.4613C96.1086 21.0788 95.4109 22.1751 94.3683 22.9878C93.3256 23.8004 92.0223 24.2068 90.4583 24.2068C89.2316 24.2068 88.1429 23.9384 87.1923 23.4018C86.2416 22.8498 85.4979 22.0831 84.9613 21.1018C84.4246 20.1051 84.1562 18.9474 84.1562 17.6288Z" fill="#1D1D1F"/>
<path d="M83.5519 17.3528C83.5519 17.8128 83.5212 18.2268 83.4599 18.5948H74.1449C74.2216 19.5148 74.5436 20.2354 75.1109 20.7568C75.6782 21.2781 76.3759 21.5388 77.2039 21.5388C78.3999 21.5388 79.2509 21.0251 79.7569 19.9978H83.2299C82.8619 21.2244 82.1566 22.2364 81.1139 23.0338C80.0712 23.8158 78.7909 24.2068 77.2729 24.2068C76.0462 24.2068 74.9422 23.9384 73.9609 23.4018C72.9949 22.8498 72.2359 22.0754 71.6839 21.0788C71.1472 20.0821 70.8789 18.9321 70.8789 17.6288C70.8789 16.3101 71.1472 15.1524 71.6839 14.1558C72.2206 13.1591 72.9719 12.3924 73.9379 11.8558C74.9039 11.3191 76.0156 11.0508 77.2729 11.0508C78.4842 11.0508 79.5652 11.3114 80.5159 11.8328C81.4819 12.3541 82.2256 13.0978 82.7469 14.0638C83.2836 15.0144 83.5519 16.1108 83.5519 17.3528ZM80.2169 16.4328C80.2016 15.6048 79.9026 14.9454 79.3199 14.4548C78.7372 13.9488 78.0242 13.6958 77.1809 13.6958C76.3836 13.6958 75.7089 13.9411 75.1569 14.4318C74.6202 14.9071 74.2906 15.5741 74.1679 16.4328H80.2169Z" fill="#1D1D1F"/>
<path d="M70.2799 7.9458V10.5448H66.0019V23.9998H62.7819V10.5448H58.5039V7.9458H70.2799Z" fill="#1D1D1F"/>
<path d="M52.1274 11.0737C53.6454 11.0737 54.8721 11.5567 55.8074 12.5227C56.7427 13.4734 57.2104 14.8074 57.2104 16.5247V23.9997H53.9904V16.9617C53.9904 15.9497 53.7374 15.1754 53.2314 14.6387C52.7254 14.0867 52.0354 13.8107 51.1614 13.8107C50.2721 13.8107 49.5667 14.0867 49.0454 14.6387C48.5394 15.1754 48.2864 15.9497 48.2864 16.9617V23.9997H45.0664V11.2577H48.2864V12.8447C48.7157 12.2927 49.2601 11.8634 49.9194 11.5567C50.5941 11.2347 51.3301 11.0737 52.1274 11.0737Z" fill="#1D1D1F"/>
<path d="M42.8059 7.9458V23.9998H39.5859V7.9458H42.8059Z" fill="#1D1D1F"/>
<path fill-rule="evenodd" clip-rule="evenodd" d="M6 2C2.68629 2 0 4.68629 0 8V30H22C25.3137 30 28 27.3137 28 24V2H6ZM10.404 10.243C10.0207 10.5957 9.54533 10.772 8.978 10.772C8.41066 10.772 7.943 10.5957 7.575 10.243C7.19166 9.875 7 9.42267 7 8.886C7 8.34933 7.19166 7.90467 7.575 7.552C7.943 7.184 8.41066 7 8.978 7C9.54533 7 10.0207 7.184 10.404 7.552C10.772 7.90467 10.956 8.34933 10.956 8.886C10.956 9.42267 10.772 9.875 10.404 10.243ZM7.39099 25V12.29H10.611V12.2902H14.8567V8.13916H18.0997V12.2902H20.999V14.9352H18.0997V23.0141C18.0997 24.1131 17.2129 25.0063 16.1139 25.0141L14.8567 25.023V14.9352H10.611V25H7.39099Z" fill="#ED6B55"/>
</svg>
