<svg width="164" height="32" viewBox="0 0 164 32" fill="none" xmlns="http://www.w3.org/2000/svg">
<path fill-rule="evenodd" clip-rule="evenodd" d="M48.85 15.0478C48.279 14.6054 47.6489 14.2409 46.9772 13.9645C46.3131 13.6823 45.6125 13.4293 44.9317 13.2055C44.251 12.9817 43.6267 12.7384 43.0589 12.4854C42.5439 12.2688 42.0787 11.9533 41.6908 11.5577C41.333 11.1579 41.1474 10.6383 41.1729 10.1078C41.1592 9.78338 41.2301 9.46086 41.3787 9.17042C41.5274 8.87999 41.749 8.63112 42.0229 8.44709C42.7237 8.01692 43.5443 7.81059 44.3706 7.85676C45.1131 7.84323 45.8483 8.00221 46.5157 8.32059C47.202 8.68032 47.8136 9.16215 48.3188 9.74129L50.5635 7.54536C49.8688 6.72281 48.9984 6.05858 48.0133 5.5992C46.9046 5.07843 45.6869 4.81744 44.4569 4.83696C43.3081 4.82165 42.1687 5.04268 41.1131 5.48568C40.1582 5.88214 39.3351 6.53013 38.7356 7.35724C38.1334 8.23291 37.8268 9.27071 37.8589 10.3251C37.8265 11.1891 38.004 12.0484 38.3769 12.8324C38.6994 13.463 39.1678 14.0116 39.745 14.4348C40.3219 14.8539 40.9513 15.1995 41.6178 15.463C42.2819 15.7355 42.9826 15.9787 43.6633 16.1961C44.305 16.3942 44.931 16.6382 45.5361 16.9259C46.0628 17.1681 46.5295 17.5189 46.9042 17.9541C47.2679 18.4117 47.4527 18.981 47.4255 19.5597C47.4361 19.9264 47.3501 20.2896 47.1756 20.6145C47.0012 20.9394 46.7442 21.2151 46.4293 21.415C45.6354 21.9002 44.7082 22.1357 43.7729 22.0897C42.7517 22.1319 41.7375 21.908 40.8341 21.441C40.0388 20.9768 39.3585 20.3465 38.8418 19.5954L36.5938 21.7913C37.3983 22.8154 38.4171 23.6602 39.5823 24.2694C40.8486 24.8637 42.2424 25.1528 43.6467 25.1127C45.8161 25.1127 47.5395 24.597 48.8168 23.5655C50.0942 22.5341 50.7328 21.1361 50.7328 19.3716C50.7641 18.4721 50.587 17.5773 50.2148 16.754C49.8978 16.0918 49.4312 15.5084 48.85 15.0478ZM70.7048 14.133C71.1625 13.9213 71.6669 13.8243 72.1726 13.8508C72.7887 13.8397 73.3995 13.965 73.959 14.2173C74.4978 14.477 74.9699 14.8517 75.3404 15.3137L77.3593 13.3448C76.8078 12.5964 76.0678 11.9998 75.2109 11.6127C74.2813 11.2138 73.2741 11.0168 72.2589 11.0354C71.3243 11.0115 70.3955 11.1852 69.536 11.5446C68.8207 11.8462 68.2104 12.3443 67.7794 12.9783C67.3518 13.6437 67.1357 14.418 67.1585 15.2034C67.1273 15.8954 67.3076 16.5807 67.6765 17.1723C68.0134 17.6705 68.4692 18.0812 69.0047 18.3692C69.5533 18.6607 70.1336 18.8914 70.7348 19.0568C71.3391 19.2255 71.9147 19.3898 72.4614 19.5498C72.9305 19.6784 73.3779 19.8729 73.7897 20.1272C73.9569 20.2297 74.093 20.3739 74.1841 20.545C74.2751 20.716 74.3178 20.9077 74.3077 21.1003C74.3141 21.286 74.2658 21.4696 74.1687 21.6294C74.0716 21.7892 73.9297 21.9185 73.7598 22.002C73.2568 22.2353 72.7019 22.3412 72.146 22.3102C71.4182 22.3219 70.6961 22.1826 70.0275 21.9015C69.3871 21.6207 68.8196 21.2028 68.3672 20.6786L66.3516 22.6475C66.792 23.1735 67.3182 23.625 67.9089 23.9839C68.5172 24.3562 69.1769 24.6413 69.8681 24.8304C70.5897 25.0296 71.3363 25.129 72.0862 25.1256C73.7 25.1256 74.9774 24.7407 75.9182 23.9709C76.3827 23.5907 76.7516 23.1112 76.9962 22.5696C77.2409 22.028 77.3549 21.4388 77.3294 20.8473C77.3614 20.1419 77.1813 19.4428 76.8114 18.8363C76.4752 18.3264 76.02 17.9018 75.4832 17.5972C74.939 17.2877 74.3594 17.0416 73.7565 16.8641C73.1488 16.6857 72.5744 16.5236 72.0265 16.3711C71.5608 16.2529 71.1139 16.0728 70.6982 15.8359C70.5379 15.751 70.4045 15.6248 70.3126 15.4709C70.2206 15.317 70.1737 15.1415 70.1769 14.9634C70.1717 14.7896 70.2191 14.6182 70.313 14.4706C70.4068 14.3229 70.5431 14.2055 70.7048 14.133ZM96.1744 11.0357C97.1148 11.0228 98.0441 11.2356 98.8807 11.6552C99.6739 12.0612 100.34 12.6685 100.81 13.4133C101.307 14.2292 101.557 15.1661 101.531 16.1152V24.8405H98.3593V16.7931C98.3824 16.4028 98.317 16.0123 98.1677 15.6496C98.0185 15.2868 97.7891 14.9607 97.496 14.6945C96.9064 14.1934 96.1454 13.9271 95.3642 13.9485C94.8361 13.9387 94.313 14.0497 93.8367 14.2728C93.3844 14.4892 93.0043 14.8266 92.7409 15.2459C92.4606 15.7097 92.3213 16.2418 92.3391 16.7801V24.8405H89.168V16.7931C89.1917 16.4027 89.1266 16.0121 88.9773 15.6492C88.828 15.2863 88.5983 14.9603 88.3046 14.6945C87.715 14.1934 86.954 13.9271 86.1728 13.9485C85.6401 13.9354 85.1119 14.0466 84.632 14.2728C84.1858 14.4929 83.811 14.8298 83.5495 15.2459C83.2693 15.7097 83.1299 16.2418 83.1477 16.7801V24.847H79.9766V11.3374H83.1344V12.7321C83.5114 12.3118 83.961 11.9594 84.4627 11.6909C85.2767 11.2561 86.1914 11.0327 87.1191 11.0422C88.0438 11.0282 88.9572 11.2412 89.7756 11.6617C90.5124 12.048 91.1337 12.6147 91.5787 13.3062C92.0748 12.6281 92.7264 12.0727 93.4814 11.6844C94.3102 11.2535 95.2356 11.0306 96.1744 11.0357ZM116.789 14.3018C116.249 13.314 115.446 12.487 114.465 11.908C113.43 11.3151 112.247 11.0132 111.048 11.0355C109.796 11.0235 108.563 11.3364 107.475 11.9421C106.387 12.5479 105.483 13.4249 104.855 14.4835C104.228 15.5828 103.899 16.8205 103.899 18.079C103.899 19.3375 104.228 20.5752 104.855 21.6746C105.483 22.7289 106.389 23.5993 107.478 24.1948C108.618 24.8137 109.904 25.1291 111.207 25.1095C112.256 25.1144 113.295 24.9136 114.262 24.5192C115.208 24.1338 116.048 23.5359 116.713 22.7741L114.694 20.7761C114.272 21.2435 113.744 21.6088 113.153 21.8432C112.527 22.0927 111.857 22.2173 111.181 22.2097C110.417 22.2254 109.661 22.0465 108.989 21.6908C108.362 21.3494 107.851 20.8349 107.521 20.2117C107.355 19.9041 107.229 19.5771 107.146 19.2386H117.46C117.52 18.9596 117.563 18.7002 117.59 18.4666C117.619 18.2374 117.633 18.0067 117.633 17.7757C117.66 16.5664 117.369 15.3705 116.789 14.3018ZM107.16 16.6924C107.234 16.3853 107.345 16.088 107.492 15.8069C107.802 15.2121 108.283 14.7185 108.876 14.3862C109.518 14.0371 110.244 13.8624 110.978 13.8802C111.656 13.8581 112.328 14.0138 112.924 14.331C113.456 14.634 113.883 15.086 114.149 15.6285C114.315 15.9677 114.436 16.3264 114.508 16.6956L107.16 16.6924ZM131.611 5.25713C131.839 5.16501 132.085 5.12025 132.332 5.12572C132.586 5.11479 132.839 5.15688 133.074 5.24918C133.309 5.34149 133.522 5.48186 133.697 5.66091C134.03 6.02486 134.215 6.49602 134.215 6.98431C134.215 7.47259 134.03 7.94375 133.697 8.3077C133.337 8.65066 132.854 8.8426 132.351 8.8426C131.848 8.8426 131.365 8.65066 131.004 8.3077C130.663 7.94782 130.473 7.47513 130.473 6.98431C130.473 6.49349 130.663 6.02079 131.004 5.66091C131.176 5.48675 131.382 5.34926 131.611 5.25713ZM125.099 5.68945H121.928V11.3171H118.617V14.1326H121.928V24.8267H125.099V14.1326H130.747V24.8267H133.915V11.3171H125.099V5.68945ZM143.829 14.0201C143.097 14.0065 142.375 14.187 141.74 14.5423C141.146 14.878 140.657 15.3673 140.329 15.9565C139.995 16.6115 139.822 17.3332 139.822 18.0648C139.822 18.7965 139.995 19.5182 140.329 20.1732C140.653 20.7714 141.142 21.2691 141.74 21.6101C142.376 21.9644 143.098 22.1438 143.829 22.1291C144.467 22.1358 145.099 22.0167 145.689 21.7788C146.253 21.5446 146.751 21.182 147.143 20.7214L149.218 22.7778C148.57 23.5228 147.757 24.114 146.841 24.5066C145.77 24.955 144.609 25.1589 143.445 25.1027C142.282 25.0465 141.147 24.7317 140.127 24.1823C139.042 23.5797 138.142 22.7052 137.52 21.649C136.897 20.553 136.57 19.32 136.57 18.0665C136.57 16.8129 136.897 15.58 137.52 14.4839C138.146 13.4346 139.045 12.5661 140.127 11.9669C141.146 11.4161 142.281 11.1005 143.445 11.0443C144.609 10.988 145.77 11.1927 146.841 11.6425C147.758 12.0352 148.571 12.6277 149.218 13.3746L147.143 15.4278C146.752 14.9671 146.253 14.6054 145.689 14.3736C145.1 14.1331 144.467 14.0128 143.829 14.0201ZM161.236 11.3176V12.8324C160.831 12.3757 160.348 11.9915 159.808 11.6971C158.944 11.2494 157.977 11.026 156.999 11.0484C155.801 11.0342 154.625 11.3623 153.615 11.9923C152.606 12.6206 151.782 13.4934 151.221 14.5256C150.647 15.6313 150.348 16.8537 150.348 18.0935C150.348 19.3334 150.647 20.5557 151.221 21.6615C151.779 22.6918 152.605 23.5609 153.615 24.1818C154.629 24.8011 155.803 25.1231 156.999 25.1095C157.981 25.1309 158.952 24.9077 159.821 24.4607C160.357 24.1752 160.836 23.7984 161.236 23.3482V24.8402H164.404V11.3176H161.236ZM160.356 21.029C159.997 21.4109 159.557 21.7118 159.066 21.9107C158.576 22.1096 158.047 22.2016 157.517 22.1805C156.803 22.1949 156.1 22.0152 155.485 21.6615C154.896 21.3113 154.419 20.8097 154.103 20.2116C153.771 19.5451 153.599 18.8137 153.599 18.0724C153.599 17.3312 153.771 16.5997 154.103 15.9333C154.419 15.3352 154.896 14.8336 155.485 14.4834C156.1 14.1297 156.803 13.95 157.517 13.9644C158.24 13.9476 158.954 14.1273 159.579 14.4834C160.165 14.8324 160.638 15.3347 160.947 15.9333C161.283 16.5983 161.45 17.3326 161.435 18.0741C161.478 19.158 161.091 20.2163 160.356 21.029ZM55.2327 11.3174L58.7758 20.1205L62.5214 11.3174H66.0346L59.6126 24.9697L57.6169 29.2351H54.1369L57.0026 23.4712L51.7461 11.3174H55.2327Z" fill="white"/>
<path fill-rule="evenodd" clip-rule="evenodd" d="M4.57906 0.0878906H14.2088C14.4841 0.0888589 14.7566 0.143265 15.0103 0.247948C15.2639 0.352631 15.4938 0.505506 15.6865 0.697691L22.0127 6.86726L22.0393 6.89321C23.0853 7.95063 22.2519 9.72813 20.7642 9.74435H15.604C15.3759 9.7445 15.15 9.70075 14.9392 9.6156C14.7284 9.53044 14.5368 9.40556 14.3754 9.24807L10.692 5.57204L5.65762 10.4854L11.2676 15.9979H11.2544C10.5963 16.6412 9.81492 17.1515 8.95487 17.4996C8.09481 17.8478 7.17292 18.027 6.24193 18.027C5.31095 18.027 4.3891 17.8478 3.52904 17.4996C2.66898 17.1515 1.88759 16.6412 1.22952 15.9979L0.619698 15.4022C0.424753 15.2132 0.264703 14.9936 0.159261 14.7458C0.05382 14.4981 -0.000309338 14.2324 1.32971e-06 13.964V4.55758C0.00263584 3.37238 0.486017 2.2365 1.34429 1.39873C2.20256 0.560966 3.36573 0.0896043 4.57906 0.0878906ZM11.2676 15.9979L16.8807 21.5079L11.8735 26.3989L8.14625 22.7542C7.82065 22.4353 7.37872 22.2556 6.9176 22.2547H1.7574C0.253172 22.2385 -0.55371 24.0452 0.492275 25.1026L6.84456 31.3076L6.85835 31.2983C7.0494 31.4889 7.27698 31.6408 7.52815 31.7453C7.77942 31.85 8.04933 31.9052 8.32246 31.9079H17.9522C19.165 31.9045 20.3271 31.4326 21.185 30.5952C22.0429 29.7578 22.5269 28.6229 22.5313 27.4382V18.0317C22.5316 17.7634 22.4774 17.4977 22.372 17.25C22.2666 17.0022 22.1119 16.7773 21.917 16.5883L21.2893 15.9914C20.6315 15.3482 19.8504 14.838 18.9906 14.4899C18.1309 14.1418 17.2093 13.9626 16.2785 13.9626C15.3478 13.9626 14.4262 14.1418 13.5665 14.4899C12.7067 14.838 11.9255 15.3482 11.2678 15.9914L11.2676 15.9979Z" fill="#8970EF"/>
</svg>
