<?xml version="1.0" encoding="utf-8"?>
<!-- Generator: Adobe Illustrator 21.1.0, SVG Export Plug-In . SVG Version: 6.00 Build 0)  -->
<svg version="1.1" id="Слой_1" xmlns="http://www.w3.org/2000/svg" xmlns:xlink="http://www.w3.org/1999/xlink" x="0px" y="0px"
	 width="496px" height="378px" viewBox="0 0 496 378" style="enable-background:new 0 0 496 378;" xml:space="preserve">
<style type="text/css">
	.st0{fill:#1D1D1F;}
	.st1{fill:#ED6B55;}
</style>
<g>
	<circle class="st0" cx="360.6" cy="253.4" r="3.1"/>
	<circle class="st0" cx="324.9" cy="253.4" r="3.1"/>
	<circle class="st0" cx="289.1" cy="253.4" r="3.1"/>
	<circle class="st0" cx="253.4" cy="253.4" r="3.1"/>
	<circle class="st0" cx="217.6" cy="253.4" r="3.1"/>
	<circle class="st0" cx="181.9" cy="253.4" r="3.1"/>
	<circle class="st0" cx="146.1" cy="253.4" r="3.1"/>
	<circle class="st0" cx="110.4" cy="253.4" r="3.1"/>
	<circle class="st0" cx="110.4" cy="289.1" r="3.1"/>
	<circle class="st0" cx="74.6" cy="253.4" r="3.1"/>
	<circle class="st0" cx="253.4" cy="74.6" r="3.1"/>
	<circle class="st0" cx="217.6" cy="74.6" r="3.1"/>
	<circle class="st0" cx="146.1" cy="74.6" r="3.1"/>
	<circle class="st0" cx="146.1" cy="38.9" r="3.1"/>
	<circle class="st0" cx="146.1" cy="3.1" r="3.1"/>
	<circle class="st0" cx="110.4" cy="74.6" r="3.1"/>
	<circle class="st0" cx="110.4" cy="38.9" r="3.1"/>
	<circle class="st0" cx="289.1" cy="324.9" r="3.1"/>
	<circle class="st0" cx="253.4" cy="324.9" r="3.1"/>
	<circle class="st0" cx="217.6" cy="324.9" r="3.1"/>
	<circle class="st0" cx="253.4" cy="146.1" r="3.1"/>
	<circle class="st0" cx="217.6" cy="146.1" r="3.1"/>
	<circle class="st0" cx="146.1" cy="146.1" r="3.1"/>
	<circle class="st0" cx="110.4" cy="146.1" r="3.1"/>
	<circle class="st0" cx="74.6" cy="146.1" r="3.1"/>
	<circle class="st0" cx="3.1" cy="110.4" r="3.1"/>
	<circle class="st0" cx="38.9" cy="146.1" r="3.1"/>
	<circle class="st0" cx="110.4" cy="181.9" r="3.1"/>
	<circle class="st0" cx="74.6" cy="181.9" r="3.1"/>
	<circle class="st0" cx="38.9" cy="181.9" r="3.1"/>
	<circle class="st0" cx="181.9" cy="146.1" r="3.1"/>
	<circle class="st0" cx="324.9" cy="146.1" r="3.1"/>
	<circle class="st0" cx="289.1" cy="146.1" r="3.1"/>
	<circle class="st0" cx="324.9" cy="289.1" r="3.1"/>
	<circle class="st0" cx="289.1" cy="289.1" r="3.1"/>
	<circle class="st0" cx="253.4" cy="289.1" r="3.1"/>
	<circle class="st0" cx="217.6" cy="289.1" r="3.1"/>
	<circle class="st0" cx="181.9" cy="289.1" r="3.1"/>
	<circle class="st0" cx="146.1" cy="289.1" r="3.1"/>
	<circle class="st0" cx="253.4" cy="110.4" r="3.1"/>
	<circle class="st0" cx="217.6" cy="110.4" r="3.1"/>
	<circle class="st0" cx="146.1" cy="110.4" r="3.1"/>
	<circle class="st0" cx="110.4" cy="110.4" r="3.1"/>
	<circle class="st0" cx="74.6" cy="110.4" r="3.1"/>
	<circle class="st0" cx="74.6" cy="74.6" r="3.1"/>
	<circle class="st0" cx="38.9" cy="110.4" r="3.1"/>
	<circle class="st0" cx="38.9" cy="74.6" r="3.1"/>
	<circle class="st0" cx="181.9" cy="110.4" r="3.1"/>
	<circle class="st0" cx="181.9" cy="74.6" r="3.1"/>
	<circle class="st0" cx="324.9" cy="181.9" r="3.1"/>
	<circle class="st0" cx="289.1" cy="181.9" r="3.1"/>
	<circle class="st1" cx="253.4" cy="181.9" r="9.3"/>
	<circle class="st0" cx="324.9" cy="217.6" r="3.1"/>
	<circle class="st0" cx="289.1" cy="217.6" r="3.1"/>
	<circle class="st0" cx="253.4" cy="217.6" r="3.1"/>
	<circle class="st0" cx="217.6" cy="217.6" r="3.1"/>
	<circle class="st0" cx="181.9" cy="217.6" r="3.1"/>
	<circle class="st0" cx="146.1" cy="217.6" r="3.1"/>
	<circle class="st0" cx="110.4" cy="217.6" r="3.1"/>
	<circle class="st0" cx="74.6" cy="217.6" r="3.1"/>
	<circle class="st0" cx="38.9" cy="217.6" r="3.1"/>
	<circle class="st0" cx="253.4" cy="38.9" r="3.1"/>
	<circle class="st0" cx="217.6" cy="38.9" r="3.1"/>
	<circle class="st0" cx="181.9" cy="38.9" r="3.1"/>
	<circle class="st0" cx="324.9" cy="110.4" r="3.1"/>
	<circle class="st0" cx="360.6" cy="110.4" r="3.1"/>
	<circle class="st0" cx="360.6" cy="146.1" r="3.1"/>
	<circle class="st0" cx="289.1" cy="110.4" r="3.1"/>
	<circle class="st0" cx="289.1" cy="74.6" r="3.1"/>
	<circle class="st0" cx="324.9" cy="74.6" r="3.1"/>
	<circle class="st0" cx="289.1" cy="38.9" r="3.1"/>
	<circle class="st0" cx="324.9" cy="38.9" r="3.1"/>
	<path class="st1" d="M157.3,187l-3.2-14h2.6l1.4,6.7l0.9,4.3h0.1l1-4.3l1.6-6.7h2.9l1.6,6.7l1,4.3h0.1l0.9-4.3l1.4-6.7h2.5l-3.3,14
		h-3l-1.8-7.4l-0.9-3.7l0,0l-0.9,3.7l-1.8,7.4H157.3z M181.2,187c-0.6,0-1-0.2-1.3-0.5s-0.5-0.8-0.6-1.3h-0.1
		c-0.2,0.7-0.5,1.2-1.1,1.5c-0.5,0.3-1.2,0.5-2,0.5c-1.1,0-1.9-0.3-2.5-0.8c-0.6-0.6-0.9-1.3-0.9-2.2c0-1.1,0.4-1.9,1.2-2.4
		s1.9-0.8,3.3-0.8h1.8v-0.8c0-0.6-0.2-1-0.5-1.4c-0.3-0.3-0.8-0.5-1.5-0.5c-0.6,0-1.1,0.1-1.5,0.4c-0.4,0.3-0.7,0.6-0.9,0.9
		l-1.5-1.4c0.4-0.6,0.9-1.1,1.5-1.4c0.6-0.4,1.5-0.6,2.5-0.6c1.4,0,2.5,0.3,3.2,1c0.7,0.6,1.1,1.6,1.1,2.8v4.9h1v2h-1.2V187z
		 M177,185.4c0.6,0,1.1-0.1,1.5-0.4c0.4-0.3,0.6-0.6,0.6-1.1v-1.4h-1.6c-1.3,0-2,0.4-2,1.3v0.3c0,0.4,0.1,0.7,0.4,1
		C176.1,185.3,176.5,185.4,177,185.4z M184.7,187v-10.4h2.6v2.2h0.1c0.1-0.3,0.2-0.5,0.3-0.8s0.3-0.5,0.6-0.7
		c0.2-0.2,0.5-0.4,0.8-0.5s0.7-0.2,1.1-0.2h0.6v2.4H190c-0.9,0-1.5,0.1-2,0.4c-0.4,0.3-0.7,0.7-0.7,1.2v6.4L184.7,187L184.7,187z
		 M196,187.2c-1,0-1.8-0.2-2.5-0.5s-1.3-0.8-1.8-1.4l1.6-1.5c0.4,0.4,0.8,0.8,1.3,1c0.5,0.3,1,0.4,1.6,0.4s1.1-0.1,1.3-0.3
		c0.3-0.2,0.4-0.5,0.4-0.9c0-0.3-0.1-0.5-0.3-0.7s-0.5-0.3-1-0.4l-1-0.1c-1.1-0.1-2-0.5-2.6-1s-0.9-1.2-0.9-2.2c0-0.5,0.1-1,0.3-1.4
		s0.5-0.8,0.8-1c0.3-0.3,0.8-0.5,1.2-0.7c0.5-0.2,1-0.2,1.6-0.2c0.5,0,1,0,1.3,0.1c0.4,0.1,0.8,0.2,1.1,0.3s0.6,0.3,0.9,0.5
		c0.3,0.2,0.5,0.4,0.8,0.7l-1.5,1.5c-0.3-0.3-0.7-0.6-1.1-0.8c-0.4-0.2-0.9-0.3-1.4-0.3c-0.6,0-1,0.1-1.2,0.3s-0.4,0.5-0.4,0.8
		s0.1,0.6,0.3,0.8s0.6,0.3,1.1,0.4l1.1,0.1c2.3,0.3,3.4,1.3,3.4,3.1c0,0.5-0.1,1-0.3,1.4s-0.5,0.8-0.9,1.1s-0.8,0.5-1.4,0.7
		C197.2,187.2,196.6,187.2,196,187.2z M210.2,187c-0.6,0-1-0.2-1.3-0.5s-0.5-0.8-0.6-1.3h-0.1c-0.2,0.7-0.5,1.2-1.1,1.5
		c-0.5,0.3-1.2,0.5-2,0.5c-1.1,0-1.9-0.3-2.5-0.8c-0.6-0.6-0.9-1.3-0.9-2.2c0-1.1,0.4-1.9,1.2-2.4s1.9-0.8,3.3-0.8h1.8v-0.8
		c0-0.6-0.2-1-0.5-1.4c-0.3-0.3-0.8-0.5-1.5-0.5c-0.6,0-1.1,0.1-1.5,0.4c-0.4,0.3-0.7,0.6-0.9,0.9l-1.5-1.4c0.4-0.6,0.9-1.1,1.5-1.4
		c0.6-0.4,1.5-0.6,2.5-0.6c1.4,0,2.5,0.3,3.2,1c0.7,0.6,1.1,1.6,1.1,2.8v4.9h1v2h-1.2V187z M206,185.4c0.6,0,1.1-0.1,1.5-0.4
		c0.4-0.3,0.6-0.6,0.6-1.1v-1.4h-1.6c-1.3,0-2,0.4-2,1.3v0.3c0,0.4,0.1,0.7,0.4,1C205.1,185.3,205.5,185.4,206,185.4z M212.6,176.6
		h2.5l1.1,4.3l0.8,3.6h0.1l1-3.6l1.2-4.3h2.3l1.3,4.3l1,3.6h0.1l0.8-3.6l1-4.3h2.4l-2.9,10.4h-2.8l-1.3-4.6l-0.8-2.8h-0.1l-0.8,2.8
		l-1.3,4.6h-2.7L212.6,176.6z"/>
</g>
</svg>
