<?xml version="1.0" encoding="utf-8"?>
<!-- Generator: Adobe Illustrator 21.1.0, SVG Export Plug-In . SVG Version: 6.00 Build 0)  -->
<svg version="1.1" id="Слой_1" xmlns="http://www.w3.org/2000/svg" xmlns:xlink="http://www.w3.org/1999/xlink" x="0px" y="0px"
	 width="670px" height="412px" viewBox="0 0 670 412" style="enable-background:new 0 0 670 412;" xml:space="preserve">
<style type="text/css">
	.st0{clip-path:url(#SVGID_2_);}
	.st1{fill:#8970EF;}
	.st2{fill:#F3EBA0;}
	.st3{fill:#FFFFFF;}
</style>
<g>
	<defs>
		<rect id="SVGID_1_" width="579" height="372"/>
	</defs>
	<clipPath id="SVGID_2_">
		<use xlink:href="#SVGID_1_"  style="overflow:visible;"/>
	</clipPath>
	<g class="st0">
		<circle class="st1" cx="232" cy="163" r="2"/>
		<circle class="st1" cx="209" cy="163" r="2"/>
		<circle class="st1" cx="186" cy="163" r="2"/>
		<circle class="st1" cx="163" cy="163" r="2"/>
		<circle class="st1" cx="140" cy="163" r="2"/>
		<circle class="st1" cx="117" cy="163" r="2"/>
		<circle class="st1" cx="94" cy="163" r="2"/>
		<circle class="st1" cx="71" cy="163" r="2"/>
		<circle class="st1" cx="71" cy="186" r="2"/>
		<circle class="st1" cx="48" cy="163" r="2"/>
		<circle class="st1" cx="163" cy="48" r="2"/>
		<circle class="st1" cx="140" cy="48" r="2"/>
		<circle class="st1" cx="94" cy="48" r="2"/>
		<circle class="st1" cx="94" cy="25" r="2"/>
		<circle class="st1" cx="94" cy="2" r="2"/>
		<circle class="st1" cx="71" cy="48" r="2"/>
		<circle class="st1" cx="71" cy="25" r="2"/>
		<circle class="st1" cx="186" cy="209" r="2"/>
		<circle class="st1" cx="163" cy="209" r="2"/>
		<circle class="st1" cx="140" cy="209" r="2"/>
		<circle class="st1" cx="163" cy="94" r="2"/>
		<circle class="st1" cx="140" cy="94" r="2"/>
		<circle class="st1" cx="94" cy="94" r="2"/>
		<circle class="st1" cx="71" cy="94" r="2"/>
		<circle class="st1" cx="48" cy="94" r="2"/>
		<circle class="st1" cx="2" cy="71" r="2"/>
		<circle class="st1" cx="25" cy="94" r="2"/>
		<circle class="st1" cx="71" cy="117" r="2"/>
		<circle class="st1" cx="48" cy="117" r="2"/>
		<circle class="st1" cx="25" cy="117" r="2"/>
		<circle class="st1" cx="117" cy="94" r="2"/>
		<circle class="st1" cx="209" cy="94" r="2"/>
		<circle class="st1" cx="186" cy="94" r="2"/>
		<circle class="st2" cx="232" cy="186" r="6"/>
		<circle class="st1" cx="209" cy="186" r="2"/>
		<circle class="st1" cx="186" cy="186" r="2"/>
		<circle class="st1" cx="163" cy="186" r="2"/>
		<circle class="st1" cx="140" cy="186" r="2"/>
		<circle class="st1" cx="117" cy="186" r="2"/>
		<circle class="st1" cx="94" cy="186" r="2"/>
		<circle class="st1" cx="163" cy="71" r="2"/>
		<circle class="st1" cx="140" cy="71" r="2"/>
		<circle class="st1" cx="94" cy="71" r="2"/>
		<circle class="st1" cx="71" cy="71" r="2"/>
		<circle class="st1" cx="48" cy="71" r="2"/>
		<circle class="st1" cx="48" cy="48" r="2"/>
		<circle class="st1" cx="25" cy="71" r="2"/>
		<circle class="st1" cx="25" cy="48" r="2"/>
		<circle class="st1" cx="117" cy="71" r="2"/>
		<circle class="st1" cx="117" cy="48" r="2"/>
		<circle class="st1" cx="209" cy="117" r="2"/>
		<circle class="st1" cx="186" cy="117" r="2"/>
		<circle class="st2" cx="163" cy="117" r="6"/>
		<circle class="st3" cx="232" cy="209" r="2"/>
		<circle class="st3" cx="209" cy="209" r="2"/>
		<circle class="st3" cx="232" cy="232" r="2"/>
		<circle class="st3" cx="209" cy="232" r="2"/>
		<circle class="st3" cx="232" cy="255" r="2"/>
		<circle class="st3" cx="347" cy="163" r="2"/>
		<circle class="st3" cx="347" cy="186" r="2"/>
		<circle class="st3" cx="347" cy="209" r="2"/>
		<circle class="st3" cx="347" cy="232" r="2"/>
		<circle class="st3" cx="347" cy="255" r="2"/>
		<circle class="st3" cx="462" cy="163" r="2"/>
		<circle class="st3" cx="462" cy="186" r="2"/>
		<circle class="st3" cx="462" cy="209" r="2"/>
		<circle class="st3" cx="462" cy="232" r="2"/>
		<circle class="st3" cx="462" cy="255" r="2"/>
		<circle class="st3" cx="462" cy="278" r="2"/>
		<circle class="st3" cx="462" cy="324" r="2"/>
		<circle class="st3" cx="347" cy="324" r="2"/>
		<circle class="st3" cx="347" cy="343" r="2"/>
		<circle class="st3" cx="462" cy="347" r="2"/>
		<circle class="st3" cx="439" cy="347" r="2"/>
		<circle class="st3" cx="462" cy="301" r="2"/>
		<circle class="st3" cx="255" cy="163" r="2"/>
		<circle class="st3" cx="255" cy="209" r="2"/>
		<circle class="st3" cx="255" cy="232" r="2"/>
		<circle class="st3" cx="255" cy="255" r="2"/>
		<circle class="st3" cx="370" cy="163" r="2"/>
		<circle class="st3" cx="370" cy="186" r="2"/>
		<circle class="st3" cx="370" cy="209" r="2"/>
		<circle class="st3" cx="370" cy="232" r="2"/>
		<circle class="st3" cx="370" cy="255" r="2"/>
		<circle class="st3" cx="370" cy="278" r="2"/>
		<circle class="st3" cx="485" cy="163" r="2"/>
		<circle class="st3" cx="485" cy="186" r="2"/>
		<circle class="st3" cx="485" cy="209" r="2"/>
		<circle class="st3" cx="485" cy="232" r="2"/>
		<circle class="st3" cx="485" cy="255" r="2"/>
		<circle class="st3" cx="485" cy="278" r="2"/>
		<circle class="st3" cx="485" cy="301" r="2"/>
		<circle class="st3" cx="485" cy="324" r="2"/>
		<circle class="st3" cx="370" cy="324" r="2"/>
		<circle class="st3" cx="485" cy="347" r="2"/>
		<circle class="st3" cx="462" cy="370" r="2"/>
		<circle class="st3" cx="278" cy="163" r="2"/>
		<circle class="st3" cx="278" cy="209" r="2"/>
		<circle class="st3" cx="278" cy="232" r="2"/>
		<circle class="st3" cx="278" cy="255" r="2"/>
		<circle class="st3" cx="393" cy="163" r="2"/>
		<circle class="st3" cx="393" cy="186" r="2"/>
		<circle class="st3" cx="393" cy="209" r="2"/>
		<circle class="st3" cx="393" cy="232" r="2"/>
		<circle class="st3" cx="393" cy="255" r="2"/>
		<circle class="st3" cx="393" cy="278" r="2"/>
		<circle class="st3" cx="393" cy="301" r="2"/>
		<circle class="st3" cx="370" cy="301" r="2"/>
		<circle class="st3" cx="508" cy="163" r="2"/>
		<circle class="st3" cx="508" cy="186" r="2"/>
		<circle class="st3" cx="508" cy="209" r="2"/>
		<circle class="st3" cx="508" cy="232" r="2"/>
		<circle class="st3" cx="508" cy="255" r="2"/>
		<circle class="st3" cx="508" cy="278" r="2"/>
		<circle class="st3" cx="531" cy="278" r="2"/>
		<circle class="st3" cx="508" cy="347" r="2"/>
		<circle class="st3" cx="301" cy="163" r="2"/>
		<circle class="st3" cx="301" cy="186" r="2"/>
		<circle class="st3" cx="301" cy="209" r="2"/>
		<circle class="st3" cx="301" cy="232" r="2"/>
		<circle class="st3" cx="416" cy="163" r="2"/>
		<circle class="st3" cx="416" cy="186" r="2"/>
		<circle class="st3" cx="416" cy="209" r="2"/>
		<circle class="st3" cx="416" cy="232" r="2"/>
		<circle class="st3" cx="416" cy="255" r="2"/>
		<circle class="st3" cx="416" cy="278" r="2"/>
		<circle class="st3" cx="531" cy="163" r="2"/>
		<circle class="st3" cx="531" cy="186" r="2"/>
		<circle class="st3" cx="531" cy="209" r="2"/>
		<circle class="st3" cx="531" cy="232" r="2"/>
		<circle class="st3" cx="531" cy="255" r="2"/>
		<circle class="st3" cx="324" cy="163" r="2"/>
		<circle class="st3" cx="324" cy="186" r="2"/>
		<circle class="st3" cx="324" cy="209" r="2"/>
		<circle class="st3" cx="324" cy="232" r="2"/>
		<circle class="st3" cx="439" cy="163" r="2"/>
		<circle class="st3" cx="439" cy="186" r="2"/>
		<circle class="st3" cx="439" cy="209" r="2"/>
		<circle class="st3" cx="439" cy="232" r="2"/>
		<circle class="st3" cx="439" cy="255" r="2"/>
		<circle class="st3" cx="439" cy="278" r="2"/>
		<circle class="st3" cx="439" cy="301" r="2"/>
		<circle class="st3" cx="554" cy="163" r="2"/>
		<circle class="st3" cx="554" cy="186" r="2"/>
		<circle class="st3" cx="554" cy="209" r="2"/>
		<circle class="st3" cx="554" cy="232" r="2"/>
		<circle class="st3" cx="554" cy="255" r="2"/>
		<circle class="st3" cx="577" cy="186" r="2"/>
		<circle class="st3" cx="577" cy="209" r="2"/>
		<circle class="st3" cx="577" cy="232" r="2"/>
		<circle class="st3" cx="232" cy="140" r="2"/>
		<circle class="st1" cx="209" cy="140" r="2"/>
		<circle class="st1" cx="186" cy="140" r="2"/>
		<circle class="st1" cx="163" cy="140" r="2"/>
		<circle class="st1" cx="140" cy="140" r="2"/>
		<circle class="st1" cx="117" cy="140" r="2"/>
		<circle class="st1" cx="94" cy="140" r="2"/>
		<circle class="st1" cx="71" cy="140" r="2"/>
		<circle class="st1" cx="48" cy="140" r="2"/>
		<circle class="st1" cx="25" cy="140" r="2"/>
		<circle class="st1" cx="163" cy="25" r="2"/>
		<circle class="st1" cx="140" cy="25" r="2"/>
		<circle class="st1" cx="117" cy="25" r="2"/>
		<circle class="st1" cx="209" cy="71" r="2"/>
		<circle class="st1" cx="232" cy="71" r="2"/>
		<circle class="st1" cx="232" cy="94" r="2"/>
		<circle class="st1" cx="186" cy="71" r="2"/>
		<circle class="st1" cx="186" cy="48" r="2"/>
		<circle class="st1" cx="209" cy="48" r="2"/>
		<circle class="st1" cx="186" cy="25" r="2"/>
		<circle class="st1" cx="209" cy="25" r="2"/>
		<circle class="st3" cx="393" cy="140" r="2"/>
		<circle class="st3" cx="255" cy="140" r="2"/>
		<circle class="st3" cx="416" cy="140" r="2"/>
		<circle class="st3" cx="416" cy="117" r="2"/>
		<circle class="st3" cx="278" cy="140" r="2"/>
		<circle class="st3" cx="439" cy="140" r="2"/>
		<circle class="st3" cx="439" cy="117" r="2"/>
		<circle class="st3" cx="301" cy="140" r="2"/>
		<circle class="st3" cx="462" cy="140" r="2"/>
		<circle class="st3" cx="324" cy="140" r="2"/>
		<path class="st2" d="M249.3,191v-11.2h2.1v9.3h4.4v1.9H249.3z M258.5,191l-2.8-8.4h2l1.2,3.6l0.8,3h0.1l0.8-3l1.1-3.6h2L261,191
			H258.5z M266.1,181.4c-0.4,0-0.7-0.1-0.9-0.3c-0.2-0.2-0.3-0.4-0.3-0.7v-0.3c0-0.3,0.1-0.5,0.3-0.7c0.2-0.2,0.5-0.3,0.9-0.3
			c0.4,0,0.7,0.1,0.9,0.3c0.2,0.2,0.3,0.4,0.3,0.7v0.3c0,0.3-0.1,0.5-0.3,0.7C266.9,181.3,266.6,181.4,266.1,181.4z M265.1,182.6h2
			v8.4h-2V182.6z M271.3,191l-2.8-8.4h2l1.2,3.6l0.8,3h0.1l0.8-3l1.1-3.6h2l-2.8,8.4H271.3z"/>
		<path class="st2" d="M90,122l-2.6-11.2h2.1l1.1,5.4l0.7,3.4h0l0.8-3.4l1.3-5.4h2.3l1.3,5.4l0.8,3.4h0l0.7-3.4l1.1-5.4h2L99.1,122
			h-2.4l-1.4-5.9l-0.7-2.9h0l-0.7,2.9l-1.4,5.9H90z M109.2,122c-0.4,0-0.8-0.1-1.1-0.4c-0.3-0.3-0.4-0.6-0.5-1.1h-0.1
			c-0.1,0.5-0.4,1-0.8,1.2c-0.4,0.3-1,0.4-1.6,0.4c-0.9,0-1.5-0.2-2-0.7c-0.5-0.4-0.7-1-0.7-1.8c0-0.9,0.3-1.5,0.9-1.9
			c0.6-0.4,1.5-0.6,2.6-0.6h1.4v-0.6c0-0.5-0.1-0.8-0.4-1.1c-0.2-0.3-0.6-0.4-1.2-0.4c-0.5,0-0.9,0.1-1.2,0.3
			c-0.3,0.2-0.5,0.4-0.7,0.7l-1.2-1.1c0.3-0.5,0.7-0.9,1.2-1.2c0.5-0.3,1.2-0.4,2-0.4c1.1,0,2,0.3,2.6,0.8c0.6,0.5,0.9,1.2,0.9,2.2
			v3.9h0.8v1.6H109.2z M105.8,120.7c0.5,0,0.8-0.1,1.2-0.3c0.3-0.2,0.5-0.5,0.5-0.9v-1.1h-1.3c-1.1,0-1.6,0.3-1.6,1v0.3
			c0,0.3,0.1,0.6,0.3,0.8C105,120.6,105.4,120.7,105.8,120.7z M111.9,122v-8.4h2v1.7h0.1c0.1-0.2,0.1-0.4,0.2-0.6
			c0.1-0.2,0.3-0.4,0.4-0.6c0.2-0.2,0.4-0.3,0.6-0.4c0.3-0.1,0.5-0.1,0.9-0.1h0.4v1.9h-0.6c-0.7,0-1.2,0.1-1.6,0.3s-0.5,0.5-0.5,1
			v5.1H111.9z M121,122.2c-0.8,0-1.5-0.1-2-0.4c-0.5-0.3-1-0.7-1.4-1.1l1.2-1.2c0.3,0.4,0.6,0.6,1,0.8c0.4,0.2,0.8,0.3,1.3,0.3
			c0.5,0,0.8-0.1,1.1-0.3c0.2-0.2,0.3-0.4,0.3-0.7c0-0.2-0.1-0.4-0.2-0.6c-0.1-0.1-0.4-0.3-0.8-0.3l-0.8-0.1
			c-0.9-0.1-1.6-0.4-2.1-0.8c-0.5-0.4-0.7-1-0.7-1.8c0-0.4,0.1-0.8,0.2-1.1c0.1-0.3,0.4-0.6,0.6-0.8c0.3-0.2,0.6-0.4,1-0.5
			c0.4-0.1,0.8-0.2,1.3-0.2c0.4,0,0.8,0,1.1,0.1c0.3,0.1,0.6,0.1,0.9,0.3c0.3,0.1,0.5,0.2,0.7,0.4c0.2,0.2,0.4,0.3,0.6,0.5L123,116
			c-0.2-0.3-0.5-0.5-0.9-0.6c-0.3-0.2-0.7-0.3-1.1-0.3c-0.4,0-0.8,0.1-1,0.2c-0.2,0.2-0.3,0.4-0.3,0.6c0,0.3,0.1,0.5,0.2,0.6
			c0.2,0.1,0.5,0.2,0.8,0.3l0.8,0.1c1.8,0.3,2.7,1.1,2.7,2.5c0,0.4-0.1,0.8-0.3,1.1c-0.2,0.3-0.4,0.6-0.7,0.9
			c-0.3,0.2-0.7,0.4-1.1,0.6C122,122.1,121.5,122.2,121,122.2z M132.4,122c-0.4,0-0.8-0.1-1.1-0.4c-0.3-0.3-0.4-0.6-0.5-1.1h-0.1
			c-0.1,0.5-0.4,1-0.8,1.2c-0.4,0.3-1,0.4-1.6,0.4c-0.9,0-1.5-0.2-2-0.7c-0.5-0.4-0.7-1-0.7-1.8c0-0.9,0.3-1.5,0.9-1.9
			c0.6-0.4,1.5-0.6,2.6-0.6h1.4v-0.6c0-0.5-0.1-0.8-0.4-1.1c-0.2-0.3-0.6-0.4-1.2-0.4c-0.5,0-0.9,0.1-1.2,0.3
			c-0.3,0.2-0.5,0.4-0.7,0.7l-1.2-1.1c0.3-0.5,0.7-0.9,1.2-1.2c0.5-0.3,1.2-0.4,2-0.4c1.1,0,2,0.3,2.6,0.8c0.6,0.5,0.9,1.2,0.9,2.2
			v3.9h0.8v1.6H132.4z M129,120.7c0.5,0,0.8-0.1,1.2-0.3c0.3-0.2,0.5-0.5,0.5-0.9v-1.1h-1.3c-1.1,0-1.6,0.3-1.6,1v0.3
			c0,0.3,0.1,0.6,0.3,0.8C128.2,120.6,128.6,120.7,129,120.7z M134.3,113.6h2l0.8,3.4l0.7,2.9h0.1l0.8-2.9l1-3.4h1.9l1,3.4l0.8,2.9
			h0.1l0.7-2.9l0.8-3.4h1.9l-2.3,8.4h-2.2l-1.1-3.7l-0.6-2.3h0l-0.6,2.3l-1.1,3.7h-2.2L134.3,113.6z"/>
	</g>
</g>
</svg>
