<svg width="42" height="42" viewBox="0 0 42 42" fill="none" xmlns="http://www.w3.org/2000/svg">
<path fill-rule="evenodd" clip-rule="evenodd" d="M7 0C3.13401 0 0 3.13401 0 7V35C0 38.866 3.13401 42 7 42H35C38.866 42 42 38.866 42 35V7C42 3.13401 38.866 0 35 0H7ZM11.6667 6.25C9.67539 6.25 8.25 8.09131 8.25 10.1111V31.8889C8.25 33.9087 9.67539 35.75 11.6667 35.75H30.3333C32.3246 35.75 33.75 33.9087 33.75 31.8889V10.1111C33.75 8.09131 32.3246 6.25 30.3333 6.25H11.6667ZM9.75 10.1111C9.75 8.69448 10.7124 7.75 11.6667 7.75H30.3333C31.2876 7.75 32.25 8.69448 32.25 10.1111V31.8889C32.25 33.3055 31.2876 34.25 30.3333 34.25H11.6667C10.7124 34.25 9.75 33.3055 9.75 31.8889V10.1111ZM25.1341 11.9346C23.815 10.8381 22.1714 10.97 20.9964 11.8692C19.8197 10.97 18.1597 10.8235 16.8517 11.9411C15.3813 13.1974 15.1645 15.3206 16.3311 16.8217C16.8348 17.4699 17.9018 18.497 18.7947 19.324C19.2508 19.7464 19.6774 20.1312 19.9899 20.4102C20.1462 20.5498 20.2742 20.6631 20.3633 20.7416L20.4664 20.8324L20.4936 20.8563L20.5007 20.8625L20.5026 20.8641L20.5031 20.8646L20.5032 20.8647L20.9968 20.3L20.5033 20.8648C20.786 21.1117 21.2076 21.1117 21.4903 20.8648L20.9968 20.3L21.4904 20.8647L21.4905 20.8646L21.491 20.8641L21.4929 20.8625L21.5 20.8563L21.5272 20.8324L21.6303 20.7416C21.7194 20.6631 21.8474 20.5498 22.0037 20.4102C22.3162 20.1312 22.7429 19.7464 23.1989 19.324C24.0918 18.497 25.1588 17.4699 25.6625 16.8217C26.8225 15.3291 26.6424 13.1881 25.1341 11.9346ZM21.0047 19.2913L20.9968 19.2983L20.9889 19.2913C20.6811 19.0164 20.2615 18.638 19.814 18.2235C18.8996 17.3766 17.9298 16.4344 17.5155 15.9013C16.846 15.0398 16.9583 13.8229 17.8261 13.0815C18.6265 12.3976 19.7145 12.5515 20.4269 13.3842C20.5694 13.5508 20.7776 13.6467 20.9968 13.6467C21.216 13.6467 21.4243 13.5508 21.5667 13.3842C22.2734 12.5581 23.3471 12.3997 24.1754 13.0881C25.0454 13.8112 25.1542 15.0313 24.4781 15.9013C24.0638 16.4344 23.094 17.3766 22.1797 18.2235C21.7321 18.638 21.3125 19.0164 21.0047 19.2913ZM14.3333 24.45C13.9191 24.45 13.5833 24.7858 13.5833 25.2C13.5833 25.6142 13.9191 25.95 14.3333 25.95H27.6667C28.0809 25.95 28.4167 25.6142 28.4167 25.2C28.4167 24.7858 28.0809 24.45 27.6667 24.45H14.3333ZM17 29.35C16.5858 29.35 16.25 29.6858 16.25 30.1C16.25 30.5142 16.5858 30.85 17 30.85H25C25.4142 30.85 25.75 30.5142 25.75 30.1C25.75 29.6858 25.4142 29.35 25 29.35H17Z" fill="#8970EF"/>
</svg>
