<svg width="42" height="42" viewBox="0 0 42 42" fill="none" xmlns="http://www.w3.org/2000/svg">
<path d="M17 30.1H25M14.3333 25.2H27.6667M11.6667 7H30.3333C31.8061 7 33 8.39289 33 10.1111V31.8889C33 33.6071 31.8061 35 30.3333 35H11.6667C10.1939 35 9 33.6071 9 31.8889V10.1111C9 8.39289 10.1939 7 11.6667 7ZM20.9968 12.8967C20.0638 11.8059 18.5079 11.5125 17.3389 12.5113C16.1698 13.5102 16.0053 15.1802 16.9233 16.3615C17.8413 17.5429 20.9968 20.3 20.9968 20.3C20.9968 20.3 24.1523 17.5429 25.0703 16.3615C25.9884 15.1802 25.8439 13.4997 24.6548 12.5113C23.4656 11.523 21.9298 11.8059 20.9968 12.8967Z" stroke="white" stroke-width="1.5" stroke-linecap="round" stroke-linejoin="round"/>
</svg>
