<svg width="42" height="42" viewBox="0 0 42 42" fill="none" xmlns="http://www.w3.org/2000/svg">
<path d="M25.9 20.5472H24.5L22.4 24.6227L19.6 16.4717L17.5 20.5472H16.1M20.9904 11.9015C18.1913 8.72613 13.5236 7.87197 10.0166 10.7796C6.5095 13.6873 6.01575 18.5488 8.76988 21.9877C10.8501 24.5852 16.7598 29.7998 19.5272 32.1961C20.0359 32.6366 20.2903 32.8569 20.5882 32.9435C20.8467 33.0188 21.1341 33.0188 21.3927 32.9435C21.6905 32.8569 21.9449 32.6366 22.4536 32.1961C25.221 29.7998 31.1307 24.5852 33.2109 21.9877C35.9651 18.5488 35.5316 13.6567 31.9642 10.7796C28.3969 7.90255 23.7895 8.72613 20.9904 11.9015Z" stroke="white" stroke-width="1.5" stroke-linecap="round" stroke-linejoin="round"/>
</svg>
