<svg width="42" height="42" viewBox="0 0 42 42" fill="none" xmlns="http://www.w3.org/2000/svg">
<path fill-rule="evenodd" clip-rule="evenodd" d="M7 0C3.13401 0 0 3.13401 0 7V35C0 38.866 3.13401 42 7 42H35C38.866 42 42 38.866 42 35V7C42 3.13401 38.866 0 35 0H7ZM18.8601 6.75L18.7094 6.74994C17.6886 6.74935 16.9634 6.74893 16.3337 7.00612C15.7802 7.23218 15.295 7.5982 14.9255 8.0683C14.5053 8.60312 14.3064 9.30052 14.0266 10.2822L13.9852 10.4272L13.6102 11.7398C13.5255 11.7724 13.4423 11.8092 13.3603 11.851C12.7111 12.1818 12.1834 12.7096 11.8526 13.3587C11.6426 13.7709 11.5564 14.214 11.5158 14.7106C11.4765 15.1915 11.4766 15.7841 11.4766 16.5133V16.545V25.455V25.4867C11.4766 26.2159 11.4765 26.8085 11.5158 27.2894C11.5564 27.786 11.6426 28.2291 11.8526 28.6413C12.1834 29.2904 12.7111 29.8182 13.3603 30.149C13.4423 30.1908 13.5255 30.2276 13.6102 30.2602L13.9852 31.5728L14.0266 31.7178C14.3064 32.6995 14.5053 33.3969 14.9255 33.9317C15.295 34.4018 15.7802 34.7678 16.3337 34.9939C16.9634 35.2511 17.6886 35.2506 18.7094 35.2501L18.8601 35.25H23.143L23.2937 35.2501C24.3145 35.2506 25.0397 35.2511 25.6694 34.9939C26.2229 34.7678 26.7082 34.4018 27.0776 33.9317C27.4979 33.3969 27.6967 32.6995 27.9765 31.7178L27.9766 31.7178L28.0179 31.5728L28.3929 30.2602C28.4776 30.2276 28.5608 30.1908 28.6428 30.149C29.292 29.8182 29.8198 29.2904 30.1505 28.6413C30.3605 28.2291 30.4467 27.786 30.4873 27.2894C30.5266 26.8085 30.5266 26.2159 30.5266 25.4868V25.4867V25.455V16.545V16.5133V16.5132C30.5266 15.7841 30.5266 15.1915 30.4873 14.7106C30.4467 14.214 30.3605 13.7709 30.1505 13.3587C29.8198 12.7096 29.292 12.1818 28.6428 11.851C28.5608 11.8092 28.4776 11.7724 28.3929 11.7398L28.0179 10.4272L27.9766 10.2822L27.9765 10.2822C27.6967 9.30053 27.4979 8.60312 27.0776 8.0683C26.7082 7.5982 26.2229 7.23218 25.6694 7.00612C25.0397 6.74893 24.3145 6.74935 23.2937 6.74994L23.143 6.75H18.8601ZM16.5148 11.475C16.0337 11.475 15.612 11.475 15.2426 11.4863L15.4275 10.8392C15.7668 9.65156 15.8905 9.26798 16.105 8.99513C16.3138 8.72942 16.588 8.52254 16.9009 8.39476C17.2221 8.26355 17.6249 8.25 18.8601 8.25H23.143C24.3782 8.25 24.781 8.26355 25.1023 8.39476C25.4151 8.52254 25.6894 8.72942 25.8982 8.99513C26.1126 9.26798 26.2363 9.65157 26.5756 10.8392L26.7605 11.4863C26.3911 11.475 25.9694 11.475 25.4883 11.475H25.4566H16.5466H16.5148ZM15.4275 31.1608L15.2426 30.5137C15.612 30.525 16.0337 30.525 16.5148 30.525H16.5466H25.4566H25.4883H25.4884C25.9695 30.525 26.3911 30.525 26.7605 30.5137L26.5756 31.1608C26.2363 32.3484 26.1126 32.732 25.8982 33.0049C25.6894 33.2706 25.4151 33.4775 25.1023 33.6052C24.781 33.7365 24.3782 33.75 23.143 33.75H18.8601C17.6249 33.75 17.2221 33.7365 16.9009 33.6052C16.588 33.4775 16.3138 33.2706 16.105 33.0049C15.8905 32.732 15.7668 32.3484 15.4275 31.1608ZM14.0413 13.1875C14.2067 13.1032 14.4304 13.0423 14.8343 13.0093C15.2469 12.9756 15.7781 12.975 16.5466 12.975H25.4566C26.225 12.975 26.7562 12.9756 27.1688 13.0093C27.5727 13.0423 27.7964 13.1032 27.9618 13.1875C28.3288 13.3745 28.6271 13.6728 28.814 14.0397C28.8983 14.2051 28.9593 14.4289 28.9923 14.8327C29.026 15.2453 29.0266 15.7766 29.0266 16.545V25.455C29.0266 26.2234 29.026 26.7547 28.9923 27.1673C28.9593 27.5711 28.8983 27.7949 28.814 27.9603C28.6271 28.3272 28.3288 28.6255 27.9618 28.8125C27.7964 28.8968 27.5727 28.9577 27.1688 28.9907C26.7562 29.0244 26.225 29.025 25.4566 29.025H16.5466C15.7781 29.025 15.2469 29.0244 14.8343 28.9907C14.4304 28.9577 14.2067 28.8968 14.0413 28.8125C13.6744 28.6255 13.3761 28.3272 13.1891 27.9603C13.1048 27.7949 13.0439 27.5711 13.0109 27.1673C12.9771 26.7547 12.9766 26.2234 12.9766 25.455V16.545C12.9766 15.7766 12.9771 15.2453 13.0109 14.8327C13.0439 14.4289 13.1048 14.2051 13.1891 14.0397C13.3761 13.6728 13.6744 13.3745 14.0413 13.1875Z" fill="#8970EF"/>
</svg>
