<svg width="42" height="42" viewBox="0 0 42 42" fill="none" xmlns="http://www.w3.org/2000/svg">
<path fill-rule="evenodd" clip-rule="evenodd" d="M7 0C3.13401 0 0 3.13401 0 7V35C0 38.866 3.13401 42 7 42H35C38.866 42 42 38.866 42 35V7C42 3.13401 38.866 0 35 0H7ZM25.8553 8C25.8553 7.58579 25.5195 7.25 25.1053 7.25C24.691 7.25 24.3553 7.58579 24.3553 8V10.0526C24.3553 10.4668 24.691 10.8026 25.1053 10.8026C25.5195 10.8026 25.8553 10.4668 25.8553 10.0526V8ZM14.5684 8.61842L14.5353 8.61842H14.5353C13.4138 8.61842 12.5262 8.61841 11.811 8.67684C11.0801 8.73656 10.4635 8.86104 9.90102 9.14761C8.98744 9.6131 8.24468 10.3559 7.77919 11.2694C7.49262 11.8319 7.36814 12.4485 7.30842 13.1794C7.24999 13.8946 7.24999 14.7822 7.25 15.9038V15.9368V23.5159C7.24986 23.5244 7.24986 23.5328 7.25 23.5411V27.4316V27.4647C7.24999 28.5862 7.24999 29.4738 7.30842 30.189C7.36814 30.9199 7.49262 31.5365 7.77919 32.099C8.24468 33.0126 8.98744 33.7553 9.90102 34.2208C10.4635 34.5074 11.0801 34.6319 11.811 34.6916C12.5262 34.75 13.4138 34.75 14.5353 34.75H14.5684H26.0632H26.0962C27.2178 34.75 28.1054 34.75 28.8206 34.6916C29.5515 34.6319 30.1681 34.5074 30.7306 34.2208C31.6441 33.7553 32.3869 33.0126 32.8524 32.099C33.139 31.5365 33.2634 30.9199 33.3232 30.189C33.3816 29.4738 33.3816 28.5863 33.3816 27.4648V27.4646V27.4316V23.0526C33.3816 22.6384 33.0458 22.3026 32.6316 22.3026C32.2174 22.3026 31.8816 22.6384 31.8816 23.0526V27.4316C31.8816 28.5935 31.881 29.4199 31.8281 30.0668C31.776 30.705 31.6768 31.1023 31.5159 31.418C31.1942 32.0493 30.6809 32.5626 30.0496 32.8843C29.7338 33.0452 29.3366 33.1444 28.6984 33.1966C28.0515 33.2494 27.2251 33.25 26.0632 33.25H14.5684C13.4065 33.25 12.5801 33.2494 11.9332 33.1966C11.295 33.1444 10.8977 33.0452 10.582 32.8843C9.95067 32.5626 9.43738 32.0493 9.1157 31.418C8.95483 31.1023 8.85558 30.705 8.80344 30.0668C8.75058 29.4199 8.75 28.5935 8.75 27.4316V24.3816C9.40297 24.4512 10.0659 24.4868 10.7368 24.4868C16.4951 24.4868 21.64 21.8611 25.0395 17.7442V21.6842C25.0395 22.0984 25.3753 22.4342 25.7895 22.4342C26.2037 22.4342 26.5395 22.0984 26.5395 21.6842V16.2105C26.5395 15.7963 26.2037 15.4605 25.7895 15.4605H25.2793H25.2601H20.3158C19.9016 15.4605 19.5658 15.7963 19.5658 16.2105C19.5658 16.6247 19.9016 16.9605 20.3158 16.9605H23.7394C20.613 20.6481 15.948 22.9868 10.7368 22.9868C10.0645 22.9868 9.40153 22.9479 8.75 22.8723V15.9368C8.75 14.7749 8.75058 13.9485 8.80344 13.3016C8.85558 12.6634 8.95483 12.2662 9.1157 11.9504C9.43738 11.3191 9.95067 10.8058 10.582 10.4841C10.8977 10.3232 11.295 10.224 11.9332 10.1719C12.5801 10.119 13.4065 10.1184 14.5684 10.1184H18.9474C19.3616 10.1184 19.6974 9.78263 19.6974 9.36842C19.6974 8.95421 19.3616 8.61842 18.9474 8.61842H14.5684ZM32.4777 9.5223C32.1848 9.22941 31.7099 9.22941 31.417 9.5223L29.9656 10.9737C29.6727 11.2666 29.6727 11.7415 29.9656 12.0344C30.2585 12.3273 30.7334 12.3273 31.0263 12.0344L32.4777 10.583C32.7706 10.2901 32.7706 9.81519 32.4777 9.5223ZM31.9614 16.1447C31.5472 16.1447 31.2114 16.4805 31.2114 16.8947C31.2114 17.309 31.5472 17.6447 31.9614 17.6447H34.014C34.4282 17.6447 34.764 17.309 34.764 16.8947C34.764 16.4805 34.4282 16.1447 34.014 16.1447H31.9614Z" fill="#8970EF"/>
</svg>
