<svg width="42" height="42" viewBox="0 0 42 42" fill="none" xmlns="http://www.w3.org/2000/svg">
<path d="M18.9474 9.36842H14.5684C12.2693 9.36842 11.1197 9.36842 10.2415 9.81587C9.46906 10.2095 8.84103 10.8375 8.44745 11.6099C8 12.4881 8 13.6377 8 15.9368V27.4316C8 29.7307 8 30.8803 8.44745 31.7585C8.84103 32.5309 9.46906 33.159 10.2415 33.5526C11.1197 34 12.2693 34 14.5684 34H26.0632C28.3623 34 29.5119 34 30.3901 33.5526C31.1625 33.159 31.7905 32.5309 32.1841 31.7585C32.6316 30.8803 32.6316 29.7307 32.6316 27.4316V23.0526M20.3158 16.2105H25.7895V21.6842M25.1053 10.0526V8M30.4959 11.5041L31.9474 10.0526M31.9614 16.8947H34.014M8 23.5276C8.89213 23.6654 9.80614 23.7368 10.7368 23.7368C16.7392 23.7368 22.0473 20.7641 25.269 16.2105" stroke="white" stroke-width="1.5" stroke-linecap="round" stroke-linejoin="round"/>
</svg>
