<svg width="42" height="42" viewBox="0 0 42 42" fill="none" xmlns="http://www.w3.org/2000/svg">
<path d="M21 8C24.2517 11.5599 26.0996 16.1796 26.2 21C26.0996 25.8204 24.2517 30.4401 21 34M21 8C17.7483 11.5599 15.9004 16.1796 15.8 21C15.9004 25.8204 17.7483 30.4401 21 34M21 8C13.8203 8 8 13.8203 8 21C8 28.1797 13.8203 34 21 34M21 8C28.1797 8 34 13.8203 34 21C34 28.1797 28.1797 34 21 34M8.65003 17.1H33.35M8.65 24.9H33.35" stroke="white" stroke-width="1.5" stroke-linecap="round" stroke-linejoin="round"/>
</svg>
