<svg width="42" height="42" viewBox="0 0 42 42" fill="none" xmlns="http://www.w3.org/2000/svg">
<path d="M27.7516 29.775L27.2968 31.3668C26.9759 32.4899 26.8154 33.0515 26.4879 33.4683C26.1988 33.8362 25.819 34.1226 25.3858 34.2996C24.8951 34.5 24.311 34.5 23.143 34.5H18.8601C17.6921 34.5 17.1081 34.5 16.6173 34.2996C16.1841 34.1226 15.8044 33.8362 15.5152 33.4683C15.1877 33.0515 15.0273 32.4899 14.7064 31.3668L14.2516 29.775M27.7516 12.225L27.2968 10.6332C26.9759 9.5101 26.8154 8.94853 26.4879 8.53171C26.1988 8.16381 25.819 7.87736 25.3858 7.70044C24.8951 7.5 24.311 7.5 23.143 7.5H18.8601C17.6921 7.5 17.1081 7.5 16.6173 7.70044C16.1841 7.87736 15.8044 8.16381 15.5152 8.53171C15.1877 8.94853 15.0273 9.51009 14.7064 10.6332L14.2516 12.225M16.5466 29.775H25.4566C26.9687 29.775 27.7248 29.775 28.3023 29.4807C28.8104 29.2219 29.2234 28.8088 29.4823 28.3008C29.7766 27.7232 29.7766 26.9671 29.7766 25.455V16.545C29.7766 15.0329 29.7766 14.2768 29.4823 13.6992C29.2234 13.1912 28.8104 12.7781 28.3023 12.5193C27.7248 12.225 26.9687 12.225 25.4566 12.225H16.5466C15.0344 12.225 14.2784 12.225 13.7008 12.5193C13.1928 12.7781 12.7797 13.1912 12.5208 13.6992C12.2266 14.2768 12.2266 15.0329 12.2266 16.545V25.455C12.2266 26.9671 12.2266 27.7232 12.5208 28.3008C12.7797 28.8088 13.1928 29.2219 13.7008 29.4807C14.2784 29.775 15.0344 29.775 16.5466 29.775Z" stroke="white" stroke-width="1.5" stroke-linecap="round" stroke-linejoin="round"/>
</svg>
