<svg width="42" height="42" viewBox="0 0 42 42" fill="none" xmlns="http://www.w3.org/2000/svg">
<path fill-rule="evenodd" clip-rule="evenodd" d="M7 0C3.13401 0 0 3.13401 0 7V35C0 38.866 3.13401 42 7 42H35C38.866 42 42 38.866 42 35V7C42 3.13401 38.866 0 35 0H7ZM9.25 8.5C9.25 8.08579 8.91421 7.75 8.5 7.75C8.08579 7.75 7.75 8.08579 7.75 8.5V29.0556V29.0874C7.74999 29.8382 7.74999 30.4472 7.79034 30.9411C7.83197 31.4506 7.92027 31.9033 8.13451 32.3238C8.47272 32.9876 9.01241 33.5273 9.6762 33.8655C10.0967 34.0797 10.5494 34.168 11.0589 34.2097C11.5528 34.25 12.1617 34.25 12.9125 34.25H12.9126H12.9444H33.5C33.9142 34.25 34.25 33.9142 34.25 33.5C34.25 33.0858 33.9142 32.75 33.5 32.75H12.9444C12.1542 32.75 11.6067 32.7494 11.1811 32.7146C10.7643 32.6806 10.5309 32.6175 10.3572 32.529C9.97563 32.3346 9.66542 32.0244 9.47101 31.6428C9.38249 31.4691 9.31941 31.2357 9.28535 30.8189C9.25058 30.3933 9.25 29.8458 9.25 29.0556V8.5ZM21.0556 11.9722C21.0556 11.558 20.7198 11.2222 20.3056 11.2222C19.8913 11.2222 19.5556 11.558 19.5556 11.9722V28.6389C19.5556 29.0531 19.8913 29.3889 20.3056 29.3889C20.7198 29.3889 21.0556 29.0531 21.0556 28.6389V11.9722ZM33.5556 11.9722C33.5556 11.558 33.2198 11.2222 32.8056 11.2222C32.3913 11.2222 32.0556 11.558 32.0556 11.9722V28.6389C32.0556 29.0531 32.3913 29.3889 32.8056 29.3889C33.2198 29.3889 33.5556 29.0531 33.5556 28.6389V11.9722ZM14.8056 18.9167C14.8056 18.5025 14.4698 18.1667 14.0556 18.1667C13.6413 18.1667 13.3056 18.5025 13.3056 18.9167V28.6389C13.3056 29.0531 13.6413 29.3889 14.0556 29.3889C14.4698 29.3889 14.8056 29.0531 14.8056 28.6389V18.9167ZM27.3056 18.9167C27.3056 18.5025 26.9698 18.1667 26.5556 18.1667C26.1413 18.1667 25.8056 18.5025 25.8056 18.9167V28.6389C25.8056 29.0531 26.1413 29.3889 26.5556 29.3889C26.9698 29.3889 27.3056 29.0531 27.3056 28.6389V18.9167Z" fill="#8970EF"/>
</svg>
