<svg width="42" height="42" viewBox="0 0 42 42" fill="none" xmlns="http://www.w3.org/2000/svg">
<path fill-rule="evenodd" clip-rule="evenodd" d="M7 0C3.13401 0 0 3.13401 0 7V35C0 38.866 3.13401 42 7 42H35C38.866 42 42 38.866 42 35V7C42 3.13401 38.866 0 35 0H7ZM8.75 21C8.75 19.911 8.89211 18.8551 9.1588 17.85H15.3557C15.1752 18.8799 15.0722 19.9275 15.0502 20.9844C15.0499 20.9948 15.0499 21.0052 15.0502 21.0156C15.0722 22.0725 15.1752 23.1201 15.3557 24.15H9.1588C8.89211 23.1449 8.75 22.089 8.75 21ZM15.6766 16.35H9.66338C11.2878 12.3938 14.9229 9.47577 19.297 8.86742C17.5894 11.0979 16.3611 13.6458 15.6766 16.35ZM17.2278 16.35C17.9499 13.7182 19.2308 11.2561 21 9.13947C22.7692 11.2561 24.0501 13.7182 24.7722 16.35H17.2278ZM16.5502 21C16.5732 19.9365 16.6846 18.8832 16.8804 17.85H25.1196C25.3154 18.8832 25.4268 19.9365 25.4498 21C25.4268 22.0635 25.3154 23.1168 25.1196 24.15H16.8804C16.6846 23.1168 16.5732 22.0635 16.5502 21ZM26.9498 21.0156C26.9278 22.0725 26.8248 23.1201 26.6443 24.15H32.8412C33.1079 23.1449 33.25 22.089 33.25 21C33.25 19.911 33.1079 18.8551 32.8412 17.85H26.6443C26.8248 18.8799 26.9278 19.9275 26.9498 20.9844C26.9501 20.9948 26.9501 21.0052 26.9498 21.0156ZM21 32.8605C19.2308 30.7439 17.9499 28.2818 17.2278 25.65H24.7722C24.0501 28.2818 22.7692 30.7439 21 32.8605ZM15.6766 25.65C16.3611 28.3542 17.5894 30.9021 19.297 33.1326C14.9229 32.5242 11.2878 29.6062 9.66338 25.65H15.6766ZM26.3234 25.65C25.6389 28.3542 24.4106 30.9021 22.703 33.1326C27.0771 32.5242 30.7122 29.6062 32.3366 25.65H26.3234ZM26.3234 16.35H32.3366C30.7122 12.3938 27.0771 9.47577 22.703 8.86742C24.4106 11.0979 25.6389 13.6458 26.3234 16.35ZM21 7.25C13.4061 7.25 7.25 13.4061 7.25 21C7.25 28.5939 13.4061 34.75 21 34.75C28.5939 34.75 34.75 28.5939 34.75 21C34.75 13.4061 28.5939 7.25 21 7.25Z" fill="#8970EF"/>
</svg>
