<svg width="42" height="42" viewBox="0 0 42 42" fill="none" xmlns="http://www.w3.org/2000/svg">
<path fill-rule="evenodd" clip-rule="evenodd" d="M7 0C3.13401 0 0 3.13401 0 7V35C0 38.866 3.13401 42 7 42H35C38.866 42 42 38.866 42 35V7C42 3.13401 38.866 0 35 0H7ZM9.53788 10.2023C13.176 7.18598 17.9237 7.87473 20.9902 10.8183C24.0545 7.87359 28.7474 7.22173 32.4351 10.1958C36.3289 13.3363 36.8048 18.7 33.7963 22.4566C32.7163 23.8052 30.6786 25.7938 28.5993 27.7178C26.5073 29.6537 24.3311 31.5625 22.9446 32.7631L22.9247 32.7803L22.9246 32.7804C22.6873 32.9859 22.4772 33.1678 22.2885 33.3066C22.0854 33.4561 21.867 33.5866 21.6023 33.6637C21.2068 33.7788 20.774 33.7788 20.3786 33.6637C20.1139 33.5866 19.8955 33.4561 19.6923 33.3066C19.5036 33.1678 19.2935 32.9858 19.0562 32.7804L19.0363 32.7631C17.6497 31.5625 15.4735 29.6537 13.3815 27.7178C11.3022 25.7938 9.26456 23.8052 8.18447 22.4566C5.16907 18.6914 5.72251 13.3656 9.53788 10.2023ZM10.4953 11.357C13.6405 8.74937 17.8518 9.47518 20.4278 12.3974C20.5702 12.559 20.7751 12.6515 20.9904 12.6515C21.2057 12.6515 21.4106 12.559 21.553 12.3974C24.1235 9.48146 28.2801 8.7719 31.4934 11.3634C34.7343 13.9772 35.1253 18.3976 32.6255 21.5189C31.6254 22.7677 29.6681 24.6852 27.5806 26.6169C25.5058 28.5368 23.3435 30.4334 21.9627 31.6291C21.6994 31.857 21.5345 31.9992 21.3996 32.0984C21.2739 32.1908 21.2162 32.2138 21.1831 32.2234C21.0614 32.2589 20.9194 32.2589 20.7978 32.2234C20.7646 32.2138 20.7069 32.1908 20.5812 32.0984C20.4463 31.9992 20.2814 31.857 20.0182 31.6291C18.6373 30.4334 16.475 28.5368 14.4002 26.6169C12.3127 24.6852 10.3554 22.7677 9.35528 21.5189C6.86244 18.4062 7.29649 14.0091 10.4953 11.357ZM20.3093 16.228C20.2117 15.9439 19.9539 15.7454 19.6543 15.7237C19.3546 15.7019 19.0709 15.8611 18.9333 16.1282L17.0427 19.7972H16.1C15.6858 19.7972 15.35 20.133 15.35 20.5472C15.35 20.9614 15.6858 21.2972 16.1 21.2972H17.5C17.7808 21.2972 18.0381 21.1403 18.1667 20.8907L19.4617 18.3775L21.6907 24.8663C21.7883 25.1505 22.0461 25.3489 22.3457 25.3707C22.6454 25.3924 22.9291 25.2333 23.0667 24.9662L24.9573 21.2972H25.9C26.3142 21.2972 26.65 20.9614 26.65 20.5472C26.65 20.133 26.3142 19.7972 25.9 19.7972H24.5C24.2192 19.7972 23.9619 19.954 23.8333 20.2036L22.5383 22.7168L20.3093 16.228Z" fill="#8970EF"/>
</svg>
