<?xml version="1.0" encoding="utf-8"?>
<!-- Generator: Adobe Illustrator 21.1.0, SVG Export Plug-In . SVG Version: 6.00 Build 0)  -->
<svg version="1.1" id="Слой_1" xmlns="http://www.w3.org/2000/svg" xmlns:xlink="http://www.w3.org/1999/xlink" x="0px" y="0px"
	 width="100.4px" height="36.9px" viewBox="0 0 100.4 36.9" style="enable-background:new 0 0 100.4 36.9;" xml:space="preserve">
<style type="text/css">
	.st0{fill:none;stroke-width:1.5;stroke-linecap:round;}
</style>
<path id="Vector" class="st0" d="M0.8,27.6C13.8,13.2,29.9,0.4,50.5,0.8c11,0.2,21.8,7.5,16.4,19.4C63.2,28.2,53,38.9,43.2,35.5
	c-10.9-3.8,13.3-14.3,16.1-15c13.1-3,24.5-1.9,37.3,1c4.8,1.1,3-1.2,0.3-3.1c-2.3-1.6-5.1-3.4-7.8-4.4c-0.8-0.3,4,2.6,4.8,3
	c3.3,1.8,7.1,4,3.9,7.9c-0.5,0.6-5.9,6-6.9,5.4c-0.5-0.3,0.8-5.5,0.9-6.3c0.1-4.9-1.1-7.7-4.9-10.6"/>
</svg>
