<?xml version="1.0" encoding="utf-8"?>
<!-- Generator: Adobe Illustrator 21.1.0, SVG Export Plug-In . SVG Version: 6.00 Build 0)  -->
<svg version="1.1" id="Слой_1" xmlns="http://www.w3.org/2000/svg" xmlns:xlink="http://www.w3.org/1999/xlink" x="0px" y="0px"
	 width="320px" height="320px" viewBox="0 0 320 320" style="enable-background:new 0 0 320 320;" xml:space="preserve">
<style type="text/css">
	.st0{fill:#FFFFFF;}
	.st1{fill:#1D1D1F;}
</style>
<rect x="0" class="st0" width="320" height="320"/>
<g transform="translate(-266.43 -401.65)">
	<g transform="matrix(.3492 0 0 .3492 284.57 419.79)">
		<g>
			<path class="st1" d="M406.3,426.2c90.6,0,123.2-90.7,131.7-165.2c10.5-91.8-32.9-160.8-131.7-160.8
				c-98.8,0-142.2,69.1-131.7,160.8C283.1,335.5,315.7,426.2,406.3,426.2z"/>
			<path class="st1" d="M651.2,642.2c-1-28.9-4.4-57.9-9.4-86.4c-6.1-34.5-13.9-85-44-107.5c-17.4-13-39.9-17.2-59.9-25.1
				c-9.7-3.8-18.4-7.6-26.5-11.9c-27.5,30.2-63.4,46-105.2,46c-41.8,0-77.7-15.8-105.2-46c-8.2,4.3-16.8,8.1-26.5,11.9
				c-19.9,7.8-42.5,12.1-59.9,25.1c-30.1,22.5-37.9,73-44,107.5c-5,28.5-8.4,57.5-9.4,86.4c-0.8,22.4,10.3,25.5,29,32.3
				c23.5,8.5,47.7,14.7,72,19.9c47.1,9.9,95.6,17.6,143.9,17.9c48.3-0.3,96.8-8,143.9-17.9c24.4-5.1,48.6-11.4,72-19.9
				C640.9,667.7,652,664.5,651.2,642.2L651.2,642.2z"/>
		</g>
	</g>
</g>
</svg>
