<svg width="120" height="21" viewBox="0 0 120 21" fill="none" xmlns="http://www.w3.org/2000/svg">
<path d="M89.2148 9.97266L103.849 19.7288L118.483 9.97266" stroke="#8970EF" stroke-width="1.5" stroke-miterlimit="10" stroke-linecap="round" stroke-linejoin="round"/>
<path d="M89.2148 9.97266L103.849 19.7288L118.483 9.97266" stroke="white" stroke-opacity="0.2" stroke-width="1.5" stroke-miterlimit="10" stroke-linecap="round" stroke-linejoin="round"/>
<path d="M30.7305 9.92578L45.3645 19.6819L59.9985 9.97456L74.581 19.7307" stroke="#8970EF" stroke-width="1.5" stroke-miterlimit="10" stroke-linecap="round" stroke-linejoin="round"/>
<path d="M30.7305 9.92578L45.3645 19.6819L59.9985 9.97456L74.581 19.7307" stroke="white" stroke-opacity="0.2" stroke-width="1.5" stroke-miterlimit="10" stroke-linecap="round" stroke-linejoin="round"/>
<path d="M1.51562 9.92578L16.0982 19.6819" stroke="#8970EF" stroke-width="1.5" stroke-miterlimit="10" stroke-linecap="round" stroke-linejoin="round"/>
<path d="M1.51562 9.92578L16.0982 19.6819" stroke="white" stroke-opacity="0.2" stroke-width="1.5" stroke-miterlimit="10" stroke-linecap="round" stroke-linejoin="round"/>
<path d="M74.582 10.9495L89.2161 1.19336L103.85 10.9495L118.484 1.19336" stroke="#8970EF" stroke-width="1.5" stroke-miterlimit="10" stroke-linecap="round" stroke-linejoin="round"/>
<path d="M74.582 10.9495L89.2161 1.19336L103.85 10.9495L118.484 1.19336" stroke="white" stroke-opacity="0.2" stroke-width="1.5" stroke-miterlimit="10" stroke-linecap="round" stroke-linejoin="round"/>
<path d="M1.51562 1.14453L16.1497 10.9006L30.7322 1.14453L45.3663 10.9006L60.0003 1.19332" stroke="#8970EF" stroke-width="1.5" stroke-miterlimit="10" stroke-linecap="round" stroke-linejoin="round"/>
<path d="M1.51562 1.14453L16.1497 10.9006L30.7322 1.14453L45.3663 10.9006L60.0003 1.19332" stroke="white" stroke-opacity="0.2" stroke-width="1.5" stroke-miterlimit="10" stroke-linecap="round" stroke-linejoin="round"/>
</svg>
