<svg width="188" height="179" viewBox="0 0 188 179" fill="none" xmlns="http://www.w3.org/2000/svg">
  <path
    d="M12.2677 116.329C27.7144 86.3349 49.0598 57.5786 83.682 48.9573C102.169 44.3538 123.586 51.7172 119.894 74.1031C117.379 89.3496 105.159 111.816 87.0652 110.507C67.0848 109.061 103.02 80.4858 107.432 78.1396C128.079 67.1572 147.643 63.8834 170.576 63.075C179.167 62.7721 175.088 59.7486 169.7 57.8175C165.025 56.1419 159.663 54.3597 154.712 53.982C153.201 53.8668 162.578 56.5724 164.077 56.9274C170.508 58.4497 177.872 60.4602 174.125 68.3993C173.523 69.6749 166.898 81.0512 164.973 80.4995C163.971 80.2125 163.882 70.8506 163.579 69.5687C161.616 61.2435 158.362 57.1736 150.659 53.9719"
    stroke="#8970EF" stroke-width="1.5" stroke-linecap="round" />
  <path
    d="M40 154.635C41.2052 155 42.833 155 45.6 155L66.4 155C69.167 155 70.7948 155 72 154.635M40 154.635C39.7416 154.557 39.5027 154.462 39.2761 154.346C38.1471 153.771 37.2292 152.853 36.654 151.724C36 150.44 36 148.76 36 145.4L36 124.6C36 121.24 36 119.56 36.654 118.276C37.2292 117.147 38.1471 116.229 39.2761 115.654C40.5595 115 42.2397 115 45.6 115L66.4 115C69.7603 115 71.4405 115 72.7239 115.654C73.8529 116.229 74.7708 117.147 75.346 118.276C76 119.56 76 121.24 76 124.6L76 145.4C76 148.76 76 150.44 75.346 151.724C74.7708 152.853 73.8529 153.771 72.7239 154.346C72.4973 154.462 72.2584 154.557 72 154.635M40 154.635C40.0007 153.016 40.0104 152.16 40.1537 151.439C40.785 148.266 43.2658 145.785 46.4393 145.154C47.2121 145 48.1414 145 50 145L62 145C63.8586 145 64.7879 145 65.5607 145.154C68.7342 145.785 71.215 148.266 71.8463 151.439C71.9896 152.16 71.9993 153.016 72 154.635M64 130C64 134.418 60.4183 138 56 138C51.5817 138 48 134.418 48 130C48 125.582 51.5817 122 56 122C60.4183 122 64 125.582 64 130Z"
    stroke="#8970EF" stroke-width="1.5" stroke-linecap="round" stroke-linejoin="round" />

</svg>