<svg width="120" height="134" viewBox="0 0 120 134" fill="none" xmlns="http://www.w3.org/2000/svg">
<path d="M14 118.065C15.2052 118.43 16.833 118.43 19.6 118.43L40.4 118.43C43.167 118.43 44.7948 118.43 46 118.065M14 118.065C13.7416 117.986 13.5027 117.891 13.2761 117.776C12.1471 117.2 11.2292 116.283 10.654 115.154C10 113.87 10 112.19 10 108.83L10 88.0297C10 84.6694 10 82.9892 10.654 81.7057C11.2292 80.5768 12.1471 79.6589 13.2761 79.0836C14.5595 78.4297 16.2397 78.4297 19.6 78.4297L40.4 78.4297C43.7603 78.4297 45.4405 78.4297 46.7239 79.0836C47.8529 79.6589 48.7708 80.5768 49.346 81.7057C50 82.9892 50 84.6694 50 88.0297L50 108.83C50 112.19 50 113.87 49.346 115.154C48.7708 116.283 47.8529 117.2 46.7239 117.776C46.4973 117.891 46.2584 117.986 46 118.065M14 118.065C14.0007 116.446 14.0104 115.589 14.1537 114.869C14.785 111.695 17.2658 109.215 20.4393 108.583C21.2121 108.43 22.1414 108.43 24 108.43L36 108.43C37.8586 108.43 38.7879 108.43 39.5607 108.583C42.7342 109.215 45.215 111.695 45.8463 114.869C45.9896 115.589 45.9993 116.446 46 118.065M38 93.4297C38 97.848 34.4183 101.43 30 101.43C25.5817 101.43 22 97.848 22 93.4297C22 89.0114 25.5817 85.4297 30 85.4297C34.4183 85.4297 38 89.0114 38 93.4297Z" stroke="#8970EF" stroke-width="1.5" stroke-linecap="round" stroke-linejoin="round"/>
<path d="M112.179 121.607C106.256 103.443 96.5391 89.6776 77.0449 85.6742C70.4826 84.3265 61.2351 86.3876 68.2138 94.7019C74.6964 102.425 89.7728 101.965 96.8538 95.1696C107.48 84.9718 102.116 69.5724 94.4353 59.0899C82.5526 42.8723 69.271 27.6578 53.4248 15.2947C50.197 12.7764 55.4177 38.0642 54.7269 29.2289C54.2392 22.9927 52.2497 17.9232 49.9764 12.174C48.3395 8.03397 50.7748 10.1329 53.7831 11.7207C58.6723 14.3011 65.5921 16.0022 71.1301 15.2695" stroke="#8970EF" stroke-width="1.5" stroke-linecap="round"/>
</svg>
