<svg xmlns="http://www.w3.org/2000/svg" width="96" height="48" fill="none" viewBox="0 0 96 48">
  <path data-stroke="true" stroke-linecap="round" stroke-linejoin="round" stroke-width="1.5"
    d="M24 35h.02m-7.62 9h15.2c2.24 0 3.36 0 4.216-.436a4 4 0 0 0 1.748-1.748C38 40.96 38 39.84 38 37.6V10.4c0-2.24 0-3.36-.436-4.216a4 4 0 0 0-1.748-1.748C34.96 4 33.84 4 31.6 4H16.4c-2.24 0-3.36 0-4.216.436a4 4 0 0 0-1.748 1.748C10 7.04 10 8.16 10 10.4v27.2c0 2.24 0 3.36.436 4.216a4 4 0 0 0 1.748 1.748C13.04 44 14.16 44 16.4 44m8.6-9a1 1 0 1 1-2 0 1 1 0 0 1 2 0M56 34l12-12-12-12m16 28h16"></path>
</svg>