<svg width="220" height="133" viewBox="0 0 220 133" fill="none" xmlns="http://www.w3.org/2000/svg">
<path d="M92.2148 117.316L106.849 127.073L121.483 117.316"  stroke-width="1.5" stroke-miterlimit="10" stroke-linecap="round" stroke-linejoin="round"/>
<path d="M92.2148 117.316L106.849 127.073L121.483 117.316" stroke-opacity="0.2" stroke-width="1.5" stroke-miterlimit="10" stroke-linecap="round" stroke-linejoin="round"/>
<path d="M33.7305 117.27L48.3645 127.026L62.9985 117.318L77.581 127.074"  stroke-width="1.5" stroke-miterlimit="10" stroke-linecap="round" stroke-linejoin="round"/>
<path d="M33.7305 117.27L48.3645 127.026L62.9985 117.318L77.581 127.074" stroke-opacity="0.2" stroke-width="1.5" stroke-miterlimit="10" stroke-linecap="round" stroke-linejoin="round"/>
<path d="M4.51562 117.27L19.0982 127.026"  stroke-width="1.5" stroke-miterlimit="10" stroke-linecap="round" stroke-linejoin="round"/>
<path d="M4.51562 117.27L19.0982 127.026" stroke-opacity="0.2" stroke-width="1.5" stroke-miterlimit="10" stroke-linecap="round" stroke-linejoin="round"/>
<path d="M77.582 118.293L92.2161 108.537L106.85 118.293L121.484 108.537"  stroke-width="1.5" stroke-miterlimit="10" stroke-linecap="round" stroke-linejoin="round"/>
<path d="M77.582 118.293L92.2161 108.537L106.85 118.293L121.484 108.537" stroke-opacity="0.2" stroke-width="1.5" stroke-miterlimit="10" stroke-linecap="round" stroke-linejoin="round"/>
<path d="M4.51562 108.488L19.1497 118.244L33.7322 108.488L48.3663 118.244L63.0003 108.537"  stroke-width="1.5" stroke-miterlimit="10" stroke-linecap="round" stroke-linejoin="round"/>
<path d="M4.51562 108.488L19.1497 118.244L33.7322 108.488L48.3663 118.244L63.0003 108.537" stroke-opacity="0.2" stroke-width="1.5" stroke-miterlimit="10" stroke-linecap="round" stroke-linejoin="round"/>
<path d="M212.19 121.279C206.268 103.115 196.551 89.3495 177.057 85.346C170.494 83.9983 161.247 86.0595 168.225 94.3738C174.708 102.097 189.785 101.637 196.866 94.8414C207.492 84.6437 202.128 69.2443 194.447 58.7618C182.564 42.5442 169.283 27.3296 153.436 14.9666C150.209 12.4483 155.429 37.736 154.739 28.9008C154.251 22.6646 152.261 17.5951 149.988 11.8458C148.351 7.70585 150.787 9.80474 153.795 11.3925C158.684 13.973 165.604 15.6741 171.142 14.9414"  stroke-width="1.5" stroke-linecap="round"/>
</svg>
