<svg width="442" height="320" viewBox="0 0 442 320" fill="none" xmlns="http://www.w3.org/2000/svg">
<path opacity="0.5" fill-rule="evenodd" clip-rule="evenodd" d="M378.417 5.79154C377.376 6.83294 375.688 6.83295 374.646 5.79155C373.605 4.75015 373.605 3.06171 374.646 2.02031C375.688 0.978909 377.376 0.978908 378.417 2.0203C379.459 3.0617 379.459 4.75014 378.417 5.79154ZM252.451 128.695L251.02 130.125L250.313 129.418L251.744 127.988L252.451 128.695ZM258.172 122.973L255.311 125.834L254.604 125.127L257.465 122.266L258.172 122.973ZM263.893 117.252L261.032 120.113L260.325 119.406L263.186 116.545L263.893 117.252ZM269.614 111.531L266.754 114.392L266.046 113.685L268.907 110.824L269.614 111.531ZM275.335 105.81L272.475 108.671L271.768 107.964L274.628 105.103L275.335 105.81ZM281.056 100.089L278.196 102.95L277.489 102.242L280.349 99.3814L281.056 100.089ZM286.778 94.3674L283.917 97.228L283.21 96.5209L286.07 93.6603L286.778 94.3674ZM292.499 88.6463L289.638 91.5068L288.931 90.7997L291.792 87.9392L292.499 88.6463ZM298.22 82.9251L295.359 85.7857L294.652 85.0786L297.513 82.218L298.22 82.9251ZM303.941 77.204L301.08 80.0646L300.373 79.3575L303.234 76.4969L303.941 77.204ZM309.662 71.4828L306.802 74.3434L306.094 73.6363L308.955 70.7757L309.662 71.4828ZM315.383 65.7617L312.523 68.6223L311.816 67.9152L314.676 65.0546L315.383 65.7617ZM321.104 60.0406L318.244 62.9011L317.537 62.194L320.397 59.3335L321.104 60.0406ZM326.826 54.3194L323.965 57.18L323.258 56.4729L326.118 53.6123L326.826 54.3194ZM332.547 48.5983L329.686 51.4589L328.979 50.7518L331.84 47.8912L332.547 48.5983ZM338.268 42.8771L335.407 45.7377L334.7 45.0306L337.561 42.17L338.268 42.8771ZM343.989 37.156L341.128 40.0166L340.421 39.3095L343.282 36.4489L343.989 37.156ZM349.71 31.4349L346.849 34.2955L346.142 33.5883L349.003 30.7278L349.71 31.4349ZM355.431 25.7137L352.571 28.5743L351.864 27.8672L354.724 25.0066L355.431 25.7137ZM361.152 19.9926L358.292 22.8532L357.585 22.1461L360.445 19.2855L361.152 19.9926ZM366.873 14.2715L364.013 17.132L363.306 16.4249L366.166 13.5644L366.873 14.2715ZM372.595 8.5503L369.734 11.4109L369.027 10.7038L371.888 7.84319L372.595 8.5503Z" fill="#ED6B55"/>
<path opacity="0.5" fill-rule="evenodd" clip-rule="evenodd" d="M438.667 162.438C437.194 162.438 436 161.244 436 159.771C436 158.298 437.194 157.104 438.667 157.104C440.14 157.104 441.334 158.298 441.334 159.771C441.334 161.244 440.14 162.438 438.667 162.438ZM262.69 160.271H260.667V159.271H262.69V160.271ZM270.781 160.271H266.735V159.271H270.781V160.271ZM278.872 160.271H274.826V159.271H278.872V160.271ZM286.962 160.271H282.917V159.271H286.962V160.271ZM295.053 160.271H291.008V159.271H295.053V160.271ZM303.144 160.271H299.099V159.271H303.144V160.271ZM311.235 160.271H307.19V159.271H311.235V160.271ZM319.326 160.271H315.281V159.271H319.326V160.271ZM327.417 160.271H323.372V159.271H327.417V160.271ZM335.508 160.271H331.462V159.271H335.508V160.271ZM343.599 160.271H339.553V159.271H343.599V160.271ZM351.69 160.271H347.644V159.271H351.69V160.271ZM359.781 160.271H355.735V159.271H359.781V160.271ZM367.872 160.271H363.826V159.271H367.872V160.271ZM375.962 160.271H371.917V159.271H375.962V160.271ZM384.053 160.271H380.008V159.271H384.053V160.271ZM392.144 160.271H388.099V159.271H392.144V160.271ZM400.235 160.271H396.19V159.271H400.235V160.271ZM408.326 160.271H404.281V159.271H408.326V160.271ZM416.417 160.271H412.372V159.271H416.417V160.271ZM424.508 160.271H420.463V159.271H424.508V160.271ZM432.599 160.271H428.553V159.271H432.599V160.271Z" fill="#ED6B55"/>
<path opacity="0.5" fill-rule="evenodd" clip-rule="evenodd" d="M2.66668 162.438C4.13942 162.438 5.33333 161.244 5.33333 159.771C5.33333 158.298 4.13942 157.104 2.66668 157.104C1.19391 157.104 0 158.298 0 159.771C0 161.244 1.19391 162.438 2.66668 162.438ZM178.644 160.271H180.667V159.271H178.644V160.271ZM170.553 160.271H174.599V159.271H170.553V160.271ZM162.462 160.271H166.508V159.271H162.462V160.271ZM154.372 160.271H158.417V159.271H154.372V160.271ZM146.281 160.271H150.326V159.271H146.281V160.271ZM138.19 160.271H142.235V159.271H138.19V160.271ZM130.099 160.271H134.144V159.271H130.099V160.271ZM122.008 160.271H126.053V159.271H122.008V160.271ZM113.917 160.271H117.962V159.271H113.917V160.271ZM105.826 160.271H109.872V159.271H105.826V160.271ZM97.7348 160.271H101.781V159.271H97.7348V160.271ZM89.6439 160.271H93.6894V159.271H89.6439V160.271ZM81.553 160.271H85.5985V159.271H81.553V160.271ZM73.4621 160.271H77.5076V159.271H73.4621V160.271ZM65.3712 160.271H69.4167V159.271H65.3712V160.271ZM57.2803 160.271H61.3257V159.271H57.2803V160.271ZM49.1894 160.271H53.2348V159.271H49.1894V160.271ZM41.0985 160.271H45.1439V159.271H41.0985V160.271ZM33.0076 160.271H37.053V159.271H33.0076V160.271ZM24.9166 160.271H28.9621V159.271H24.9166V160.271ZM16.8257 160.271H20.8712V159.271H16.8257V160.271ZM8.73481 160.271H12.7803V159.271H8.73481V160.271Z" fill="#ED6B55"/>
<path opacity="0.5" fill-rule="evenodd" clip-rule="evenodd" d="M378.417 313.751C377.376 312.71 375.688 312.71 374.646 313.751C373.605 314.792 373.605 316.481 374.646 317.522C375.688 318.564 377.376 318.564 378.417 317.522C379.459 316.481 379.459 314.792 378.417 313.751ZM252.451 190.848L251.02 189.418L250.313 190.125L251.744 191.555L252.451 190.848ZM258.172 196.569L255.311 193.709L254.604 194.416L257.465 197.277L258.172 196.569ZM263.893 202.291L261.032 199.43L260.325 200.137L263.186 202.998L263.893 202.291ZM269.614 208.012L266.754 205.151L266.046 205.858L268.907 208.719L269.614 208.012ZM275.335 213.733L272.475 210.872L271.768 211.579L274.628 214.44L275.335 213.733ZM281.056 219.454L278.196 216.593L277.489 217.301L280.349 220.161L281.056 219.454ZM286.778 225.175L283.917 222.315L283.21 223.022L286.07 225.882L286.778 225.175ZM292.499 230.896L289.638 228.036L288.931 228.743L291.792 231.603L292.499 230.896ZM298.22 236.617L295.359 233.757L294.652 234.464L297.513 237.325L298.22 236.617ZM303.941 242.339L301.08 239.478L300.373 240.185L303.234 243.046L303.941 242.339ZM309.662 248.06L306.802 245.199L306.094 245.906L308.955 248.767L309.662 248.06ZM315.383 253.781L312.523 250.92L311.816 251.627L314.676 254.488L315.383 253.781ZM321.104 259.502L318.244 256.641L317.537 257.349L320.397 260.209L321.104 259.502ZM326.826 265.223L323.965 262.363L323.258 263.07L326.118 265.93L326.826 265.223ZM332.547 270.944L329.686 268.084L328.979 268.791L331.84 271.651L332.547 270.944ZM338.268 276.665L335.407 273.805L334.7 274.512L337.561 277.373L338.268 276.665ZM343.989 282.387L341.128 279.526L340.421 280.233L343.282 283.094L343.989 282.387ZM349.71 288.108L346.849 285.247L346.142 285.954L349.003 288.815L349.71 288.108ZM355.431 293.829L352.571 290.968L351.864 291.675L354.724 294.536L355.431 293.829ZM361.152 299.55L358.292 296.689L357.585 297.397L360.445 300.257L361.152 299.55ZM366.873 305.271L364.013 302.411L363.306 303.118L366.166 305.978L366.873 305.271ZM372.595 310.992L369.734 308.132L369.027 308.839L371.888 311.699L372.595 310.992Z" fill="#ED6B55"/>
<path opacity="0.5" fill-rule="evenodd" clip-rule="evenodd" d="M62.781 5.65677C61.7397 4.61538 61.7397 2.92694 62.781 1.88554C63.8224 0.844142 65.5108 0.844142 66.5522 1.88554C67.5936 2.92694 67.5936 4.61538 66.5522 5.65677C65.5108 6.69817 63.8224 6.69817 62.781 5.65677ZM71.4645 11.2761L68.604 8.41556L69.3111 7.70846L72.1716 10.569L71.4645 11.2761ZM77.1856 16.9972L74.3251 14.1367L75.0322 13.4296L77.8927 16.2901L77.1856 16.9972ZM82.9067 22.7184L80.0463 19.8578L80.7534 19.1507L83.6138 22.0113L82.9067 22.7184ZM88.628 28.4395L85.7674 25.579L86.4745 24.8718L89.3351 27.7324L88.628 28.4395ZM94.3491 34.1607L91.4885 31.3001L92.1956 30.593L95.0562 33.4536L94.3491 34.1607ZM100.071 39.8818L97.2097 37.0212L97.9168 36.3141L100.778 39.1747L100.071 39.8818ZM105.792 45.6029L102.931 42.7424L103.638 42.0353L106.499 44.8958L105.792 45.6029ZM111.513 51.3241L108.652 48.4635L109.359 47.7564L112.22 50.617L111.513 51.3241ZM117.234 57.0452L114.373 54.1846L115.081 53.4775L117.941 56.3381L117.234 57.0452ZM122.955 62.7664L120.095 59.9058L120.802 59.1987L123.662 62.0593L122.955 62.7664ZM128.676 68.4875L125.816 65.6269L126.523 64.9198L129.383 67.7804L128.676 68.4875ZM134.397 74.2086L131.537 71.3481L132.244 70.641L135.104 73.5015L134.397 74.2086ZM140.119 79.9298L137.258 77.0692L137.965 76.3621L140.826 79.2227L140.119 79.9298ZM145.84 85.6509L142.979 82.7903L143.686 82.0832L146.547 84.9438L145.84 85.6509ZM151.561 91.3721L148.7 88.5115L149.407 87.8044L152.268 90.6649L151.561 91.3721ZM157.282 97.0932L154.421 94.2326L155.128 93.5255L157.989 96.3861L157.282 97.0932ZM163.003 102.814L160.143 99.9538L160.85 99.2466L163.71 102.107L163.003 102.814ZM168.724 108.536L165.864 105.675L166.571 104.968L169.431 107.828L168.724 108.536ZM174.445 114.257L171.585 111.396L172.292 110.689L175.152 113.55L174.445 114.257ZM180.166 119.978L177.306 117.117L178.013 116.41L180.874 119.271L180.166 119.978ZM185.888 125.699L183.027 122.838L183.734 122.131L186.595 124.992L185.888 125.699ZM190.178 129.99L188.748 128.56L189.455 127.852L190.886 129.283L190.178 129.99Z" fill="#ED6B55"/>
<path opacity="0.5" fill-rule="evenodd" clip-rule="evenodd" d="M66.5523 317.52C65.5109 318.562 63.8224 318.562 62.781 317.52C61.7397 316.479 61.7397 314.791 62.781 313.749C63.8224 312.708 65.5109 312.708 66.5523 313.749C67.5937 314.791 67.5937 316.479 66.5523 317.52ZM72.1716 308.837L69.3112 311.697L68.6039 310.99L71.4645 308.13L72.1716 308.837ZM77.8928 303.116L75.0323 305.976L74.3252 305.269L77.1856 302.409L77.8928 303.116ZM83.6139 297.395L80.7534 300.255L80.0463 299.548L82.9068 296.688L83.6139 297.395ZM89.335 291.673L86.4746 294.534L85.7675 293.827L88.6279 290.966L89.335 291.673ZM95.0562 285.952L92.1957 288.813L91.4886 288.106L94.3491 285.245L95.0562 285.952ZM100.777 280.231L97.9168 283.092L97.2097 282.385L100.07 279.524L100.777 280.231ZM106.499 274.51L103.638 277.371L102.931 276.664L105.791 273.803L106.499 274.51ZM112.22 268.789L109.359 271.65L108.652 270.942L111.513 268.082L112.22 268.789ZM117.941 263.068L115.08 265.928L114.373 265.221L117.234 262.361L117.941 263.068ZM123.662 257.347L120.801 260.207L120.094 259.5L122.955 256.64L123.662 257.347ZM129.383 251.626L126.523 254.486L125.815 253.779L128.676 250.918L129.383 251.626ZM135.104 245.904L132.244 248.765L131.537 248.058L134.397 245.197L135.104 245.904ZM140.825 240.183L137.965 243.044L137.258 242.337L140.118 239.476L140.825 240.183ZM146.547 234.462L143.686 237.323L142.979 236.616L145.839 233.755L146.547 234.462ZM152.268 228.741L149.407 231.602L148.7 230.894L151.561 228.034L152.268 228.741ZM157.989 223.02L155.128 225.88L154.421 225.173L157.282 222.313L157.989 223.02ZM163.71 217.299L160.849 220.159L160.142 219.452L163.003 216.592L163.71 217.299ZM169.431 211.578L166.571 214.438L165.863 213.731L168.724 210.87L169.431 211.578ZM175.152 205.856L172.292 208.717L171.585 208.01L174.445 205.149L175.152 205.856ZM180.873 200.135L178.013 202.996L177.306 202.289L180.166 199.428L180.873 200.135ZM186.594 194.414L183.734 197.275L183.027 196.568L185.887 193.707L186.594 194.414ZM190.885 190.123L189.455 191.554L188.748 190.846L190.178 189.416L190.885 190.123Z" fill="#ED6B55"/>
</svg>
