<svg width="49" height="48" viewBox="0 0 49 48" fill="none" xmlns="http://www.w3.org/2000/svg">
<path d="M20.5 35.3172V40C20.5 42.2091 22.2909 44 24.5 44C26.7091 44 28.5 42.2091 28.5 40V35.3172M24.5 4V6M6.5 24H4.5M11.5 11L10.2998 9.7998M37.5 11L38.7005 9.7998M44.5 24H42.5" stroke="#1D1D1F" stroke-linecap="round" stroke-linejoin="round"/>
<path d="M24.5 36C31.1274 36 36.5 30.6274 36.5 24C36.5 17.3726 31.1274 12 24.5 12C17.8726 12 12.5 17.3726 12.5 24C12.5 30.6274 17.8726 36 24.5 36Z" fill="#ED6B55" stroke="#ED6B55" stroke-linecap="round" stroke-linejoin="round"/>
</svg>
