<svg width="49" height="48" viewBox="0 0 49 48" fill="none" xmlns="http://www.w3.org/2000/svg">
<path d="M24.5 29.9995L18.5 23.9995M24.5 29.9995C27.2937 28.937 29.9738 27.597 32.5 25.9995M24.5 29.9995V39.9995C24.5 39.9995 30.56 38.8995 32.5 35.9995C34.66 32.7595 32.5 25.9995 32.5 25.9995M18.5 23.9995C19.5643 21.2384 20.9044 18.5916 22.5 16.0995C24.8304 12.3735 28.0752 9.30562 31.926 7.1877C35.7768 5.06979 40.1053 3.97226 44.5 3.99952C44.5 9.43952 42.94 18.9995 32.5 25.9995M18.5 23.9995H8.5C8.5 23.9995 9.6 17.9395 12.5 15.9995C15.74 13.8395 22.5 15.9995 22.5 15.9995" stroke="#1D1D1F" stroke-linecap="round" stroke-linejoin="round"/>
<path d="M9.5 32.9997C6.5 35.5197 5.5 42.9997 5.5 42.9997C5.5 42.9997 12.98 41.9997 15.5 38.9997C16.92 37.3197 16.9 34.7397 15.32 33.1797C14.5426 32.4377 13.5186 32.0089 12.4445 31.9757C11.3703 31.9425 10.3218 32.3071 9.5 32.9997Z" fill="#ED6B55" stroke="#ED6B55" stroke-linecap="round" stroke-linejoin="round"/>
</svg>
