<svg width="48" height="48" viewBox="0 0 48 48" fill="none" xmlns="http://www.w3.org/2000/svg">
<g id="terminal-browser">
<path id="Icon" d="M44 18H4M12 35L17 30L12 25M22 35L30 35M4 15.6L4 32.4C4 35.7603 4 37.4405 4.65396 38.7239C5.2292 39.8529 6.14708 40.7708 7.27606 41.346C8.55953 42 10.2397 42 13.6 42H34.4C37.7603 42 39.4405 42 40.7239 41.346C41.8529 40.7708 42.7708 39.8529 43.346 38.7239C44 37.4405 44 35.7603 44 32.4V15.6C44 12.2397 44 10.5595 43.346 9.27606C42.7708 8.14709 41.8529 7.2292 40.7239 6.65396C39.4405 6 37.7603 6 34.4 6L13.6 6C10.2397 6 8.55953 6 7.27606 6.65396C6.14709 7.2292 5.2292 8.14708 4.65396 9.27606C4 10.5595 4 12.2397 4 15.6Z" stroke="white" stroke-linecap="round" stroke-linejoin="round"/>
</g>
</svg>
