<svg width="40" height="40" viewBox="0 0 40 40" fill="none" xmlns="http://www.w3.org/2000/svg">
  <path d="M35.0026 16.668H5.0026C4.08594 16.668 3.33594 17.418 3.33594 18.3346V26.9846C3.33594 27.318 3.3526 27.6513 3.38594 27.9846C3.71927 33.118 6.88594 36.2846 12.0193 36.618C12.3526 36.6513 12.6859 36.668 13.0193 36.668H26.9859C27.3193 36.668 27.6526 36.6513 27.9859 36.618C33.1193 36.2846 36.2859 33.118 36.6193 27.9846C36.6526 27.6513 36.6693 27.318 36.6693 26.9846V18.3346C36.6693 17.418 35.9193 16.668 35.0026 16.668ZM13.3359 26.918C13.9026 27.7513 14.6693 28.4346 15.5526 28.8846C16.1859 29.1846 16.4359 29.9346 16.1193 30.568C15.9026 31.0013 15.4526 31.2513 15.0026 31.2513C14.8193 31.2513 14.6193 31.2013 14.4526 31.118C13.1526 30.4846 12.0526 29.5013 11.2693 28.318C10.6026 27.318 10.6026 26.018 11.2693 25.018C12.0526 23.8346 13.1526 22.8513 14.4526 22.218C15.0693 21.9013 15.8193 22.1513 16.1193 22.768C16.4359 23.4013 16.1859 24.1513 15.5526 24.4513C14.6693 24.9013 13.9026 25.5846 13.3359 26.418C13.2359 26.568 13.2359 26.768 13.3359 26.918ZM29.0859 28.318C28.2859 29.5013 27.1859 30.4846 25.9026 31.118C25.7193 31.2013 25.5359 31.2513 25.3526 31.2513C24.8859 31.2513 24.4526 31.0013 24.2359 30.568C23.9193 29.9346 24.1693 29.1846 24.7859 28.8846C25.6859 28.4346 26.4526 27.7513 27.0026 26.918C27.1193 26.768 27.1193 26.568 27.0026 26.418C26.4526 25.5846 25.6859 24.9013 24.7859 24.4513C24.1693 24.1513 23.9193 23.4013 24.2359 22.768C24.5359 22.1513 25.2859 21.9013 25.9026 22.218C27.1859 22.8513 28.2859 23.8346 29.0859 25.018C29.7526 26.018 29.7526 27.318 29.0859 28.318Z" fill="white"/>
  <path d="M36.6693 13.0154V13.332C36.6693 14.2487 35.9193 14.9987 35.0026 14.9987L5.0026 15.0154C4.08594 15.0154 3.33594 14.2654 3.33594 13.3487V13.0154C3.33594 12.682 3.3526 12.3487 3.38594 12.0154C3.71927 6.88203 6.88594 3.71536 12.0193 3.38203C12.3526 3.3487 12.6859 3.33203 13.0193 3.33203H26.9859C27.3193 3.33203 27.6526 3.3487 27.9859 3.38203C33.1193 3.71536 36.2859 6.88203 36.6193 12.0154C36.6526 12.3487 36.6693 12.682 36.6693 13.0154Z" fill="white"/>
  </svg>
  