<svg width="442" height="320" viewBox="0 0 442 320" fill="none" xmlns="http://www.w3.org/2000/svg">
<path opacity="0.5" fill-rule="evenodd" clip-rule="evenodd" d="M378.417 5.79197C377.376 6.83337 375.688 6.83338 374.646 5.79198C373.605 4.75058 373.605 3.06214 374.646 2.02074C375.688 0.979337 377.376 0.979336 378.417 2.02073C379.459 3.06213 379.459 4.75057 378.417 5.79197ZM252.451 128.695L251.02 130.125L250.313 129.418L251.744 127.988L252.451 128.695ZM258.172 122.973L255.311 125.834L254.604 125.127L257.465 122.266L258.172 122.973ZM263.893 117.252L261.032 120.113L260.325 119.406L263.186 116.545L263.893 117.252ZM269.614 111.531L266.754 114.392L266.046 113.685L268.907 110.824L269.614 111.531ZM275.335 105.81L272.475 108.671L271.768 107.964L274.628 105.103L275.335 105.81ZM281.056 100.089L278.196 102.95L277.489 102.242L280.349 99.3818L281.056 100.089ZM286.778 94.3678L283.917 97.2284L283.21 96.5213L286.07 93.6607L286.778 94.3678ZM292.499 88.6467L289.638 91.5072L288.931 90.8001L291.792 87.9396L292.499 88.6467ZM298.22 82.9255L295.359 85.7861L294.652 85.079L297.513 82.2184L298.22 82.9255ZM303.941 77.2044L301.08 80.065L300.373 79.3579L303.234 76.4973L303.941 77.2044ZM309.662 71.4832L306.802 74.3438L306.094 73.6367L308.955 70.7761L309.662 71.4832ZM315.383 65.7621L312.523 68.6227L311.816 67.9156L314.676 65.055L315.383 65.7621ZM321.104 60.041L318.244 62.9015L317.537 62.1944L320.397 59.3339L321.104 60.041ZM326.826 54.3198L323.965 57.1804L323.258 56.4733L326.118 53.6127L326.826 54.3198ZM332.547 48.5987L329.686 51.4593L328.979 50.7522L331.84 47.8916L332.547 48.5987ZM338.268 42.8775L335.407 45.7381L334.7 45.031L337.561 42.1704L338.268 42.8775ZM343.989 37.1564L341.128 40.017L340.421 39.3099L343.282 36.4493L343.989 37.1564ZM349.71 31.4353L346.849 34.2959L346.142 33.5887L349.003 30.7282L349.71 31.4353ZM355.431 25.7141L352.571 28.5747L351.864 27.8676L354.724 25.007L355.431 25.7141ZM361.152 19.993L358.292 22.8536L357.585 22.1465L360.445 19.2859L361.152 19.993ZM366.873 14.2719L364.013 17.1324L363.306 16.4253L366.166 13.5648L366.873 14.2719ZM372.595 8.55073L369.734 11.4113L369.027 10.7042L371.888 7.84362L372.595 8.55073Z" fill="white"/>
<path opacity="0.5" fill-rule="evenodd" clip-rule="evenodd" d="M438.667 162.438C437.194 162.438 436 161.244 436 159.771C436 158.298 437.194 157.104 438.667 157.104C440.14 157.104 441.334 158.298 441.334 159.771C441.334 161.244 440.14 162.438 438.667 162.438ZM262.69 160.271H260.667V159.271H262.69V160.271ZM270.781 160.271H266.735V159.271H270.781V160.271ZM278.872 160.271H274.826V159.271H278.872V160.271ZM286.962 160.271H282.917V159.271H286.962V160.271ZM295.053 160.271H291.008V159.271H295.053V160.271ZM303.144 160.271H299.099V159.271H303.144V160.271ZM311.235 160.271H307.19V159.271H311.235V160.271ZM319.326 160.271H315.281V159.271H319.326V160.271ZM327.417 160.271H323.372V159.271H327.417V160.271ZM335.508 160.271H331.462V159.271H335.508V160.271ZM343.599 160.271H339.553V159.271H343.599V160.271ZM351.69 160.271H347.644V159.271H351.69V160.271ZM359.781 160.271H355.735V159.271H359.781V160.271ZM367.872 160.271H363.826V159.271H367.872V160.271ZM375.962 160.271H371.917V159.271H375.962V160.271ZM384.053 160.271H380.008V159.271H384.053V160.271ZM392.144 160.271H388.099V159.271H392.144V160.271ZM400.235 160.271H396.19V159.271H400.235V160.271ZM408.326 160.271H404.281V159.271H408.326V160.271ZM416.417 160.271H412.372V159.271H416.417V160.271ZM424.508 160.271H420.463V159.271H424.508V160.271ZM432.599 160.271H428.553V159.271H432.599V160.271Z" fill="white"/>
<path opacity="0.5" fill-rule="evenodd" clip-rule="evenodd" d="M2.66699 162.438C4.13973 162.438 5.33364 161.244 5.33364 159.771C5.33364 158.298 4.13973 157.104 2.66699 157.104C1.19422 157.104 0.000314156 158.298 0.000314156 159.771C0.000314156 161.244 1.19422 162.438 2.66699 162.438ZM178.644 160.271H180.667V159.271H178.644V160.271ZM170.553 160.271H174.599V159.271H170.553V160.271ZM162.462 160.271H166.508V159.271H162.462V160.271ZM154.372 160.271H158.417V159.271H154.372V160.271ZM146.281 160.271H150.326V159.271H146.281V160.271ZM138.19 160.271H142.235V159.271H138.19V160.271ZM130.099 160.271H134.144V159.271H130.099V160.271ZM122.008 160.271H126.053V159.271H122.008V160.271ZM113.917 160.271H117.962V159.271H113.917V160.271ZM105.826 160.271H109.872V159.271H105.826V160.271ZM97.7351 160.271H101.781V159.271H97.7351V160.271ZM89.6442 160.271H93.6897V159.271H89.6442V160.271ZM81.5533 160.271H85.5988V159.271H81.5533V160.271ZM73.4624 160.271H77.5079V159.271H73.4624V160.271ZM65.3715 160.271H69.417V159.271H65.3715V160.271ZM57.2806 160.271H61.326V159.271H57.2806V160.271ZM49.1897 160.271H53.2351V159.271H49.1897V160.271ZM41.0988 160.271H45.1442V159.271H41.0988V160.271ZM33.0079 160.271H37.0533V159.271H33.0079V160.271ZM24.9169 160.271H28.9624V159.271H24.9169V160.271ZM16.826 160.271H20.8715V159.271H16.826V160.271ZM8.73512 160.271H12.7806V159.271H8.73512V160.271Z" fill="white"/>
<path opacity="0.5" fill-rule="evenodd" clip-rule="evenodd" d="M378.417 313.751C377.376 312.71 375.688 312.71 374.646 313.751C373.605 314.792 373.605 316.481 374.646 317.522C375.688 318.564 377.376 318.564 378.417 317.522C379.459 316.481 379.459 314.792 378.417 313.751ZM252.451 190.848L251.02 189.418L250.313 190.125L251.744 191.555L252.451 190.848ZM258.172 196.569L255.311 193.709L254.604 194.416L257.465 197.277L258.172 196.569ZM263.893 202.291L261.032 199.43L260.325 200.137L263.186 202.998L263.893 202.291ZM269.614 208.012L266.754 205.151L266.046 205.858L268.907 208.719L269.614 208.012ZM275.335 213.733L272.475 210.872L271.768 211.579L274.628 214.44L275.335 213.733ZM281.056 219.454L278.196 216.593L277.489 217.301L280.349 220.161L281.056 219.454ZM286.778 225.175L283.917 222.315L283.21 223.022L286.07 225.882L286.778 225.175ZM292.499 230.896L289.638 228.036L288.931 228.743L291.792 231.603L292.499 230.896ZM298.22 236.617L295.359 233.757L294.652 234.464L297.513 237.325L298.22 236.617ZM303.941 242.339L301.08 239.478L300.373 240.185L303.234 243.046L303.941 242.339ZM309.662 248.06L306.802 245.199L306.094 245.906L308.955 248.767L309.662 248.06ZM315.383 253.781L312.523 250.92L311.816 251.627L314.676 254.488L315.383 253.781ZM321.104 259.502L318.244 256.641L317.537 257.349L320.397 260.209L321.104 259.502ZM326.826 265.223L323.965 262.363L323.258 263.07L326.118 265.93L326.826 265.223ZM332.547 270.944L329.686 268.084L328.979 268.791L331.84 271.651L332.547 270.944ZM338.268 276.665L335.407 273.805L334.7 274.512L337.561 277.373L338.268 276.665ZM343.989 282.387L341.128 279.526L340.421 280.233L343.282 283.094L343.989 282.387ZM349.71 288.108L346.849 285.247L346.142 285.954L349.003 288.815L349.71 288.108ZM355.431 293.829L352.571 290.968L351.864 291.675L354.724 294.536L355.431 293.829ZM361.152 299.55L358.292 296.689L357.585 297.397L360.445 300.257L361.152 299.55ZM366.873 305.271L364.013 302.411L363.306 303.118L366.166 305.978L366.873 305.271ZM372.595 310.992L369.734 308.132L369.027 308.839L371.888 311.699L372.595 310.992Z" fill="white"/>
<path opacity="0.5" fill-rule="evenodd" clip-rule="evenodd" d="M62.7814 5.65685C61.74 4.61546 61.74 2.92702 62.7814 1.88562C63.8228 0.84422 65.5112 0.84422 66.5526 1.88562C67.594 2.92702 67.594 4.61546 66.5526 5.65685C65.5112 6.69825 63.8228 6.69825 62.7814 5.65685ZM71.4649 11.2762L68.6043 8.41564L69.3114 7.70854L72.172 10.5691L71.4649 11.2762ZM77.186 16.9973L74.3254 14.1368L75.0325 13.4297L77.8931 16.2902L77.186 16.9973ZM82.9071 22.7185L80.0466 19.8579L80.7537 19.1508L83.6142 22.0114L82.9071 22.7185ZM88.6283 28.4396L85.7677 25.5791L86.4748 24.8719L89.3354 27.7325L88.6283 28.4396ZM94.3494 34.1608L91.4888 31.3002L92.1959 30.5931L95.0565 33.4537L94.3494 34.1608ZM100.071 39.8819L97.21 37.0213L97.9171 36.3142L100.778 39.1748L100.071 39.8819ZM105.792 45.603L102.931 42.7425L103.638 42.0354L106.499 44.8959L105.792 45.603ZM111.513 51.3242L108.652 48.4636L109.359 47.7565L112.22 50.6171L111.513 51.3242ZM117.234 57.0453L114.373 54.1847L115.081 53.4776L117.941 56.3382L117.234 57.0453ZM122.955 62.7665L120.095 59.9059L120.802 59.1988L123.662 62.0594L122.955 62.7665ZM128.676 68.4876L125.816 65.627L126.523 64.9199L129.383 67.7805L128.676 68.4876ZM134.397 74.2087L131.537 71.3482L132.244 70.6411L135.104 73.5016L134.397 74.2087ZM140.119 79.9299L137.258 77.0693L137.965 76.3622L140.826 79.2228L140.119 79.9299ZM145.84 85.651L142.979 82.7904L143.686 82.0833L146.547 84.9439L145.84 85.651ZM151.561 91.3722L148.7 88.5116L149.407 87.8045L152.268 90.665L151.561 91.3722ZM157.282 97.0933L154.421 94.2327L155.128 93.5256L157.989 96.3862L157.282 97.0933ZM163.003 102.814L160.143 99.9539L160.85 99.2467L163.71 102.107L163.003 102.814ZM168.724 108.536L165.864 105.675L166.571 104.968L169.431 107.828L168.724 108.536ZM174.445 114.257L171.585 111.396L172.292 110.689L175.152 113.55L174.445 114.257ZM180.166 119.978L177.306 117.117L178.013 116.41L180.874 119.271L180.166 119.978ZM185.888 125.699L183.027 122.838L183.734 122.131L186.595 124.992L185.888 125.699ZM190.178 129.99L188.748 128.56L189.455 127.852L190.886 129.283L190.178 129.99Z" fill="white"/>
<path opacity="0.5" fill-rule="evenodd" clip-rule="evenodd" d="M66.5524 317.52C65.511 318.562 63.8225 318.562 62.7811 317.52C61.7397 316.479 61.7397 314.791 62.7811 313.749C63.8225 312.708 65.511 312.708 66.5524 313.749C67.5938 314.791 67.5938 316.479 66.5524 317.52ZM72.1717 308.837L69.3112 311.697L68.604 310.99L71.4646 308.13L72.1717 308.837ZM77.8929 303.116L75.0323 305.976L74.3252 305.269L77.1857 302.409L77.8929 303.116ZM83.614 297.395L80.7534 300.255L80.0463 299.548L82.9069 296.688L83.614 297.395ZM89.3351 291.673L86.4746 294.534L85.7675 293.827L88.628 290.966L89.3351 291.673ZM95.0563 285.952L92.1957 288.813L91.4886 288.106L94.3492 285.245L95.0563 285.952ZM100.777 280.231L97.9168 283.092L97.2097 282.385L100.07 279.524L100.777 280.231ZM106.499 274.51L103.638 277.371L102.931 276.664L105.791 273.803L106.499 274.51ZM112.22 268.789L109.359 271.65L108.652 270.942L111.513 268.082L112.22 268.789ZM117.941 263.068L115.08 265.928L114.373 265.221L117.234 262.361L117.941 263.068ZM123.662 257.347L120.801 260.207L120.094 259.5L122.955 256.64L123.662 257.347ZM129.383 251.626L126.523 254.486L125.815 253.779L128.676 250.918L129.383 251.626ZM135.104 245.904L132.244 248.765L131.537 248.058L134.397 245.197L135.104 245.904ZM140.825 240.183L137.965 243.044L137.258 242.337L140.118 239.476L140.825 240.183ZM146.547 234.462L143.686 237.323L142.979 236.616L145.839 233.755L146.547 234.462ZM152.268 228.741L149.407 231.602L148.7 230.894L151.561 228.034L152.268 228.741ZM157.989 223.02L155.128 225.88L154.421 225.173L157.282 222.313L157.989 223.02ZM163.71 217.299L160.849 220.159L160.142 219.452L163.003 216.592L163.71 217.299ZM169.431 211.578L166.571 214.438L165.863 213.731L168.724 210.87L169.431 211.578ZM175.152 205.856L172.292 208.717L171.585 208.01L174.445 205.149L175.152 205.856ZM180.873 200.135L178.013 202.996L177.306 202.289L180.166 199.428L180.873 200.135ZM186.594 194.414L183.734 197.275L183.027 196.568L185.887 193.707L186.594 194.414ZM190.885 190.123L189.455 191.554L188.748 190.846L190.178 189.416L190.885 190.123Z" fill="white"/>
</svg>
