<svg width="48" height="48" viewBox="0 0 48 48" fill="none" xmlns="http://www.w3.org/2000/svg">
<g id="ruler">
<path id="Icon" d="M28.9999 10.9998L31.9999 13.9998M22.9999 16.9998L25.9999 19.9998M16.9999 22.9998L19.9999 25.9998M10.9999 28.9998L13.9999 31.9998M5.13122 35.1312L12.8685 42.8685C13.2645 43.2645 13.4625 43.4625 13.6908 43.5367C13.8917 43.602 14.108 43.602 14.3089 43.5367C14.5372 43.4625 14.7352 43.2645 15.1312 42.8685L42.8685 15.1312C43.2645 14.7352 43.4625 14.5372 43.5367 14.3089C43.602 14.108 43.602 13.8917 43.5367 13.6908C43.4625 13.4625 43.2645 13.2645 42.8685 12.8685L35.1312 5.13122C34.7352 4.7352 34.5372 4.53719 34.3089 4.46301C34.108 4.39775 33.8917 4.39775 33.6908 4.46301C33.4625 4.53719 33.2645 4.7352 32.8685 5.13122L5.13122 32.8685C4.7352 33.2645 4.53719 33.4625 4.46301 33.6908C4.39775 33.8917 4.39775 34.108 4.46301 34.3089C4.53719 34.5372 4.7352 34.7352 5.13122 35.1312Z" stroke="white" stroke-linecap="round" stroke-linejoin="round"/>
</g>
</svg>
