<svg width="40" height="40" viewBox="0 0 40 40" fill="none" xmlns="http://www.w3.org/2000/svg">
  <path d="M32.499 12.4982L31.4298 13.5673C30.6488 14.3483 29.3825 14.3483 28.6014 13.5673L26.4298 11.3957C25.6488 10.6147 25.6488 9.34835 26.4298 8.5673L27.499 7.49818C28.199 6.79818 29.099 6.46484 29.999 6.46484C30.899 6.46484 31.799 6.79818 32.499 7.49818C33.8823 8.88151 33.8823 11.1148 32.499 12.4982Z" fill="#ECECEE"/>
  <path d="M27.0868 15.0858C27.8678 15.8668 27.8678 17.1332 27.0868 17.9142L10.8344 34.1665C9.45104 35.5498 7.21771 35.5498 5.83438 34.1665C4.45104 32.7832 4.45104 30.5498 5.83438 29.1665L22.0868 12.9142C22.8678 12.1332 24.1341 12.1332 24.9152 12.9142L27.0868 15.0858Z" fill="#ECECEE"/>
  <path d="M16.5816 5.83287L17.2649 3.51621C17.3316 3.29954 17.2649 3.06621 17.1149 2.89954C16.9649 2.73287 16.6982 2.66621 16.4816 2.73287L14.1649 3.41621L11.8482 2.73287C11.6316 2.66621 11.3982 2.73287 11.2316 2.88287C11.0649 3.04954 11.0149 3.28287 11.0816 3.49954L11.7482 5.83287L11.0649 8.14954C10.9982 8.36621 11.0649 8.59954 11.2149 8.76621C11.3816 8.93287 11.6149 8.98287 11.8316 8.91621L14.1649 8.24954L16.4816 8.93287C16.5482 8.94954 16.5982 8.96621 16.6649 8.96621C16.8316 8.96621 16.9816 8.89954 17.1149 8.78287C17.2816 8.61621 17.3316 8.38287 17.2649 8.16621L16.5816 5.83287Z" fill="#ECECEE"/>
  <path d="M9.91751 15.8329L10.6008 13.5162C10.6675 13.2995 10.6008 13.0662 10.4508 12.8995C10.2842 12.7329 10.0508 12.6829 9.83418 12.7495L7.50084 13.4162L5.18418 12.7329C4.96751 12.6662 4.73418 12.7329 4.56751 12.8829C4.40084 13.0495 4.35084 13.2829 4.41751 13.4995L5.08418 15.8329L4.40084 18.1495C4.33418 18.3662 4.40084 18.5995 4.55084 18.7662C4.71751 18.9329 4.95084 18.9829 5.16751 18.9162L7.48417 18.2329L9.80084 18.9162C9.85084 18.9329 9.91751 18.9329 9.98418 18.9329C10.1508 18.9329 10.3008 18.8662 10.4342 18.7495C10.6008 18.5829 10.6508 18.3495 10.5842 18.1329L9.91751 15.8329Z" fill="#ECECEE"/>
  <path d="M34.9182 24.1666L35.6015 21.8499C35.6682 21.6333 35.6015 21.3999 35.4515 21.2333C35.2848 21.0666 35.0515 21.0166 34.8348 21.0833L32.5182 21.7666L30.2015 21.0833C29.9848 21.0166 29.7515 21.0833 29.5848 21.2333C29.4182 21.3999 29.3682 21.6333 29.4348 21.8499L30.1182 24.1666L29.4348 26.4833C29.3682 26.6999 29.4348 26.9333 29.5848 27.0999C29.7515 27.2666 29.9848 27.3166 30.2015 27.2499L32.5182 26.5666L34.8348 27.2499C34.8848 27.2666 34.9515 27.2666 35.0182 27.2666C35.1848 27.2666 35.3348 27.1999 35.4682 27.0833C35.6348 26.9166 35.6848 26.6833 35.6182 26.4666L34.9182 24.1666Z" fill="#ECECEE"/>
  </svg>
  