<svg width="148" height="148" viewBox="0 0 148 148" fill="none" xmlns="http://www.w3.org/2000/svg">
<path fill-rule="evenodd" clip-rule="evenodd" d="M9.09671 9.10582C17.8376 0.503346 32.8838 -0.327824 50.4137 5.67135C57.6087 8.13364 65.1812 11.7354 72.8397 16.3797C62.0742 22.8024 51.1492 31.213 40.8391 41.3597C30.5294 51.5061 21.9458 62.2951 15.3521 72.9567C10.8308 65.225 7.35033 57.5961 5.00321 50.3628C-0.715413 32.7394 0.355803 17.7083 9.09671 9.10582ZM14.9029 73.6876C-0.866617 46.8954 -4.27288 21.2011 8.56545 8.56604C21.4038 -4.06904 47.0405 -0.253047 73.5779 15.9422C100.37 0.17316 126.064 -3.23286 138.698 9.60531C151.334 22.4435 147.518 48.0798 131.323 74.6168C147.092 101.409 150.498 127.103 137.66 139.738C124.822 152.372 99.1854 148.557 72.6487 132.362C45.8563 148.132 20.1619 151.538 7.52696 138.7C-5.10803 125.861 -1.29215 100.225 14.9029 73.6876ZM71.9175 131.913C64.186 136.434 56.5571 139.915 49.3237 142.262C31.7002 147.981 16.6692 146.909 8.06677 138.168C-0.535721 129.428 -1.36689 114.381 4.63228 96.8514C7.09454 89.6566 10.6963 82.0843 15.3404 74.4258C21.7631 85.1911 30.1734 96.1157 40.3197 106.425C50.4664 116.735 61.2558 125.319 71.9175 131.913ZM72.6558 131.478C61.9419 124.893 51.0777 116.277 40.8596 105.894C30.6415 95.5119 22.2 84.5119 15.7868 73.6947C22.3717 62.9813 30.988 52.1175 41.3703 41.8994C51.753 31.6812 62.7532 23.2393 73.5708 16.8261C84.2842 23.411 95.1478 32.0272 105.366 42.4095C115.584 52.7922 124.026 63.7923 130.439 74.6097C123.854 85.3236 115.238 96.1875 104.855 106.406C94.4727 116.624 83.473 125.065 72.6558 131.478ZM73.3869 131.925C81.045 136.569 88.6171 140.17 95.8116 142.632C113.342 148.631 128.388 147.8 137.129 139.198C145.87 130.595 146.941 115.564 141.222 97.9409C138.875 90.7078 135.395 83.0793 130.874 75.348C124.28 86.0095 115.696 96.7989 105.386 106.945C95.0768 117.092 84.1522 125.502 73.3869 131.925ZM130.885 73.8786C135.53 66.2205 139.131 58.6482 141.593 51.4537C147.592 33.9237 146.761 18.8775 138.159 10.1366C129.556 1.39566 114.525 0.324445 96.9017 6.04305C89.6688 8.39009 82.0403 11.8703 74.309 16.3914C84.9703 22.9852 95.7591 31.5686 105.906 41.8783C116.052 52.1881 124.463 63.1131 130.885 73.8786Z" fill="white"/>
<path d="M79 52V54.8C79 55.9201 79 56.4802 78.782 56.908C78.5903 57.2843 78.2843 57.5903 77.908 57.782C77.4802 58 76.9201 58 75.8 58H70.2C69.0799 58 68.5198 58 68.092 57.782C67.7157 57.5903 67.4097 57.2843 67.218 56.908C67 56.4802 67 55.9201 67 54.8V52M65.4 99H80.6C82.8402 99 83.9603 99 84.816 98.564C85.5686 98.1805 86.1805 97.5686 86.564 96.816C87 95.9603 87 94.8402 87 92.6V58.4C87 56.1598 87 55.0397 86.564 54.184C86.1805 53.4314 85.5686 52.8195 84.816 52.436C83.9603 52 82.8402 52 80.6 52H65.4C63.1598 52 62.0397 52 61.184 52.436C60.4314 52.8195 59.8195 53.4314 59.436 54.184C59 55.0397 59 56.1598 59 58.4V92.6C59 94.8402 59 95.9603 59.436 96.816C59.8195 97.5686 60.4314 98.1805 61.184 98.564C62.0397 99 63.1598 99 65.4 99Z" stroke="white" stroke-linecap="round" stroke-linejoin="round"/>
</svg>
