<svg width="148" height="148" viewBox="0 0 148 148" fill="none" xmlns="http://www.w3.org/2000/svg">
  <g opacity="0.2">
  <path fill-rule="evenodd" clip-rule="evenodd" d="M9.09671 9.10582C17.8376 0.503346 32.8838 -0.327824 50.4137 5.67135C57.6087 8.13364 65.1812 11.7354 72.8397 16.3797C62.0741 22.8024 51.1492 31.213 40.8391 41.3597C30.5294 51.5061 21.9458 62.2951 15.3521 72.9567C10.8308 65.225 7.35033 57.5961 5.00321 50.3628C-0.715413 32.7394 0.355803 17.7083 9.09671 9.10582ZM14.9029 73.6876C-0.866617 46.8954 -4.27288 21.2011 8.56545 8.56604C21.4038 -4.06904 47.0405 -0.253047 73.5779 15.9422C100.37 0.17316 126.064 -3.23286 138.698 9.60531C151.334 22.4435 147.518 48.0798 131.323 74.6168C147.092 101.409 150.498 127.103 137.66 139.738C124.822 152.372 99.1854 148.557 72.6487 132.362C45.8563 148.132 20.1619 151.538 7.52696 138.7C-5.10803 125.861 -1.29215 100.225 14.9029 73.6876ZM71.9175 131.913C64.186 136.434 56.5571 139.915 49.3237 142.262C31.7002 147.981 16.6692 146.909 8.06677 138.168C-0.535721 129.428 -1.36689 114.381 4.63228 96.8514C7.09454 89.6566 10.6963 82.0843 15.3404 74.4258C21.7631 85.1911 30.1734 96.1157 40.3197 106.425C50.4664 116.735 61.2558 125.319 71.9175 131.913ZM72.6558 131.478C61.9419 124.893 51.0777 116.277 40.8596 105.894C30.6415 95.5119 22.2 84.5119 15.7868 73.6947C22.3717 62.9813 30.988 52.1175 41.3703 41.8994C51.753 31.6812 62.7532 23.2393 73.5708 16.8261C84.2842 23.411 95.1478 32.0272 105.366 42.4095C115.584 52.7922 124.026 63.7923 130.439 74.6097C123.854 85.3236 115.238 96.1875 104.855 106.406C94.4727 116.624 83.473 125.065 72.6558 131.478ZM73.3869 131.925C81.045 136.569 88.6171 140.17 95.8116 142.632C113.342 148.631 128.388 147.8 137.129 139.198C145.87 130.595 146.941 115.564 141.222 97.9409C138.875 90.7078 135.395 83.0793 130.874 75.348C124.28 86.0095 115.696 96.7989 105.386 106.945C95.0768 117.092 84.1522 125.502 73.3869 131.925ZM130.885 73.8786C135.53 66.2205 139.131 58.6482 141.593 51.4537C147.592 33.9237 146.761 18.8775 138.159 10.1366C129.556 1.39566 114.525 0.324445 96.9017 6.04305C89.6688 8.39009 82.0403 11.8703 74.309 16.3914C84.9703 22.9852 95.7591 31.5686 105.906 41.8783C116.052 52.1881 124.463 63.1131 130.885 73.8786Z" fill="url(#paint0_linear_1416_489)"/>
  <path d="M130.885 73.8786C135.53 66.2205 139.131 58.6482 141.593 51.4537C147.592 33.9237 146.761 18.8775 138.159 10.1366C129.556 1.39566 114.525 0.324445 96.9017 6.04305C89.6688 8.39009 82.0403 11.8703 74.309 16.3914C84.9703 22.9852 95.7591 31.5686 105.906 41.8783C116.052 52.1881 124.463 63.1131 130.885 73.8786Z" fill="url(#paint1_linear_1416_489)"/>
  <path d="M72.6558 131.478C61.9419 124.893 51.0777 116.277 40.8596 105.894C30.6415 95.5119 22.2 84.5119 15.7868 73.6947C22.3717 62.9813 30.988 52.1175 41.3703 41.8994C51.753 31.6812 62.7532 23.2393 73.5708 16.8261C84.2842 23.411 95.1478 32.0272 105.366 42.4095C115.584 52.7922 124.026 63.7923 130.439 74.6097C123.854 85.3236 115.238 96.1875 104.855 106.406C94.4727 116.624 83.473 125.065 72.6558 131.478Z" fill="url(#paint2_linear_1416_489)"/>
  <path d="M71.9175 131.913C64.186 136.434 56.5571 139.915 49.3237 142.262C31.7002 147.981 16.6692 146.909 8.06677 138.168C-0.535721 129.428 -1.36689 114.381 4.63228 96.8514C7.09454 89.6566 10.6963 82.0843 15.3404 74.4258C21.7631 85.1911 30.1734 96.1157 40.3197 106.425C50.4664 116.735 61.2558 125.319 71.9175 131.913Z" fill="url(#paint3_linear_1416_489)"/>
  <path d="M9.09671 9.10582C17.8376 0.503346 32.8838 -0.327824 50.4137 5.67135C57.6087 8.13364 65.1812 11.7354 72.8397 16.3797C62.0741 22.8024 51.1492 31.213 40.8391 41.3597C30.5294 51.5061 21.9458 62.2951 15.3521 72.9567C10.8308 65.225 7.35033 57.5961 5.00321 50.3628C-0.715413 32.7394 0.355803 17.7083 9.09671 9.10582Z" fill="url(#paint4_linear_1416_489)"/>
  <path d="M73.3869 131.925C81.045 136.569 88.6171 140.17 95.8116 142.632C113.342 148.631 128.388 147.8 137.129 139.198C145.87 130.595 146.941 115.564 141.222 97.9409C138.875 90.7078 135.395 83.0793 130.874 75.348C124.28 86.0095 115.696 96.7989 105.386 106.945C95.0768 117.092 84.1522 125.502 73.3869 131.925Z" fill="url(#paint5_linear_1416_489)"/>
  </g>
  <path d="M10.2721 9.24494C18.9092 0.74462 33.8311 -0.120695 51.3328 5.86882C58.3972 8.28643 65.8305 11.807 73.3546 16.3396C62.6866 22.7456 51.8733 31.0946 41.6637 41.1424C31.4545 51.19 22.9342 61.8683 16.3588 72.4326C11.9469 64.837 8.54553 57.3486 6.241 50.2466C0.531589 32.6515 1.63496 17.7453 10.2721 9.24494ZM9.39009 8.34879C2.89714 14.7389 0.534981 24.4096 1.75766 35.8055C2.97657 47.1663 7.75976 60.2743 15.6116 73.6462C7.54738 86.8912 2.55562 99.9211 1.15555 111.261C-0.248843 122.636 1.95866 132.343 8.34878 138.836C14.7389 145.329 24.4095 147.691 35.8055 146.468C47.1663 145.25 60.2743 140.466 73.6463 132.614C86.8911 140.678 99.9209 145.67 111.261 147.07C122.635 148.474 132.342 146.267 138.835 139.877C145.328 133.487 147.69 123.816 146.468 112.42C145.249 101.06 140.466 87.9519 132.614 74.5801C140.678 61.3352 145.67 48.3054 147.07 36.9656C148.474 25.5908 146.267 15.8838 139.877 9.39089C133.487 2.89802 123.816 0.53584 112.42 1.75842C101.06 2.97723 87.952 7.76024 74.5802 15.6118C61.3351 7.54751 48.3051 2.55568 36.9651 1.15557C25.5902 -0.248865 15.883 1.95864 9.39009 8.34879ZM41.1415 106.562C51.1894 116.771 61.868 125.292 72.4325 131.867C64.8372 136.279 57.3487 139.681 50.2465 141.985C32.6514 147.695 17.7453 146.591 9.24495 137.954C0.744615 129.317 -0.120702 114.395 5.86881 96.8933C8.2864 89.829 11.8068 82.3959 16.3393 74.8718C22.7453 85.5396 31.0941 96.3525 41.1415 106.562ZM73.6581 131.147C63.0041 124.583 52.2017 116.007 42.0378 105.68C31.8739 95.3525 23.4717 84.415 17.0789 73.658C23.6424 63.0044 32.2185 52.2024 42.5457 42.0385C52.8733 31.8746 63.811 23.472 74.5685 17.0791C85.222 23.6427 96.0238 32.2186 106.188 42.5458C116.352 52.8734 124.754 63.8111 131.147 74.5683C124.583 85.2223 116.007 96.0245 105.68 106.188C95.3525 116.352 84.4151 124.755 73.6581 131.147ZM96.8926 142.357C89.8286 139.939 82.3956 136.419 74.8719 131.887C85.5397 125.481 96.3526 117.132 106.562 107.084C116.771 97.0369 125.292 86.3582 131.867 75.7939C136.279 83.3891 139.68 90.8772 141.984 97.979C147.694 115.574 146.59 130.48 137.953 138.98C129.316 147.481 114.394 148.346 96.8926 142.357ZM142.357 51.3336C139.939 58.3977 136.419 65.8308 131.887 73.3545C125.48 62.6865 117.131 51.8732 107.084 41.6638C97.0362 31.4546 86.3581 22.9345 75.794 16.359C83.3892 11.9474 90.8773 8.54623 97.9789 6.24178C115.574 0.532384 130.48 1.63576 138.981 10.2728C147.481 18.91 148.346 33.832 142.357 51.3336Z" fill="#ECECEE" stroke="#ECECEE" stroke-width="0.5"/>
  <path fill-rule="evenodd" clip-rule="evenodd" d="M66.7188 54.1637C66.7188 53.0037 65.7121 52.0641 64.6342 52.4926C62.0474 53.5209 60.2188 56.0469 60.2188 59V89C60.2188 92.866 63.3528 96 67.2188 96H79.2188C83.0847 96 86.2188 92.866 86.2188 89V59C86.2188 56.0469 84.3901 53.5209 81.8033 52.4926C80.7254 52.0641 79.7188 53.0037 79.7188 54.1637V54.5C79.7188 56.1569 78.3756 57.5 76.7188 57.5H69.7188C68.0619 57.5 66.7188 56.1569 66.7188 54.5V54.1637ZM70.7188 52C69.6142 52 68.7188 52.8954 68.7188 54V54.5C68.7188 55.0523 69.1665 55.5 69.7188 55.5H76.7188C77.271 55.5 77.7188 55.0523 77.7188 54.5V54C77.7188 52.8954 76.8233 52 75.7188 52H70.7188Z" fill="#ECECEE"/>
  <defs>
  <linearGradient id="paint0_linear_1416_489" x1="129.461" y1="41.1448" x2="-12.5809" y2="111.537" gradientUnits="userSpaceOnUse">
  <stop stop-color="white"/>
  <stop offset="1" stop-color="white" stop-opacity="0"/>
  </linearGradient>
  <linearGradient id="paint1_linear_1416_489" x1="129.461" y1="41.1448" x2="-12.5809" y2="111.537" gradientUnits="userSpaceOnUse">
  <stop stop-color="white"/>
  <stop offset="1" stop-color="white" stop-opacity="0"/>
  </linearGradient>
  <linearGradient id="paint2_linear_1416_489" x1="129.461" y1="41.1448" x2="-12.5809" y2="111.537" gradientUnits="userSpaceOnUse">
  <stop stop-color="white"/>
  <stop offset="1" stop-color="white" stop-opacity="0"/>
  </linearGradient>
  <linearGradient id="paint3_linear_1416_489" x1="129.461" y1="41.1448" x2="-12.5809" y2="111.537" gradientUnits="userSpaceOnUse">
  <stop stop-color="white"/>
  <stop offset="1" stop-color="white" stop-opacity="0"/>
  </linearGradient>
  <linearGradient id="paint4_linear_1416_489" x1="129.461" y1="41.1448" x2="-12.5809" y2="111.537" gradientUnits="userSpaceOnUse">
  <stop stop-color="white"/>
  <stop offset="1" stop-color="white" stop-opacity="0"/>
  </linearGradient>
  <linearGradient id="paint5_linear_1416_489" x1="129.461" y1="41.1448" x2="-12.5809" y2="111.537" gradientUnits="userSpaceOnUse">
  <stop stop-color="white"/>
  <stop offset="1" stop-color="white" stop-opacity="0"/>
  </linearGradient>
  </defs>
  </svg>
  