<svg width="40" height="40" viewBox="0 0 40 40" fill="none" xmlns="http://www.w3.org/2000/svg">
  <path d="M19.1693 3.33203C10.4359 3.33203 3.33594 10.432 3.33594 19.1654C3.33594 27.8987 10.4359 34.9987 19.1693 34.9987C27.9026 34.9987 35.0026 27.8987 35.0026 19.1654C35.0026 10.432 27.9026 3.33203 19.1693 3.33203ZM19.1693 22.9154H14.1693C13.4859 22.9154 12.9193 22.3487 12.9193 21.6654C12.9193 20.982 13.4859 20.4154 14.1693 20.4154H19.1693C19.8526 20.4154 20.4193 20.982 20.4193 21.6654C20.4193 22.3487 19.8526 22.9154 19.1693 22.9154ZM24.1693 17.9154H14.1693C13.4859 17.9154 12.9193 17.3487 12.9193 16.6654C12.9193 15.982 13.4859 15.4154 14.1693 15.4154H24.1693C24.8526 15.4154 25.4193 15.982 25.4193 16.6654C25.4193 17.3487 24.8526 17.9154 24.1693 17.9154Z" fill="#ECECEE"/>
  <path d="M35.5042 36.663C35.2042 36.663 34.9042 36.5464 34.6875 36.3297L31.5875 33.2297C31.1375 32.7797 31.1375 32.0464 31.5875 31.5797C32.0375 31.1297 32.7708 31.1297 33.2375 31.5797L36.3375 34.6797C36.7875 35.1297 36.7875 35.863 36.3375 36.3297C36.1042 36.5464 35.8042 36.663 35.5042 36.663Z" fill="#ECECEE"/>
  </svg>
  